<svg width="600" height="570" viewBox="0 0 600 570" fill="none" xmlns="http://www.w3.org/2000/svg">
<rect width="600" height="570" fill="#515050"/>
<rect x="301.213" y="274" width="30" height="30" transform="rotate(45 301.213 274)" fill="#CF6262"/>
<path d="M299.939 116.061C300.525 116.646 301.475 116.646 302.061 116.061L311.607 106.515C312.192 105.929 312.192 104.979 311.607 104.393C311.021 103.808 310.071 103.808 309.485 104.393L301 112.879L292.515 104.393C291.929 103.808 290.979 103.808 290.393 104.393C289.808 104.979 289.808 105.929 290.393 106.515L299.939 116.061ZM299.5 65L299.5 115L302.5 115L302.5 65L299.5 65Z" fill="white"/>
<path d="M301 355L309.66 340L292.34 340L301 355ZM299.5 316L299.5 341.5L302.5 341.5L302.5 316L299.5 316Z" fill="white"/>
<path d="M240 192H360V231.773H240V192Z" fill="#BDBDBD"/>
<path d="M300 183L308.66 168H291.34L300 183ZM298.5 153V169.5H301.5V153H298.5Z" fill="white"/>
<path d="M177 294V139" stroke="white" stroke-width="3"/>
<circle cx="300.5" cy="0.5" r="0.5" fill="#D9D9D9"/>
<path d="M225.757 45.172H232.253V49H220.798V28.642H225.757V45.172ZM241.984 49.232C240.399 49.232 238.968 48.8937 237.692 48.217C236.436 47.5403 235.44 46.5737 234.705 45.317C233.99 44.0603 233.632 42.591 233.632 40.909C233.632 39.2463 234 37.7867 234.734 36.53C235.469 35.254 236.474 34.2777 237.75 33.601C239.026 32.9243 240.457 32.586 242.042 32.586C243.628 32.586 245.058 32.9243 246.334 33.601C247.61 34.2777 248.616 35.254 249.35 36.53C250.085 37.7867 250.452 39.2463 250.452 40.909C250.452 42.5717 250.075 44.041 249.321 45.317C248.587 46.5737 247.572 47.5403 246.276 48.217C245 48.8937 243.57 49.232 241.984 49.232ZM241.984 44.94C242.932 44.94 243.734 44.592 244.391 43.896C245.068 43.2 245.406 42.2043 245.406 40.909C245.406 39.6137 245.078 38.618 244.42 37.922C243.782 37.226 242.99 36.878 242.042 36.878C241.076 36.878 240.273 37.226 239.635 37.922C238.997 38.5987 238.678 39.5943 238.678 40.909C238.678 42.2043 238.988 43.2 239.606 43.896C240.244 44.592 241.037 44.94 241.984 44.94ZM260.449 49.232C258.864 49.232 257.433 48.8937 256.157 48.217C254.9 47.5403 253.905 46.5737 253.17 45.317C252.455 44.0603 252.097 42.591 252.097 40.909C252.097 39.2463 252.464 37.7867 253.199 36.53C253.934 35.254 254.939 34.2777 256.215 33.601C257.491 32.9243 258.922 32.586 260.507 32.586C262.092 32.586 263.523 32.9243 264.799 33.601C266.075 34.2777 267.08 35.254 267.815 36.53C268.55 37.7867 268.917 39.2463 268.917 40.909C268.917 42.5717 268.54 44.041 267.786 45.317C267.051 46.5737 266.036 47.5403 264.741 48.217C263.465 48.8937 262.034 49.232 260.449 49.232ZM260.449 44.94C261.396 44.94 262.199 44.592 262.856 43.896C263.533 43.2 263.871 42.2043 263.871 40.909C263.871 39.6137 263.542 38.618 262.885 37.922C262.247 37.226 261.454 36.878 260.507 36.878C259.54 36.878 258.738 37.226 258.1 37.922C257.462 38.5987 257.143 39.5943 257.143 40.909C257.143 42.2043 257.452 43.2 258.071 43.896C258.709 44.592 259.502 44.94 260.449 44.94ZM276.507 35.109C276.99 34.355 277.657 33.746 278.508 33.282C279.359 32.818 280.354 32.586 281.495 32.586C282.829 32.586 284.037 32.9243 285.12 33.601C286.203 34.2777 287.053 35.2443 287.672 36.501C288.31 37.7577 288.629 39.2173 288.629 40.88C288.629 42.5427 288.31 44.012 287.672 45.288C287.053 46.5447 286.203 47.521 285.12 48.217C284.037 48.8937 282.829 49.232 281.495 49.232C280.374 49.232 279.378 49 278.508 48.536C277.657 48.072 276.99 47.4727 276.507 46.738V56.714H271.548V32.818H276.507V35.109ZM283.583 40.88C283.583 39.6427 283.235 38.676 282.539 37.98C281.862 37.2647 281.021 36.907 280.016 36.907C279.03 36.907 278.189 37.2647 277.493 37.98C276.816 38.6953 276.478 39.6717 276.478 40.909C276.478 42.1463 276.816 43.1227 277.493 43.838C278.189 44.5533 279.03 44.911 280.016 44.911C281.002 44.911 281.843 44.5533 282.539 43.838C283.235 43.1033 283.583 42.1173 283.583 40.88ZM325.39 28.642L320.083 49H314.08L310.832 35.602L307.468 49H301.465L296.303 28.642H301.61L304.539 43.461L308.164 28.642H313.616L317.096 43.461L320.054 28.642H325.39ZM337.824 32.644C339.68 32.644 341.169 33.2627 342.29 34.5C343.411 35.718 343.972 37.4 343.972 39.546V49H339.042V40.213C339.042 39.1303 338.762 38.2893 338.201 37.69C337.64 37.0907 336.886 36.791 335.939 36.791C334.992 36.791 334.238 37.0907 333.677 37.69C333.116 38.2893 332.836 39.1303 332.836 40.213V49H327.877V27.54H332.836V34.993C333.339 34.2777 334.025 33.7073 334.895 33.282C335.765 32.8567 336.741 32.644 337.824 32.644ZM349.912 31.136C349.042 31.136 348.327 30.8847 347.766 30.382C347.225 29.86 346.954 29.222 346.954 28.468C346.954 27.6947 347.225 27.0567 347.766 26.554C348.327 26.032 349.042 25.771 349.912 25.771C350.763 25.771 351.459 26.032 352 26.554C352.561 27.0567 352.841 27.6947 352.841 28.468C352.841 29.222 352.561 29.86 352 30.382C351.459 30.8847 350.763 31.136 349.912 31.136ZM352.377 32.818V49H347.418V32.818H352.377ZM360.93 27.54V49H355.971V27.54H360.93ZM379.778 40.648C379.778 41.112 379.749 41.5953 379.691 42.098H368.468C368.545 43.1033 368.864 43.8767 369.425 44.418C370.005 44.94 370.71 45.201 371.542 45.201C372.779 45.201 373.639 44.679 374.123 43.635H379.401C379.13 44.6983 378.637 45.6553 377.922 46.506C377.226 47.3567 376.346 48.0237 375.283 48.507C374.219 48.9903 373.03 49.232 371.716 49.232C370.13 49.232 368.719 48.8937 367.482 48.217C366.244 47.5403 365.278 46.5737 364.582 45.317C363.886 44.0603 363.538 42.591 363.538 40.909C363.538 39.227 363.876 37.7577 364.553 36.501C365.249 35.2443 366.215 34.2777 367.453 33.601C368.69 32.9243 370.111 32.586 371.716 32.586C373.282 32.586 374.674 32.9147 375.892 33.572C377.11 34.2293 378.057 35.167 378.734 36.385C379.43 37.603 379.778 39.024 379.778 40.648ZM374.703 39.343C374.703 38.4923 374.413 37.8157 373.833 37.313C373.253 36.8103 372.528 36.559 371.658 36.559C370.826 36.559 370.121 36.8007 369.541 37.284C368.98 37.7673 368.632 38.4537 368.497 39.343H374.703Z" fill="white"/>
<path d="M454.831 272.882L455.482 273.64L454.831 272.882ZM385.733 296.948L385.773 295.948L385.733 296.948ZM341 295.185L350.765 301.347L351.22 289.809L341 295.185ZM481.982 248.241L480.823 249.237L482.126 250.754L483.285 249.759L481.982 248.241ZM478.506 251.227L476.189 253.217L477.493 254.734L479.81 252.744L478.506 251.227ZM473.873 255.207L471.556 257.197L472.859 258.714L475.176 256.724L473.873 255.207ZM469.239 259.187L466.922 261.177L468.225 262.695L470.542 260.704L469.239 259.187ZM464.605 263.168L462.288 265.158L463.591 266.675L465.908 264.685L464.605 263.168ZM459.971 267.148L457.655 269.138L458.958 270.655L461.275 268.665L459.971 267.148ZM455.338 271.128L454.179 272.123L455.482 273.64L456.641 272.645L455.338 271.128ZM454.179 272.123C453.788 272.459 453.395 272.792 452.999 273.121L454.278 274.658C454.682 274.322 455.083 273.983 455.482 273.64L454.179 272.123ZM450.594 275.06C449.781 275.695 448.959 276.316 448.129 276.924L449.31 278.538C450.157 277.918 450.995 277.284 451.825 276.636L450.594 275.06ZM445.607 278.709C444.757 279.291 443.898 279.86 443.031 280.415L444.109 282.099C444.993 281.533 445.869 280.953 446.737 280.359L445.607 278.709ZM440.403 282.039C439.518 282.567 438.625 283.081 437.725 283.581L438.696 285.329C439.614 284.82 440.525 284.295 441.428 283.757L440.403 282.039ZM435.001 285.038C434.085 285.51 433.161 285.967 432.232 286.41L433.092 288.216C434.04 287.764 434.982 287.298 435.916 286.816L435.001 285.038ZM429.422 287.694C428.478 288.108 427.529 288.507 426.573 288.891L427.319 290.746C428.293 290.355 429.262 289.948 430.225 289.526L429.422 287.694ZM423.688 289.997C422.721 290.351 421.748 290.69 420.77 291.014L421.399 292.912C422.396 292.582 423.389 292.237 424.375 291.876L423.688 289.997ZM417.822 291.938C416.835 292.231 415.843 292.509 414.847 292.771L415.355 294.705C416.372 294.438 417.384 294.155 418.391 293.856L417.822 291.938ZM411.847 293.51C410.843 293.74 409.836 293.955 408.825 294.155L409.212 296.117C410.243 295.914 411.271 295.694 412.295 295.459L411.847 293.51ZM405.785 294.705C404.769 294.873 403.75 295.025 402.729 295.161L402.992 297.143C404.035 297.004 405.074 296.85 406.11 296.679L405.785 294.705ZM399.66 295.52C398.636 295.624 397.61 295.712 396.581 295.784L396.721 297.779C397.77 297.706 398.817 297.616 399.861 297.51L399.66 295.52ZM393.496 295.951C392.468 295.991 391.438 296.015 390.407 296.022L390.422 298.022C391.474 298.015 392.524 297.99 393.573 297.95L393.496 295.951ZM387.318 295.997C386.803 295.985 386.288 295.969 385.773 295.948L385.694 297.947C386.22 297.968 386.745 297.984 387.27 297.997L387.318 295.997ZM385.773 295.948L384.175 295.885L384.096 297.884L385.694 297.947L385.773 295.948ZM380.98 295.759L377.785 295.634L377.706 297.632L380.901 297.758L380.98 295.759ZM374.589 295.508L371.394 295.382L371.315 297.38L374.511 297.506L374.589 295.508ZM368.199 295.256L365.004 295.13L364.925 297.128L368.12 297.254L368.199 295.256ZM361.808 295.004L358.613 294.878L358.534 296.876L361.73 297.002L361.808 295.004ZM355.418 294.752L352.223 294.626L352.144 296.625L355.339 296.751L355.418 294.752ZM349.027 294.5L345.832 294.374L345.753 296.373L348.949 296.499L349.027 294.5ZM454.831 272.882L456.134 274.399L454.831 272.882ZM385.733 296.948L385.812 294.949L385.733 296.948ZM341 295.185L360.53 307.51L361.439 284.434L341 295.185ZM481.33 247.483L480.172 248.478L482.778 251.512L483.936 250.517L481.33 247.483ZM477.855 250.468L475.538 252.458L478.144 255.493L480.461 253.502L477.855 250.468ZM473.221 254.448L470.904 256.439L473.511 259.473L475.827 257.483L473.221 254.448ZM468.587 258.429L466.27 260.419L468.877 263.453L471.194 261.463L468.587 258.429ZM463.954 262.409L461.637 264.399L464.243 267.433L466.56 265.443L463.954 262.409ZM459.32 266.389L457.003 268.379L459.609 271.414L461.926 269.424L459.32 266.389ZM454.686 270.37L453.528 271.365L456.134 274.399L457.292 273.404L454.686 270.37ZM453.528 271.365C453.14 271.697 452.751 272.027 452.359 272.353L454.918 275.427C455.326 275.088 455.731 274.745 456.134 274.399L453.528 271.365ZM449.979 274.272C449.174 274.9 448.36 275.515 447.538 276.116L449.9 279.345C450.756 278.719 451.603 278.079 452.44 277.425L449.979 274.272ZM445.042 277.884C444.2 278.46 443.35 279.023 442.492 279.572L444.648 282.941C445.541 282.37 446.426 281.784 447.302 281.184L445.042 277.884ZM439.89 281.18C439.014 281.703 438.13 282.212 437.24 282.707L439.181 286.204C440.108 285.689 441.028 285.16 441.94 284.615L439.89 281.18ZM434.543 284.149C433.636 284.616 432.722 285.069 431.802 285.507L433.522 289.118C434.479 288.662 435.43 288.191 436.374 287.705L434.543 284.149ZM429.02 286.779C428.086 287.188 427.146 287.583 426.2 287.963L427.691 291.674C428.676 291.279 429.654 290.868 430.626 290.442L429.02 286.779ZM423.345 289.058C422.387 289.409 421.424 289.744 420.456 290.064L421.713 293.862C422.72 293.528 423.722 293.179 424.719 292.815L423.345 289.058ZM417.538 290.98C416.561 291.27 415.579 291.544 414.592 291.804L415.61 295.672C416.636 295.402 417.658 295.116 418.675 294.815L417.538 290.98ZM411.623 292.535C410.629 292.764 409.632 292.976 408.631 293.174L409.405 297.098C410.447 296.893 411.485 296.671 412.519 296.434L411.623 292.535ZM405.622 293.719C404.617 293.884 403.608 294.035 402.597 294.169L403.124 298.134C404.177 297.994 405.227 297.838 406.273 297.665L405.622 293.719ZM399.559 294.525C398.545 294.628 397.53 294.715 396.512 294.786L396.791 298.777C397.85 298.703 398.908 298.612 399.962 298.505L399.559 294.525ZM393.458 294.952C392.44 294.991 391.42 295.015 390.399 295.023L390.429 299.022C391.492 299.015 392.553 298.99 393.612 298.949L393.458 294.952ZM387.341 294.997C386.832 294.985 386.322 294.969 385.812 294.949L385.655 298.946C386.185 298.967 386.716 298.984 387.246 298.996L387.341 294.997ZM385.812 294.949L384.215 294.886L384.057 298.883L385.655 298.946L385.812 294.949ZM381.019 294.76L377.824 294.634L377.667 298.631L380.862 298.757L381.019 294.76ZM374.629 294.508L371.434 294.382L371.276 298.379L374.471 298.505L374.629 294.508ZM368.238 294.257L365.043 294.131L364.886 298.128L368.081 298.253L368.238 294.257ZM361.848 294.005L358.653 293.879L358.495 297.876L361.69 298.002L361.848 294.005ZM355.457 293.753L352.262 293.627L352.105 297.624L355.3 297.75L355.457 293.753ZM349.067 293.501L345.872 293.375L345.714 297.372L348.909 297.498L349.067 293.501Z" fill="#FEE50A"/>
<path d="M489.262 208.64V219H486.868V208.64H489.262ZM494.553 219.112C493.788 219.112 493.097 218.949 492.481 218.622C491.874 218.295 491.394 217.829 491.039 217.222C490.694 216.615 490.521 215.906 490.521 215.094C490.521 214.291 490.698 213.587 491.053 212.98C491.408 212.364 491.893 211.893 492.509 211.566C493.125 211.239 493.816 211.076 494.581 211.076C495.346 211.076 496.037 211.239 496.653 211.566C497.269 211.893 497.754 212.364 498.109 212.98C498.464 213.587 498.641 214.291 498.641 215.094C498.641 215.897 498.459 216.606 498.095 217.222C497.74 217.829 497.25 218.295 496.625 218.622C496.009 218.949 495.318 219.112 494.553 219.112ZM494.553 217.04C495.01 217.04 495.398 216.872 495.715 216.536C496.042 216.2 496.205 215.719 496.205 215.094C496.205 214.469 496.046 213.988 495.729 213.652C495.421 213.316 495.038 213.148 494.581 213.148C494.114 213.148 493.727 213.316 493.419 213.652C493.111 213.979 492.957 214.459 492.957 215.094C492.957 215.719 493.106 216.2 493.405 216.536C493.713 216.872 494.096 217.04 494.553 217.04ZM503.467 219.112C502.702 219.112 502.011 218.949 501.395 218.622C500.788 218.295 500.308 217.829 499.953 217.222C499.608 216.615 499.435 215.906 499.435 215.094C499.435 214.291 499.612 213.587 499.967 212.98C500.322 212.364 500.807 211.893 501.423 211.566C502.039 211.239 502.73 211.076 503.495 211.076C504.26 211.076 504.951 211.239 505.567 211.566C506.183 211.893 506.668 212.364 507.023 212.98C507.378 213.587 507.555 214.291 507.555 215.094C507.555 215.897 507.373 216.606 507.009 217.222C506.654 217.829 506.164 218.295 505.539 218.622C504.923 218.949 504.232 219.112 503.467 219.112ZM503.467 217.04C503.924 217.04 504.312 216.872 504.629 216.536C504.956 216.2 505.119 215.719 505.119 215.094C505.119 214.469 504.96 213.988 504.643 213.652C504.335 213.316 503.952 213.148 503.495 213.148C503.028 213.148 502.641 213.316 502.333 213.652C502.025 213.979 501.871 214.459 501.871 215.094C501.871 215.719 502.02 216.2 502.319 216.536C502.627 216.872 503.01 217.04 503.467 217.04ZM511.219 212.294C511.452 211.93 511.774 211.636 512.185 211.412C512.596 211.188 513.076 211.076 513.627 211.076C514.271 211.076 514.854 211.239 515.377 211.566C515.9 211.893 516.31 212.359 516.609 212.966C516.917 213.573 517.071 214.277 517.071 215.08C517.071 215.883 516.917 216.592 516.609 217.208C516.31 217.815 515.9 218.286 515.377 218.622C514.854 218.949 514.271 219.112 513.627 219.112C513.086 219.112 512.605 219 512.185 218.776C511.774 218.552 511.452 218.263 511.219 217.908V222.724H508.825V211.188H511.219V212.294ZM514.635 215.08C514.635 214.483 514.467 214.016 514.131 213.68C513.804 213.335 513.398 213.162 512.913 213.162C512.437 213.162 512.031 213.335 511.695 213.68C511.368 214.025 511.205 214.497 511.205 215.094C511.205 215.691 511.368 216.163 511.695 216.508C512.031 216.853 512.437 217.026 512.913 217.026C513.389 217.026 513.795 216.853 514.131 216.508C514.467 216.153 514.635 215.677 514.635 215.08ZM526.054 211.104C526.968 211.104 527.696 211.403 528.238 212C528.788 212.588 529.064 213.4 529.064 214.436V219H526.684V214.758C526.684 214.235 526.548 213.829 526.278 213.54C526.007 213.251 525.643 213.106 525.186 213.106C524.728 213.106 524.364 213.251 524.094 213.54C523.823 213.829 523.688 214.235 523.688 214.758V219H521.294V211.188H523.688V212.224C523.93 211.879 524.257 211.608 524.668 211.412C525.078 211.207 525.54 211.104 526.054 211.104ZM534.283 219.112C533.518 219.112 532.827 218.949 532.211 218.622C531.605 218.295 531.124 217.829 530.769 217.222C530.424 216.615 530.251 215.906 530.251 215.094C530.251 214.291 530.429 213.587 530.783 212.98C531.138 212.364 531.623 211.893 532.239 211.566C532.855 211.239 533.546 211.076 534.311 211.076C535.077 211.076 535.767 211.239 536.383 211.566C536.999 211.893 537.485 212.364 537.839 212.98C538.194 213.587 538.371 214.291 538.371 215.094C538.371 215.897 538.189 216.606 537.825 217.222C537.471 217.829 536.981 218.295 536.355 218.622C535.739 218.949 535.049 219.112 534.283 219.112ZM534.283 217.04C534.741 217.04 535.128 216.872 535.445 216.536C535.772 216.2 535.935 215.719 535.935 215.094C535.935 214.469 535.777 213.988 535.459 213.652C535.151 213.316 534.769 213.148 534.311 213.148C533.845 213.148 533.457 213.316 533.149 213.652C532.841 213.979 532.687 214.459 532.687 215.094C532.687 215.719 532.837 216.2 533.135 216.536C533.443 216.872 533.826 217.04 534.283 217.04ZM546.528 213.176H545.24V219H542.846V213.176H541.978V211.188H542.846V210.964C542.846 210.003 543.122 209.275 543.672 208.78C544.223 208.276 545.03 208.024 546.094 208.024C546.272 208.024 546.402 208.029 546.486 208.038V210.068C546.029 210.04 545.707 210.105 545.52 210.264C545.334 210.423 545.24 210.707 545.24 211.118V211.188H546.528V213.176ZM548.857 210.376C548.437 210.376 548.092 210.255 547.821 210.012C547.56 209.76 547.429 209.452 547.429 209.088C547.429 208.715 547.56 208.407 547.821 208.164C548.092 207.912 548.437 207.786 548.857 207.786C549.268 207.786 549.604 207.912 549.865 208.164C550.136 208.407 550.271 208.715 550.271 209.088C550.271 209.452 550.136 209.76 549.865 210.012C549.604 210.255 549.268 210.376 548.857 210.376ZM550.047 211.188V219H547.653V211.188H550.047ZM556.542 211.104C557.457 211.104 558.185 211.403 558.726 212C559.277 212.588 559.552 213.4 559.552 214.436V219H557.172V214.758C557.172 214.235 557.037 213.829 556.766 213.54C556.495 213.251 556.131 213.106 555.674 213.106C555.217 213.106 554.853 213.251 554.582 213.54C554.311 213.829 554.176 214.235 554.176 214.758V219H551.782V211.188H554.176V212.224C554.419 211.879 554.745 211.608 555.156 211.412C555.567 211.207 556.029 211.104 556.542 211.104ZM560.74 215.08C560.74 214.277 560.889 213.573 561.188 212.966C561.496 212.359 561.911 211.893 562.434 211.566C562.956 211.239 563.54 211.076 564.184 211.076C564.734 211.076 565.215 211.188 565.626 211.412C566.046 211.636 566.368 211.93 566.592 212.294V211.188H568.986V219H566.592V217.894C566.358 218.258 566.032 218.552 565.612 218.776C565.201 219 564.72 219.112 564.17 219.112C563.535 219.112 562.956 218.949 562.434 218.622C561.911 218.286 561.496 217.815 561.188 217.208C560.889 216.592 560.74 215.883 560.74 215.08ZM566.592 215.094C566.592 214.497 566.424 214.025 566.088 213.68C565.761 213.335 565.36 213.162 564.884 213.162C564.408 213.162 564.002 213.335 563.666 213.68C563.339 214.016 563.176 214.483 563.176 215.08C563.176 215.677 563.339 216.153 563.666 216.508C564.002 216.853 564.408 217.026 564.884 217.026C565.36 217.026 565.761 216.853 566.088 216.508C566.424 216.163 566.592 215.691 566.592 215.094ZM573.112 208.64V219H570.718V208.64H573.112Z" fill="white"/>
<path d="M236.287 443.24C236.287 442.265 236.469 441.41 236.831 440.673C237.205 439.936 237.71 439.37 238.344 438.973C238.979 438.576 239.687 438.378 240.469 438.378C241.093 438.378 241.659 438.508 242.169 438.769C242.691 439.03 243.099 439.381 243.393 439.823V435.42H246.3V448H243.393V446.64C243.121 447.093 242.73 447.456 242.22 447.728C241.722 448 241.138 448.136 240.469 448.136C239.687 448.136 238.979 447.938 238.344 447.541C237.71 447.133 237.205 446.561 236.831 445.824C236.469 445.076 236.287 444.215 236.287 443.24ZM243.393 443.257C243.393 442.532 243.189 441.959 242.781 441.54C242.385 441.121 241.897 440.911 241.319 440.911C240.741 440.911 240.248 441.121 239.84 441.54C239.444 441.948 239.245 442.515 239.245 443.24C239.245 443.965 239.444 444.543 239.84 444.974C240.248 445.393 240.741 445.603 241.319 445.603C241.897 445.603 242.385 445.393 242.781 444.974C243.189 444.555 243.393 443.982 243.393 443.257ZM252.721 448.136C251.792 448.136 250.953 447.938 250.205 447.541C249.469 447.144 248.885 446.578 248.454 445.841C248.035 445.104 247.825 444.243 247.825 443.257C247.825 442.282 248.041 441.427 248.471 440.69C248.902 439.942 249.491 439.37 250.239 438.973C250.987 438.576 251.826 438.378 252.755 438.378C253.685 438.378 254.523 438.576 255.271 438.973C256.019 439.37 256.609 439.942 257.039 440.69C257.47 441.427 257.685 442.282 257.685 443.257C257.685 444.232 257.464 445.093 257.022 445.841C256.592 446.578 255.997 447.144 255.237 447.541C254.489 447.938 253.651 448.136 252.721 448.136ZM252.721 445.62C253.277 445.62 253.747 445.416 254.132 445.008C254.529 444.6 254.727 444.016 254.727 443.257C254.727 442.498 254.535 441.914 254.149 441.506C253.775 441.098 253.311 440.894 252.755 440.894C252.189 440.894 251.718 441.098 251.344 441.506C250.97 441.903 250.783 442.486 250.783 443.257C250.783 444.016 250.965 444.6 251.327 445.008C251.701 445.416 252.166 445.62 252.721 445.62ZM263.323 440.86C263.878 440.837 264.286 440.718 264.547 440.503C264.808 440.276 264.938 439.959 264.938 439.551C264.938 439.245 264.881 438.639 264.768 437.732C264.757 437.641 264.723 437.352 264.666 436.865C264.609 436.366 264.581 435.919 264.581 435.522C264.581 434.559 264.876 433.811 265.465 433.278C266.054 432.734 266.842 432.462 267.828 432.462H269.052V434.842H268.389C268.026 434.842 267.766 434.921 267.607 435.08C267.448 435.239 267.369 435.482 267.369 435.811C267.369 436.06 267.414 436.627 267.505 437.511C267.607 438.61 267.658 439.33 267.658 439.67C267.658 440.293 267.505 440.809 267.199 441.217C266.904 441.625 266.451 441.886 265.839 441.999V442.033C266.451 442.158 266.904 442.424 267.199 442.832C267.505 443.229 267.658 443.744 267.658 444.379C267.658 444.719 267.607 445.439 267.505 446.538C267.414 447.399 267.369 447.96 267.369 448.221C267.369 448.55 267.448 448.793 267.607 448.952C267.766 449.122 268.026 449.207 268.389 449.207H269.052V451.587H267.828C266.842 451.587 266.054 451.315 265.465 450.771C264.876 450.238 264.581 449.485 264.581 448.51C264.581 448.113 264.609 447.671 264.666 447.184C264.723 446.685 264.757 446.391 264.768 446.3C264.881 445.393 264.938 444.787 264.938 444.481C264.938 444.096 264.808 443.79 264.547 443.563C264.286 443.325 263.878 443.195 263.323 443.172V440.86ZM242.747 521.172C242.192 521.195 241.784 521.325 241.523 521.563C241.263 521.79 241.132 522.096 241.132 522.481C241.132 522.787 241.189 523.393 241.302 524.3C241.314 524.391 241.348 524.685 241.404 525.184C241.461 525.671 241.489 526.113 241.489 526.51C241.489 527.485 241.195 528.238 240.605 528.771C240.016 529.315 239.228 529.587 238.242 529.587H237.018V527.207H237.681C238.044 527.207 238.305 527.122 238.463 526.952C238.622 526.793 238.701 526.55 238.701 526.221C238.701 525.96 238.656 525.399 238.565 524.538C238.463 523.439 238.412 522.719 238.412 522.379C238.412 521.744 238.56 521.229 238.854 520.832C239.16 520.424 239.619 520.158 240.231 520.033V519.999C239.619 519.886 239.16 519.625 238.854 519.217C238.56 518.809 238.412 518.293 238.412 517.67C238.412 517.33 238.463 516.61 238.565 515.511C238.656 514.627 238.701 514.06 238.701 513.811C238.701 513.482 238.622 513.239 238.463 513.08C238.305 512.921 238.044 512.842 237.681 512.842H237.018V510.462H238.242C239.228 510.462 240.016 510.734 240.605 511.278C241.195 511.811 241.489 512.559 241.489 513.522C241.489 513.919 241.461 514.366 241.404 514.865C241.348 515.352 241.314 515.641 241.302 515.732C241.189 516.639 241.132 517.245 241.132 517.551C241.132 517.959 241.263 518.276 241.523 518.503C241.784 518.718 242.192 518.837 242.747 518.86V521.172ZM262.568 516.514L260.001 526H256.788L255.292 519.846L253.745 526H250.549L247.965 516.514H250.872L252.215 523.297L253.813 516.514H256.89L258.505 523.263L259.831 516.514H262.568ZM269.508 516.412C270.596 516.412 271.468 516.775 272.126 517.5C272.783 518.214 273.112 519.2 273.112 520.458V526H270.222V520.849C270.222 520.214 270.057 519.721 269.729 519.37C269.4 519.019 268.958 518.843 268.403 518.843C267.847 518.843 267.405 519.019 267.077 519.37C266.748 519.721 266.584 520.214 266.584 520.849V526H263.677V513.42H266.584V517.789C266.878 517.37 267.281 517.035 267.791 516.786C268.301 516.537 268.873 516.412 269.508 516.412ZM276.594 515.528C276.084 515.528 275.665 515.381 275.336 515.086C275.019 514.78 274.86 514.406 274.86 513.964C274.86 513.511 275.019 513.137 275.336 512.842C275.665 512.536 276.084 512.383 276.594 512.383C277.093 512.383 277.501 512.536 277.818 512.842C278.147 513.137 278.311 513.511 278.311 513.964C278.311 514.406 278.147 514.78 277.818 515.086C277.501 515.381 277.093 515.528 276.594 515.528ZM278.039 516.514V526H275.132V516.514H278.039ZM283.053 513.42V526H280.146V513.42H283.053ZM294.101 521.104C294.101 521.376 294.084 521.659 294.05 521.954H287.471C287.517 522.543 287.704 522.997 288.032 523.314C288.372 523.62 288.786 523.773 289.273 523.773C289.999 523.773 290.503 523.467 290.786 522.855H293.88C293.722 523.478 293.433 524.039 293.013 524.538C292.605 525.037 292.09 525.428 291.466 525.711C290.843 525.994 290.146 526.136 289.375 526.136C288.446 526.136 287.619 525.938 286.893 525.541C286.168 525.144 285.601 524.578 285.193 523.841C284.785 523.104 284.581 522.243 284.581 521.257C284.581 520.271 284.78 519.41 285.176 518.673C285.584 517.936 286.151 517.37 286.876 516.973C287.602 516.576 288.435 516.378 289.375 516.378C290.293 516.378 291.109 516.571 291.823 516.956C292.537 517.341 293.093 517.891 293.489 518.605C293.897 519.319 294.101 520.152 294.101 521.104ZM291.126 520.339C291.126 519.84 290.956 519.444 290.616 519.149C290.276 518.854 289.851 518.707 289.341 518.707C288.854 518.707 288.44 518.849 288.1 519.132C287.772 519.415 287.568 519.818 287.488 520.339H291.126ZM299.545 529.553C298.445 528.499 297.59 527.139 296.978 525.473C296.366 523.807 296.06 522.011 296.06 520.084C296.06 518.135 296.377 516.316 297.012 514.627C297.646 512.927 298.547 511.544 299.715 510.479H302.571V510.751C301.381 511.93 300.463 513.346 299.817 515.001C299.171 516.644 298.848 518.339 298.848 520.084C298.848 521.818 299.159 523.49 299.783 525.099C300.406 526.708 301.284 528.102 302.418 529.281V529.553H299.545ZM303.158 521.257C303.158 520.271 303.357 519.41 303.753 518.673C304.161 517.936 304.722 517.37 305.436 516.973C306.162 516.576 306.989 516.378 307.918 516.378C309.108 516.378 310.1 516.69 310.893 517.313C311.698 517.936 312.225 518.815 312.474 519.948H309.38C309.12 519.223 308.615 518.86 307.867 518.86C307.335 518.86 306.91 519.07 306.592 519.489C306.275 519.897 306.116 520.486 306.116 521.257C306.116 522.028 306.275 522.623 306.592 523.042C306.91 523.45 307.335 523.654 307.867 523.654C308.615 523.654 309.12 523.291 309.38 522.566H312.474C312.225 523.677 311.698 524.549 310.893 525.184C310.089 525.819 309.097 526.136 307.918 526.136C306.989 526.136 306.162 525.938 305.436 525.541C304.722 525.144 304.161 524.578 303.753 523.841C303.357 523.104 303.158 522.243 303.158 521.257ZM318.347 526.136C317.418 526.136 316.579 525.938 315.831 525.541C315.095 525.144 314.511 524.578 314.08 523.841C313.661 523.104 313.451 522.243 313.451 521.257C313.451 520.282 313.667 519.427 314.097 518.69C314.528 517.942 315.117 517.37 315.865 516.973C316.613 516.576 317.452 516.378 318.381 516.378C319.311 516.378 320.149 516.576 320.897 516.973C321.645 517.37 322.235 517.942 322.665 518.69C323.096 519.427 323.311 520.282 323.311 521.257C323.311 522.232 323.09 523.093 322.648 523.841C322.218 524.578 321.623 525.144 320.863 525.541C320.115 525.938 319.277 526.136 318.347 526.136ZM318.347 523.62C318.903 523.62 319.373 523.416 319.758 523.008C320.155 522.6 320.353 522.016 320.353 521.257C320.353 520.498 320.161 519.914 319.775 519.506C319.401 519.098 318.937 518.894 318.381 518.894C317.815 518.894 317.344 519.098 316.97 519.506C316.596 519.903 316.409 520.486 316.409 521.257C316.409 522.016 316.591 522.6 316.953 523.008C317.327 523.416 317.792 523.62 318.347 523.62ZM330.634 516.412C331.744 516.412 332.628 516.775 333.286 517.5C333.954 518.214 334.289 519.2 334.289 520.458V526H331.399V520.849C331.399 520.214 331.234 519.721 330.906 519.37C330.577 519.019 330.135 518.843 329.58 518.843C329.024 518.843 328.582 519.019 328.254 519.37C327.925 519.721 327.761 520.214 327.761 520.849V526H324.854V516.514H327.761V517.772C328.055 517.353 328.452 517.024 328.951 516.786C329.449 516.537 330.01 516.412 330.634 516.412ZM335.731 521.24C335.731 520.265 335.912 519.41 336.275 518.673C336.649 517.936 337.153 517.37 337.788 516.973C338.422 516.576 339.131 516.378 339.913 516.378C340.536 516.378 341.103 516.508 341.613 516.769C342.134 517.03 342.542 517.381 342.837 517.823V513.42H345.744V526H342.837V524.64C342.565 525.093 342.174 525.456 341.664 525.728C341.165 526 340.581 526.136 339.913 526.136C339.131 526.136 338.422 525.938 337.788 525.541C337.153 525.133 336.649 524.561 336.275 523.824C335.912 523.076 335.731 522.215 335.731 521.24ZM342.837 521.257C342.837 520.532 342.633 519.959 342.225 519.54C341.828 519.121 341.341 518.911 340.763 518.911C340.185 518.911 339.692 519.121 339.284 519.54C338.887 519.948 338.689 520.515 338.689 521.24C338.689 521.965 338.887 522.543 339.284 522.974C339.692 523.393 340.185 523.603 340.763 523.603C341.341 523.603 341.828 523.393 342.225 522.974C342.633 522.555 342.837 521.982 342.837 521.257ZM349.309 515.528C348.799 515.528 348.379 515.381 348.051 515.086C347.733 514.78 347.575 514.406 347.575 513.964C347.575 513.511 347.733 513.137 348.051 512.842C348.379 512.536 348.799 512.383 349.309 512.383C349.807 512.383 350.215 512.536 350.533 512.842C350.861 513.137 351.026 513.511 351.026 513.964C351.026 514.406 350.861 514.78 350.533 515.086C350.215 515.381 349.807 515.528 349.309 515.528ZM350.754 516.514V526H347.847V516.514H350.754ZM356.991 523.654C357.739 523.654 358.244 523.291 358.504 522.566H361.598C361.383 523.529 360.952 524.317 360.306 524.929C359.66 525.541 358.856 525.921 357.892 526.068V526.697C358.482 526.697 358.997 526.856 359.439 527.173C359.881 527.502 360.102 527.989 360.102 528.635C360.102 529.281 359.87 529.768 359.405 530.097C358.941 530.437 358.385 530.607 357.739 530.607H355.121V529.009H357.348C357.575 529.009 357.745 528.975 357.858 528.907C357.972 528.839 358.028 528.726 358.028 528.567C358.028 528.408 357.972 528.295 357.858 528.227C357.745 528.17 357.575 528.142 357.348 528.142H356.141V526.068C354.974 525.887 354.039 525.371 353.336 524.521C352.634 523.66 352.282 522.572 352.282 521.257C352.282 520.271 352.481 519.41 352.877 518.673C353.285 517.936 353.846 517.37 354.56 516.973C355.286 516.576 356.113 516.378 357.042 516.378C358.232 516.378 359.224 516.69 360.017 517.313C360.822 517.936 361.349 518.815 361.598 519.948H358.504C358.244 519.223 357.739 518.86 356.991 518.86C356.459 518.86 356.034 519.07 355.716 519.489C355.399 519.897 355.24 520.486 355.24 521.257C355.24 522.028 355.399 522.623 355.716 523.042C356.034 523.45 356.459 523.654 356.991 523.654ZM362.575 521.24C362.575 520.265 362.757 519.41 363.119 518.673C363.493 517.936 363.998 517.37 364.632 516.973C365.267 516.576 365.975 516.378 366.757 516.378C367.426 516.378 368.01 516.514 368.508 516.786C369.018 517.058 369.409 517.415 369.681 517.857V516.514H372.588V526H369.681V524.657C369.398 525.099 369.001 525.456 368.491 525.728C367.993 526 367.409 526.136 366.74 526.136C365.97 526.136 365.267 525.938 364.632 525.541C363.998 525.133 363.493 524.561 363.119 523.824C362.757 523.076 362.575 522.215 362.575 521.24ZM369.681 521.257C369.681 520.532 369.477 519.959 369.069 519.54C368.673 519.121 368.185 518.911 367.607 518.911C367.029 518.911 366.536 519.121 366.128 519.54C365.732 519.948 365.533 520.515 365.533 521.24C365.533 521.965 365.732 522.543 366.128 522.974C366.536 523.393 367.029 523.603 367.607 523.603C368.185 523.603 368.673 523.393 369.069 522.974C369.477 522.555 369.681 521.982 369.681 521.257ZM364.53 515.715C364.802 514.038 365.584 513.199 366.876 513.199C367.126 513.199 367.341 513.239 367.522 513.318C367.715 513.386 367.947 513.494 368.219 513.641C368.423 513.754 368.588 513.839 368.712 513.896C368.837 513.941 368.967 513.964 369.103 513.964C369.523 513.964 369.766 513.709 369.834 513.199H371.33C371.058 514.876 370.276 515.715 368.984 515.715C368.735 515.715 368.514 515.681 368.321 515.613C368.14 515.534 367.913 515.42 367.641 515.273C367.437 515.16 367.273 515.08 367.148 515.035C367.024 514.978 366.893 514.95 366.757 514.95C366.338 514.95 366.089 515.205 366.009 515.715H364.53ZM379.009 526.136C378.08 526.136 377.241 525.938 376.493 525.541C375.757 525.144 375.173 524.578 374.742 523.841C374.323 523.104 374.113 522.243 374.113 521.257C374.113 520.282 374.329 519.427 374.759 518.69C375.19 517.942 375.779 517.37 376.527 516.973C377.275 516.576 378.114 516.378 379.043 516.378C379.973 516.378 380.811 516.576 381.559 516.973C382.307 517.37 382.897 517.942 383.327 518.69C383.758 519.427 383.973 520.282 383.973 521.257C383.973 522.232 383.752 523.093 383.31 523.841C382.88 524.578 382.285 525.144 381.525 525.541C380.777 525.938 379.939 526.136 379.009 526.136ZM379.009 523.62C379.565 523.62 380.035 523.416 380.42 523.008C380.817 522.6 381.015 522.016 381.015 521.257C381.015 520.498 380.823 519.914 380.437 519.506C380.063 519.098 379.599 518.894 379.043 518.894C378.477 518.894 378.006 519.098 377.632 519.506C377.258 519.903 377.071 520.486 377.071 521.257C377.071 522.016 377.253 522.6 377.615 523.008C377.989 523.416 378.454 523.62 379.009 523.62ZM384.734 529.553V529.281C385.867 528.102 386.745 526.708 387.369 525.099C387.992 523.49 388.304 521.818 388.304 520.084C388.304 518.339 387.981 516.644 387.335 515.001C386.689 513.346 385.771 511.93 384.581 510.751V510.479H387.437C388.604 511.544 389.505 512.927 390.14 514.627C390.774 516.316 391.092 518.135 391.092 520.084C391.092 522.011 390.786 523.807 390.174 525.473C389.562 527.139 388.706 528.499 387.607 529.553H384.734Z" fill="white"/>
<rect x="269" y="468" width="89" height="24" fill="#BDBDBD"/>
<path d="M220.716 493.626L220.891 492.641L220.716 493.626ZM223.841 493.164L223.103 493.033L222.754 495.003L223.492 495.133L223.841 493.164ZM221.628 492.772L220.891 492.641L220.542 494.611L221.279 494.741L221.628 492.772ZM220.891 492.641C220.4 492.554 219.919 492.456 219.447 492.346L218.994 494.294C219.501 494.412 220.017 494.517 220.542 494.611L220.891 492.641ZM216.655 491.53C215.719 491.197 214.825 490.817 213.974 490.393L213.083 492.184C214.007 492.644 214.975 493.055 215.986 493.414L216.655 491.53ZM211.461 488.94C210.645 488.397 209.877 487.81 209.156 487.183L207.844 488.692C208.628 489.374 209.465 490.014 210.352 490.605L211.461 488.94ZM207.094 485.142C206.448 484.414 205.852 483.65 205.309 482.855L203.658 483.984C204.248 484.848 204.895 485.679 205.599 486.47L207.094 485.142ZM203.82 480.359C203.375 479.496 202.983 478.607 202.646 477.698L200.771 478.395C201.136 479.378 201.56 480.34 202.043 481.276L203.82 480.359ZM201.793 474.913C201.563 473.969 201.388 473.011 201.268 472.047L199.283 472.293C199.412 473.333 199.601 474.367 199.849 475.386L201.793 474.913ZM201.075 469.138C201.067 468.166 201.114 467.194 201.217 466.227L199.228 466.015C199.117 467.058 199.066 468.107 199.075 469.156L201.075 469.138ZM201.695 463.354C201.91 462.409 202.181 461.476 202.508 460.562L200.625 459.887C200.271 460.878 199.977 461.889 199.745 462.911L201.695 463.354ZM203.654 457.891C204.088 457.031 204.577 456.195 205.122 455.388L203.465 454.269C202.872 455.147 202.34 456.056 201.869 456.99L203.654 457.891ZM206.897 453.093C207.528 452.377 208.212 451.693 208.949 451.047L207.631 449.543C206.829 450.246 206.085 450.99 205.397 451.771L206.897 453.093ZM211.248 449.275C212.037 448.743 212.873 448.248 213.757 447.795L212.844 446.015C211.889 446.504 210.984 447.04 210.129 447.618L211.248 449.275ZM216.417 446.617C216.87 446.446 217.334 446.285 217.808 446.134L217.202 444.228C216.694 444.389 216.197 444.562 215.71 444.746L216.417 446.617ZM220.716 493.626L221.065 491.657L220.716 493.626ZM224.015 492.179L223.278 492.049L222.58 495.987L223.317 496.118L224.015 492.179ZM221.803 491.787L221.065 491.657L220.367 495.595L221.105 495.726L221.803 491.787ZM221.065 491.657C220.592 491.573 220.129 491.478 219.674 491.372L218.767 495.268C219.291 495.39 219.825 495.499 220.367 495.595L221.065 491.657ZM216.99 490.587C216.091 490.268 215.235 489.904 214.419 489.498L212.637 493.079C213.598 493.557 214.602 493.984 215.651 494.357L216.99 490.587ZM212.015 488.108C211.235 487.589 210.501 487.027 209.812 486.428L207.187 489.446C208.004 490.157 208.875 490.823 209.798 491.437L212.015 488.108ZM207.842 484.478C207.224 483.782 206.654 483.051 206.134 482.291L202.832 484.548C203.446 485.446 204.119 486.311 204.851 487.134L207.842 484.478ZM204.709 479.901C204.283 479.073 203.907 478.221 203.583 477.349L199.834 478.744C200.213 479.763 200.653 480.762 201.154 481.734L204.709 479.901ZM202.764 474.677C202.544 473.77 202.375 472.85 202.26 471.923L198.291 472.416C198.425 473.495 198.621 474.566 198.878 475.623L202.764 474.677ZM202.075 469.129C202.067 468.195 202.112 467.261 202.211 466.333L198.234 465.909C198.118 466.99 198.066 468.078 198.075 469.165L202.075 469.129ZM202.67 463.576C202.876 462.669 203.136 461.775 203.45 460.899L199.684 459.55C199.315 460.58 199.011 461.628 198.77 462.689L202.67 463.576ZM204.547 458.342C204.962 457.519 205.43 456.719 205.951 455.948L202.636 453.709C202.019 454.623 201.466 455.568 200.976 456.539L204.547 458.342ZM207.647 453.755C208.25 453.07 208.904 452.416 209.609 451.799L206.972 448.791C206.137 449.522 205.363 450.297 204.647 451.109L207.647 453.755ZM211.808 450.104C212.563 449.594 213.364 449.119 214.213 448.684L212.388 445.125C211.398 445.632 210.458 446.189 209.569 446.789L211.808 450.104ZM216.77 447.553C217.207 447.388 217.654 447.232 218.111 447.087L216.9 443.275C216.375 443.442 215.86 443.62 215.357 443.811L216.77 447.553Z" fill="#FEE50A"/>
<path d="M228.53 441.734L217.26 439.221L220.719 450.237L228.53 441.734ZM214.392 447.22L215.595 446.843L214.996 444.935L213.793 445.312L214.392 447.22ZM218.001 446.087L220.408 445.332L219.809 443.424L217.402 444.179L218.001 446.087ZM222.814 444.576L225.22 443.821L224.621 441.913L222.215 442.668L222.814 444.576ZM228.53 441.734L205.99 436.707L212.907 458.741L228.53 441.734ZM214.691 448.175L215.894 447.797L214.696 443.98L213.493 444.358L214.691 448.175ZM218.301 447.041L220.707 446.286L219.509 442.47L217.103 443.225L218.301 447.041ZM223.113 445.53L225.52 444.775L224.322 440.959L221.915 441.714L223.113 445.53Z" fill="#FEE50A"/>
<circle cx="7.5" cy="7.5" r="7.5" transform="matrix(-1 0 0 1 309 58)" fill="#D9D9D9"/>
<circle cx="14.5" cy="14.5" r="14.5" transform="matrix(-1 0 0 1 315 123)" fill="#D9D9D9"/>
<path d="M177 295H281" stroke="white" stroke-width="3"/>
<path d="M300 268L308.66 253L291.34 253L300 268ZM298.5 235L298.5 254.5L301.5 254.5L301.5 235L298.5 235Z" fill="white"/>
<path d="M281 139L266 130.34V147.66L281 139ZM177 140.5H267.5V137.5H177V140.5Z" fill="white"/>
</svg>
