<svg width="600" height="570" viewBox="0 0 600 570" fill="none" xmlns="http://www.w3.org/2000/svg">
<g clip-path="url(#clip0_1_38)">
<rect width="600" height="570" fill="#515050"/>
<rect x="301.213" y="123" width="30" height="30" transform="rotate(45 301.213 123)" fill="#CF6262"/>
<path d="M299.939 116.061C300.525 116.646 301.475 116.646 302.061 116.061L311.607 106.515C312.192 105.929 312.192 104.979 311.607 104.393C311.021 103.808 310.071 103.808 309.485 104.393L301 112.879L292.515 104.393C291.929 103.808 290.979 103.808 290.393 104.393C289.808 104.979 289.808 105.929 290.393 106.515L299.939 116.061ZM299.5 65L299.5 115L302.5 115L302.5 65L299.5 65Z" fill="white"/>
<path d="M321 144H418V327H301" stroke="white" stroke-width="3"/>
<path d="M299.939 377.061C300.525 377.646 301.475 377.646 302.061 377.061L311.607 367.515C312.192 366.929 312.192 365.979 311.607 365.393C311.021 364.808 310.071 364.808 309.485 365.393L301 373.879L292.515 365.393C291.929 364.808 290.979 364.808 290.393 365.393C289.808 365.979 289.808 366.929 290.393 367.515L299.939 377.061ZM299.5 327L299.5 376L302.5 376L302.5 327L299.5 327Z" fill="white"/>
<rect x="257" y="218" width="88" height="35" fill="#BDBDBD"/>
<path d="M299.939 210.061C300.525 210.646 301.475 210.646 302.061 210.061L311.607 200.515C312.192 199.929 312.192 198.979 311.607 198.393C311.021 197.808 310.071 197.808 309.485 198.393L301 206.879L292.515 198.393C291.929 197.808 290.979 197.808 290.393 198.393C289.808 198.979 289.808 199.929 290.393 200.515L299.939 210.061ZM299.5 165V209H302.5V165H299.5Z" fill="white"/>
<path d="M301 253V298H175" stroke="white" stroke-width="3"/>
<path d="M176 295V143H281" stroke="white" stroke-width="3"/>
<circle cx="300.5" cy="0.5" r="0.5" fill="#D9D9D9"/>
<path d="M225.757 45.172H232.253V49H220.798V28.642H225.757V45.172ZM241.984 49.232C240.399 49.232 238.968 48.8937 237.692 48.217C236.436 47.5403 235.44 46.5737 234.705 45.317C233.99 44.0603 233.632 42.591 233.632 40.909C233.632 39.2463 234 37.7867 234.734 36.53C235.469 35.254 236.474 34.2777 237.75 33.601C239.026 32.9243 240.457 32.586 242.042 32.586C243.628 32.586 245.058 32.9243 246.334 33.601C247.61 34.2777 248.616 35.254 249.35 36.53C250.085 37.7867 250.452 39.2463 250.452 40.909C250.452 42.5717 250.075 44.041 249.321 45.317C248.587 46.5737 247.572 47.5403 246.276 48.217C245 48.8937 243.57 49.232 241.984 49.232ZM241.984 44.94C242.932 44.94 243.734 44.592 244.391 43.896C245.068 43.2 245.406 42.2043 245.406 40.909C245.406 39.6137 245.078 38.618 244.42 37.922C243.782 37.226 242.99 36.878 242.042 36.878C241.076 36.878 240.273 37.226 239.635 37.922C238.997 38.5987 238.678 39.5943 238.678 40.909C238.678 42.2043 238.988 43.2 239.606 43.896C240.244 44.592 241.037 44.94 241.984 44.94ZM260.449 49.232C258.864 49.232 257.433 48.8937 256.157 48.217C254.9 47.5403 253.905 46.5737 253.17 45.317C252.455 44.0603 252.097 42.591 252.097 40.909C252.097 39.2463 252.464 37.7867 253.199 36.53C253.934 35.254 254.939 34.2777 256.215 33.601C257.491 32.9243 258.922 32.586 260.507 32.586C262.092 32.586 263.523 32.9243 264.799 33.601C266.075 34.2777 267.08 35.254 267.815 36.53C268.55 37.7867 268.917 39.2463 268.917 40.909C268.917 42.5717 268.54 44.041 267.786 45.317C267.051 46.5737 266.036 47.5403 264.741 48.217C263.465 48.8937 262.034 49.232 260.449 49.232ZM260.449 44.94C261.396 44.94 262.199 44.592 262.856 43.896C263.533 43.2 263.871 42.2043 263.871 40.909C263.871 39.6137 263.542 38.618 262.885 37.922C262.247 37.226 261.454 36.878 260.507 36.878C259.54 36.878 258.738 37.226 258.1 37.922C257.462 38.5987 257.143 39.5943 257.143 40.909C257.143 42.2043 257.452 43.2 258.071 43.896C258.709 44.592 259.502 44.94 260.449 44.94ZM276.507 35.109C276.99 34.355 277.657 33.746 278.508 33.282C279.359 32.818 280.354 32.586 281.495 32.586C282.829 32.586 284.037 32.9243 285.12 33.601C286.203 34.2777 287.053 35.2443 287.672 36.501C288.31 37.7577 288.629 39.2173 288.629 40.88C288.629 42.5427 288.31 44.012 287.672 45.288C287.053 46.5447 286.203 47.521 285.12 48.217C284.037 48.8937 282.829 49.232 281.495 49.232C280.374 49.232 279.378 49 278.508 48.536C277.657 48.072 276.99 47.4727 276.507 46.738V56.714H271.548V32.818H276.507V35.109ZM283.583 40.88C283.583 39.6427 283.235 38.676 282.539 37.98C281.862 37.2647 281.021 36.907 280.016 36.907C279.03 36.907 278.189 37.2647 277.493 37.98C276.816 38.6953 276.478 39.6717 276.478 40.909C276.478 42.1463 276.816 43.1227 277.493 43.838C278.189 44.5533 279.03 44.911 280.016 44.911C281.002 44.911 281.843 44.5533 282.539 43.838C283.235 43.1033 283.583 42.1173 283.583 40.88ZM325.39 28.642L320.083 49H314.08L310.832 35.602L307.468 49H301.465L296.303 28.642H301.61L304.539 43.461L308.164 28.642H313.616L317.096 43.461L320.054 28.642H325.39ZM337.824 32.644C339.68 32.644 341.169 33.2627 342.29 34.5C343.411 35.718 343.972 37.4 343.972 39.546V49H339.042V40.213C339.042 39.1303 338.762 38.2893 338.201 37.69C337.64 37.0907 336.886 36.791 335.939 36.791C334.992 36.791 334.238 37.0907 333.677 37.69C333.116 38.2893 332.836 39.1303 332.836 40.213V49H327.877V27.54H332.836V34.993C333.339 34.2777 334.025 33.7073 334.895 33.282C335.765 32.8567 336.741 32.644 337.824 32.644ZM349.912 31.136C349.042 31.136 348.327 30.8847 347.766 30.382C347.225 29.86 346.954 29.222 346.954 28.468C346.954 27.6947 347.225 27.0567 347.766 26.554C348.327 26.032 349.042 25.771 349.912 25.771C350.763 25.771 351.459 26.032 352 26.554C352.561 27.0567 352.841 27.6947 352.841 28.468C352.841 29.222 352.561 29.86 352 30.382C351.459 30.8847 350.763 31.136 349.912 31.136ZM352.377 32.818V49H347.418V32.818H352.377ZM360.93 27.54V49H355.971V27.54H360.93ZM379.778 40.648C379.778 41.112 379.749 41.5953 379.691 42.098H368.468C368.545 43.1033 368.864 43.8767 369.425 44.418C370.005 44.94 370.71 45.201 371.542 45.201C372.779 45.201 373.639 44.679 374.123 43.635H379.401C379.13 44.6983 378.637 45.6553 377.922 46.506C377.226 47.3567 376.346 48.0237 375.283 48.507C374.219 48.9903 373.03 49.232 371.716 49.232C370.13 49.232 368.719 48.8937 367.482 48.217C366.244 47.5403 365.278 46.5737 364.582 45.317C363.886 44.0603 363.538 42.591 363.538 40.909C363.538 39.227 363.876 37.7577 364.553 36.501C365.249 35.2443 366.215 34.2777 367.453 33.601C368.69 32.9243 370.111 32.586 371.716 32.586C373.282 32.586 374.674 32.9147 375.892 33.572C377.11 34.2293 378.057 35.167 378.734 36.385C379.43 37.603 379.778 39.024 379.778 40.648ZM374.703 39.343C374.703 38.4923 374.413 37.8157 373.833 37.313C373.253 36.8103 372.528 36.559 371.658 36.559C370.826 36.559 370.121 36.8007 369.541 37.284C368.98 37.7673 368.632 38.4537 368.497 39.343H374.703Z" fill="white"/>
<path d="M154.223 95.8674L153.946 94.9064L154.223 95.8674ZM227.065 102.766L226.613 103.658L226.613 103.658L227.065 102.766ZM267 123L260.689 113.33L255.47 123.631L267 123ZM119.276 106.961L120.744 106.539L120.191 104.617L118.724 105.039L119.276 106.961ZM123.679 105.694L126.615 104.85L126.062 102.928L123.126 103.772L123.679 105.694ZM129.55 104.006L132.485 103.161L131.932 101.239L128.997 102.084L129.55 104.006ZM135.42 102.317L138.355 101.473L137.803 99.5505L134.867 100.395L135.42 102.317ZM141.291 100.628L144.226 99.7838L143.673 97.8617L140.738 98.7061L141.291 100.628ZM147.161 98.9394L150.096 98.095L149.544 96.173L146.608 97.0174L147.161 98.9394ZM153.032 97.2506L154.499 96.8285L153.946 94.9064L152.479 95.3286L153.032 97.2506ZM154.499 96.8285C154.995 96.6859 155.491 96.5474 155.988 96.4128L155.465 94.4823C154.958 94.6196 154.452 94.761 153.946 94.9064L154.499 96.8285ZM158.982 95.6517C159.985 95.4132 160.991 95.1907 161.999 94.9842L161.598 93.0249C160.569 93.2356 159.543 93.4626 158.52 93.7059L158.982 95.6517ZM165.035 94.4113C166.051 94.236 167.069 94.0768 168.088 93.9335L167.809 91.953C166.77 92.0991 165.732 92.2616 164.695 92.4405L165.035 94.4113ZM171.154 93.5512C172.179 93.4397 173.204 93.3442 174.23 93.2648L174.076 91.2708C173.029 91.3518 171.983 91.4491 170.938 91.563L171.154 93.5512ZM177.314 93.0746C178.344 93.0272 179.373 92.9959 180.403 92.9807L180.373 90.9809C179.323 90.9964 178.272 91.0284 177.222 91.0767L177.314 93.0746ZM183.492 92.9832C184.523 93.0001 185.552 93.0331 186.581 93.0821L186.676 91.0844C185.626 91.0344 184.576 91.0007 183.525 90.9835L183.492 92.9832ZM189.664 93.2774C190.691 93.3585 191.716 93.4556 192.74 93.5687L192.96 91.5808C191.915 91.4654 190.869 91.3663 189.822 91.2836L189.664 93.2774ZM195.806 93.9559C196.825 94.1008 197.843 94.2617 198.858 94.4385L199.201 92.4681C198.165 92.2878 197.127 92.1237 196.087 91.9758L195.806 93.9559ZM201.893 95.016C202.901 95.2243 203.907 95.4483 204.909 95.6881L205.374 93.743C204.352 93.4983 203.326 93.2698 202.297 93.0574L201.893 95.016ZM207.902 96.4539C208.895 96.7245 209.884 97.0108 210.87 97.3127L211.456 95.4005C210.45 95.0924 209.441 94.8004 208.428 94.5242L207.902 96.4539ZM213.81 98.2639C214.784 98.5959 215.753 98.9434 216.718 99.3063L217.422 97.4343C216.438 97.064 215.449 96.7096 214.455 96.3709L213.81 98.2639ZM219.593 100.439C220.544 100.831 221.49 101.238 222.431 101.661L223.251 99.8366C222.291 99.4055 221.326 98.9899 220.355 98.5899L219.593 100.439ZM225.229 102.971C225.692 103.196 226.153 103.425 226.613 103.658L227.517 101.874C227.048 101.637 226.577 101.403 226.105 101.173L225.229 102.971ZM226.613 103.658L228.04 104.381L228.943 102.597L227.517 101.874L226.613 103.658ZM230.892 105.826L233.745 107.272L234.648 105.488L231.796 104.042L230.892 105.826ZM236.597 108.717L239.449 110.162L240.353 108.378L237.501 106.933L236.597 108.717ZM242.302 111.607L245.154 113.053L246.058 111.269L243.206 109.823L242.302 111.607ZM248.007 114.498L250.859 115.943L251.763 114.159L248.911 112.714L248.007 114.498ZM253.712 117.388L256.564 118.834L257.468 117.05L254.616 115.604L253.712 117.388ZM259.417 120.279L262.269 121.724L263.173 119.94L260.321 118.495L259.417 120.279ZM154.223 95.8674L153.67 93.9454L154.223 95.8674ZM227.065 102.766L226.161 104.55L226.161 104.55L227.065 102.766ZM267 123L254.378 103.66L243.94 124.261L267 123ZM119.553 107.922L121.021 107.5L119.915 103.656L118.447 104.078L119.553 107.922ZM123.956 106.656L126.891 105.811L125.785 101.967L122.85 102.811L123.956 106.656ZM129.826 104.967L132.761 104.122L131.656 100.278L128.72 101.123L129.826 104.967ZM135.697 103.278L138.632 102.434L137.526 98.5895L134.591 99.4339L135.697 103.278ZM141.567 101.589L144.502 100.745L143.397 96.9007L140.461 97.7451L141.567 101.589ZM147.438 99.9004L150.373 99.0561L149.267 95.212L146.332 96.0563L147.438 99.9004ZM153.308 98.2117L154.776 97.7895L153.67 93.9454L152.202 94.3676L153.308 98.2117ZM154.776 97.7895C155.266 97.6484 155.757 97.5112 156.249 97.378L155.204 93.5171C154.692 93.6558 154.18 93.7985 153.67 93.9454L154.776 97.7895ZM159.213 96.6246C160.206 96.3885 161.202 96.1683 162.2 95.9639L161.397 92.0453C160.359 92.2581 159.322 92.4873 158.288 92.733L159.213 96.6246ZM165.205 95.3968C166.211 95.2232 167.218 95.0656 168.227 94.9238L167.67 90.9628C166.62 91.1103 165.572 91.2744 164.525 91.455L165.205 95.3968ZM171.262 94.5453C172.277 94.4349 173.292 94.3404 174.308 94.2618L173.999 90.2737C172.942 90.3555 171.885 90.4539 170.829 90.5688L171.262 94.5453ZM177.36 94.0735C178.379 94.0266 179.398 93.9956 180.417 93.9806L180.358 89.981C179.298 89.9967 178.237 90.0289 177.176 90.0778L177.36 94.0735ZM183.476 93.9831C184.496 93.9998 185.515 94.0325 186.533 94.081L186.723 90.0855C185.664 90.035 184.603 90.001 183.542 89.9836L183.476 93.9831ZM189.585 94.2743C190.602 94.3546 191.617 94.4507 192.63 94.5627L193.07 90.5868C192.015 90.4703 190.958 90.3703 189.9 90.2867L189.585 94.2743ZM195.665 94.9459C196.674 95.0894 197.681 95.2486 198.686 95.4236L199.372 91.4829C198.327 91.3008 197.278 91.1351 196.228 90.9857L195.665 94.9459ZM201.691 95.9954C202.689 96.2015 203.684 96.4233 204.676 96.6606L205.607 92.7705C204.574 92.5234 203.538 92.2926 202.5 92.078L201.691 95.9954ZM207.639 97.4187C208.622 97.6866 209.601 97.97 210.577 98.2689L211.749 94.4444C210.733 94.1333 209.714 93.8383 208.691 93.5594L207.639 97.4187ZM213.487 99.2105C214.451 99.5391 215.411 99.883 216.366 100.242L217.774 96.4983C216.78 96.1244 215.781 95.7664 214.778 95.4244L213.487 99.2105ZM219.212 101.364C220.153 101.752 221.09 102.155 222.021 102.573L223.66 98.9244C222.691 98.489 221.716 98.0693 220.736 97.6654L219.212 101.364ZM224.791 103.87C225.249 104.093 225.706 104.32 226.161 104.55L227.969 100.982C227.495 100.742 227.02 100.506 226.543 100.274L224.791 103.87ZM226.161 104.55L227.588 105.273L229.395 101.705L227.969 100.982L226.161 104.55ZM230.44 106.718L233.293 108.164L235.1 104.595L232.248 103.15L230.44 106.718ZM236.145 109.609L238.997 111.054L240.805 107.486L237.953 106.041L236.145 109.609ZM241.85 112.499L244.702 113.945L246.51 110.377L243.658 108.931L241.85 112.499ZM247.555 115.39L250.407 116.835L252.215 113.267L249.363 111.822L247.555 115.39ZM253.26 118.28L256.112 119.726L257.92 116.158L255.068 114.712L253.26 118.28ZM258.965 121.171L261.817 122.616L263.625 119.048L260.773 117.603L258.965 121.171Z" fill="#FEE50A"/>
<path d="M69.262 110.64V121H66.868V110.64H69.262ZM74.5529 121.112C73.7876 121.112 73.0969 120.949 72.4809 120.622C71.8742 120.295 71.3936 119.829 71.0389 119.222C70.6936 118.615 70.5209 117.906 70.5209 117.094C70.5209 116.291 70.6982 115.587 71.0529 114.98C71.4076 114.364 71.8929 113.893 72.5089 113.566C73.1249 113.239 73.8156 113.076 74.5809 113.076C75.3462 113.076 76.0369 113.239 76.6529 113.566C77.2689 113.893 77.7542 114.364 78.1089 114.98C78.4636 115.587 78.6409 116.291 78.6409 117.094C78.6409 117.897 78.4589 118.606 78.0949 119.222C77.7402 119.829 77.2502 120.295 76.6249 120.622C76.0089 120.949 75.3182 121.112 74.5529 121.112ZM74.5529 119.04C75.0102 119.04 75.3976 118.872 75.7149 118.536C76.0416 118.2 76.2049 117.719 76.2049 117.094C76.2049 116.469 76.0462 115.988 75.7289 115.652C75.4209 115.316 75.0382 115.148 74.5809 115.148C74.1142 115.148 73.7269 115.316 73.4189 115.652C73.1109 115.979 72.9569 116.459 72.9569 117.094C72.9569 117.719 73.1062 118.2 73.4049 118.536C73.7129 118.872 74.0956 119.04 74.5529 119.04ZM83.467 121.112C82.7016 121.112 82.011 120.949 81.395 120.622C80.7883 120.295 80.3076 119.829 79.953 119.222C79.6076 118.615 79.435 117.906 79.435 117.094C79.435 116.291 79.6123 115.587 79.967 114.98C80.3216 114.364 80.807 113.893 81.423 113.566C82.039 113.239 82.7296 113.076 83.495 113.076C84.2603 113.076 84.951 113.239 85.567 113.566C86.183 113.893 86.6683 114.364 87.023 114.98C87.3776 115.587 87.555 116.291 87.555 117.094C87.555 117.897 87.373 118.606 87.009 119.222C86.6543 119.829 86.1643 120.295 85.539 120.622C84.923 120.949 84.2323 121.112 83.467 121.112ZM83.467 119.04C83.9243 119.04 84.3116 118.872 84.629 118.536C84.9556 118.2 85.119 117.719 85.119 117.094C85.119 116.469 84.9603 115.988 84.643 115.652C84.335 115.316 83.9523 115.148 83.495 115.148C83.0283 115.148 82.641 115.316 82.333 115.652C82.025 115.979 81.871 116.459 81.871 117.094C81.871 117.719 82.0203 118.2 82.319 118.536C82.627 118.872 83.0096 119.04 83.467 119.04ZM91.219 114.294C91.4524 113.93 91.7744 113.636 92.185 113.412C92.5957 113.188 93.0764 113.076 93.627 113.076C94.271 113.076 94.8544 113.239 95.377 113.566C95.8997 113.893 96.3104 114.359 96.609 114.966C96.917 115.573 97.071 116.277 97.071 117.08C97.071 117.883 96.917 118.592 96.609 119.208C96.3104 119.815 95.8997 120.286 95.377 120.622C94.8544 120.949 94.271 121.112 93.627 121.112C93.0857 121.112 92.605 121 92.185 120.776C91.7744 120.552 91.4524 120.263 91.219 119.908V124.724H88.825V113.188H91.219V114.294ZM94.635 117.08C94.635 116.483 94.467 116.016 94.131 115.68C93.8044 115.335 93.3984 115.162 92.913 115.162C92.437 115.162 92.031 115.335 91.695 115.68C91.3684 116.025 91.205 116.497 91.205 117.094C91.205 117.691 91.3684 118.163 91.695 118.508C92.031 118.853 92.437 119.026 92.913 119.026C93.389 119.026 93.795 118.853 94.131 118.508C94.467 118.153 94.635 117.677 94.635 117.08ZM71.628 134.104C72.5427 134.104 73.2707 134.403 73.812 135C74.3627 135.588 74.638 136.4 74.638 137.436V142H72.258V137.758C72.258 137.235 72.1227 136.829 71.852 136.54C71.5813 136.251 71.2173 136.106 70.76 136.106C70.3027 136.106 69.9387 136.251 69.668 136.54C69.3973 136.829 69.262 137.235 69.262 137.758V142H66.868V134.188H69.262V135.224C69.5047 134.879 69.8313 134.608 70.242 134.412C70.6527 134.207 71.1147 134.104 71.628 134.104ZM79.8576 142.112C79.0923 142.112 78.4016 141.949 77.7856 141.622C77.1789 141.295 76.6983 140.829 76.3436 140.222C75.9983 139.615 75.8256 138.906 75.8256 138.094C75.8256 137.291 76.0029 136.587 76.3576 135.98C76.7123 135.364 77.1976 134.893 77.8136 134.566C78.4296 134.239 79.1203 134.076 79.8856 134.076C80.6509 134.076 81.3416 134.239 81.9576 134.566C82.5736 134.893 83.0589 135.364 83.4136 135.98C83.7683 136.587 83.9456 137.291 83.9456 138.094C83.9456 138.897 83.7636 139.606 83.3996 140.222C83.0449 140.829 82.5549 141.295 81.9296 141.622C81.3136 141.949 80.6229 142.112 79.8576 142.112ZM79.8576 140.04C80.3149 140.04 80.7023 139.872 81.0196 139.536C81.3463 139.2 81.5096 138.719 81.5096 138.094C81.5096 137.469 81.3509 136.988 81.0336 136.652C80.7256 136.316 80.3429 136.148 79.8856 136.148C79.4189 136.148 79.0316 136.316 78.7236 136.652C78.4156 136.979 78.2616 137.459 78.2616 138.094C78.2616 138.719 78.4109 139.2 78.7096 139.536C79.0176 139.872 79.4003 140.04 79.8576 140.04ZM89.3865 133.376C88.9665 133.376 88.6211 133.255 88.3505 133.012C88.0891 132.76 87.9585 132.452 87.9585 132.088C87.9585 131.715 88.0891 131.407 88.3505 131.164C88.6211 130.912 88.9665 130.786 89.3865 130.786C89.7971 130.786 90.1331 130.912 90.3945 131.164C90.6651 131.407 90.8005 131.715 90.8005 132.088C90.8005 132.452 90.6651 132.76 90.3945 133.012C90.1331 133.255 89.7971 133.376 89.3865 133.376ZM90.5765 134.188V142H88.1825V134.188H90.5765ZM97.0714 134.104C97.986 134.104 98.714 134.403 99.2554 135C99.806 135.588 100.081 136.4 100.081 137.436V142H97.7014V137.758C97.7014 137.235 97.566 136.829 97.2954 136.54C97.0247 136.251 96.6607 136.106 96.2034 136.106C95.746 136.106 95.382 136.251 95.1114 136.54C94.8407 136.829 94.7054 137.235 94.7054 137.758V142H92.3114V134.188H94.7054V135.224C94.948 134.879 95.2747 134.608 95.6854 134.412C96.096 134.207 96.558 134.104 97.0714 134.104ZM104.321 134.188V142H101.927V134.188H104.321ZM104.755 132.242L101.381 133.656V132.004L104.755 130.38V132.242ZM105.767 138.094C105.767 137.282 105.93 136.573 106.257 135.966C106.593 135.359 107.055 134.893 107.643 134.566C108.24 134.239 108.922 134.076 109.687 134.076C110.667 134.076 111.484 134.333 112.137 134.846C112.8 135.359 113.234 136.083 113.439 137.016H110.891C110.676 136.419 110.261 136.12 109.645 136.12C109.206 136.12 108.856 136.293 108.595 136.638C108.334 136.974 108.203 137.459 108.203 138.094C108.203 138.729 108.334 139.219 108.595 139.564C108.856 139.9 109.206 140.068 109.645 140.068C110.261 140.068 110.676 139.769 110.891 139.172H113.439C113.234 140.087 112.8 140.805 112.137 141.328C111.474 141.851 110.658 142.112 109.687 142.112C108.922 142.112 108.24 141.949 107.643 141.622C107.055 141.295 106.593 140.829 106.257 140.222C105.93 139.615 105.767 138.906 105.767 138.094ZM115.924 133.376C115.504 133.376 115.158 133.255 114.888 133.012C114.626 132.76 114.496 132.452 114.496 132.088C114.496 131.715 114.626 131.407 114.888 131.164C115.158 130.912 115.504 130.786 115.924 130.786C116.334 130.786 116.67 130.912 116.932 131.164C117.202 131.407 117.338 131.715 117.338 132.088C117.338 132.452 117.202 132.76 116.932 133.012C116.67 133.255 116.334 133.376 115.924 133.376ZM117.114 134.188V142H114.72V134.188H117.114ZM122.404 142.112C121.639 142.112 120.948 141.949 120.332 141.622C119.726 141.295 119.245 140.829 118.89 140.222C118.545 139.615 118.372 138.906 118.372 138.094C118.372 137.291 118.55 136.587 118.904 135.98C119.259 135.364 119.744 134.893 120.36 134.566C120.976 134.239 121.667 134.076 122.432 134.076C123.198 134.076 123.888 134.239 124.504 134.566C125.12 134.893 125.606 135.364 125.96 135.98C126.315 136.587 126.492 137.291 126.492 138.094C126.492 138.897 126.31 139.606 125.946 140.222C125.592 140.829 125.102 141.295 124.476 141.622C123.86 141.949 123.17 142.112 122.404 142.112ZM122.404 140.04C122.862 140.04 123.249 139.872 123.566 139.536C123.893 139.2 124.056 138.719 124.056 138.094C124.056 137.469 123.898 136.988 123.58 136.652C123.272 136.316 122.89 136.148 122.432 136.148C121.966 136.148 121.578 136.316 121.27 136.652C120.962 136.979 120.808 137.459 120.808 138.094C120.808 138.719 120.958 139.2 121.256 139.536C121.564 139.872 121.947 140.04 122.404 140.04Z" fill="white"/>
<path d="M250.482 438.514L247.915 448H244.702L243.206 441.846L241.659 448H238.463L235.879 438.514H238.786L240.129 445.297L241.727 438.514H244.804L246.419 445.263L247.745 438.514H250.482ZM257.422 438.412C258.51 438.412 259.382 438.775 260.04 439.5C260.697 440.214 261.026 441.2 261.026 442.458V448H258.136V442.849C258.136 442.214 257.971 441.721 257.643 441.37C257.314 441.019 256.872 440.843 256.317 440.843C255.761 440.843 255.319 441.019 254.991 441.37C254.662 441.721 254.498 442.214 254.498 442.849V448H251.591V435.42H254.498V439.789C254.792 439.37 255.195 439.035 255.705 438.786C256.215 438.537 256.787 438.412 257.422 438.412ZM264.508 437.528C263.998 437.528 263.579 437.381 263.25 437.086C262.933 436.78 262.774 436.406 262.774 435.964C262.774 435.511 262.933 435.137 263.25 434.842C263.579 434.536 263.998 434.383 264.508 434.383C265.007 434.383 265.415 434.536 265.732 434.842C266.061 435.137 266.225 435.511 266.225 435.964C266.225 436.406 266.061 436.78 265.732 437.086C265.415 437.381 265.007 437.528 264.508 437.528ZM265.953 438.514V448H263.046V438.514H265.953ZM270.967 435.42V448H268.06V435.42H270.967ZM282.015 443.104C282.015 443.376 281.998 443.659 281.964 443.954H275.385C275.431 444.543 275.618 444.997 275.946 445.314C276.286 445.62 276.7 445.773 277.187 445.773C277.913 445.773 278.417 445.467 278.7 444.855H281.794C281.636 445.478 281.347 446.039 280.927 446.538C280.519 447.037 280.004 447.428 279.38 447.711C278.757 447.994 278.06 448.136 277.289 448.136C276.36 448.136 275.533 447.938 274.807 447.541C274.082 447.144 273.515 446.578 273.107 445.841C272.699 445.104 272.495 444.243 272.495 443.257C272.495 442.271 272.694 441.41 273.09 440.673C273.498 439.936 274.065 439.37 274.79 438.973C275.516 438.576 276.349 438.378 277.289 438.378C278.207 438.378 279.023 438.571 279.737 438.956C280.451 439.341 281.007 439.891 281.403 440.605C281.811 441.319 282.015 442.152 282.015 443.104ZM279.04 442.339C279.04 441.84 278.87 441.444 278.53 441.149C278.19 440.854 277.765 440.707 277.255 440.707C276.768 440.707 276.354 440.849 276.014 441.132C275.686 441.415 275.482 441.818 275.402 442.339H279.04ZM287.459 451.553C286.359 450.499 285.504 449.139 284.892 447.473C284.28 445.807 283.974 444.011 283.974 442.084C283.974 440.135 284.291 438.316 284.926 436.627C285.56 434.927 286.461 433.544 287.629 432.479H290.485V432.751C289.295 433.93 288.377 435.346 287.731 437.001C287.085 438.644 286.762 440.339 286.762 442.084C286.762 443.818 287.073 445.49 287.697 447.099C288.32 448.708 289.198 450.102 290.332 451.281V451.553H287.459ZM291.072 443.257C291.072 442.271 291.271 441.41 291.667 440.673C292.075 439.936 292.636 439.37 293.35 438.973C294.076 438.576 294.903 438.378 295.832 438.378C297.022 438.378 298.014 438.69 298.807 439.313C299.612 439.936 300.139 440.815 300.388 441.948H297.294C297.034 441.223 296.529 440.86 295.781 440.86C295.249 440.86 294.824 441.07 294.506 441.489C294.189 441.897 294.03 442.486 294.03 443.257C294.03 444.028 294.189 444.623 294.506 445.042C294.824 445.45 295.249 445.654 295.781 445.654C296.529 445.654 297.034 445.291 297.294 444.566H300.388C300.139 445.677 299.612 446.549 298.807 447.184C298.003 447.819 297.011 448.136 295.832 448.136C294.903 448.136 294.076 447.938 293.35 447.541C292.636 447.144 292.075 446.578 291.667 445.841C291.271 445.104 291.072 444.243 291.072 443.257ZM306.261 448.136C305.332 448.136 304.493 447.938 303.745 447.541C303.009 447.144 302.425 446.578 301.994 445.841C301.575 445.104 301.365 444.243 301.365 443.257C301.365 442.282 301.581 441.427 302.011 440.69C302.442 439.942 303.031 439.37 303.779 438.973C304.527 438.576 305.366 438.378 306.295 438.378C307.225 438.378 308.063 438.576 308.811 438.973C309.559 439.37 310.149 439.942 310.579 440.69C311.01 441.427 311.225 442.282 311.225 443.257C311.225 444.232 311.004 445.093 310.562 445.841C310.132 446.578 309.537 447.144 308.777 447.541C308.029 447.938 307.191 448.136 306.261 448.136ZM306.261 445.62C306.817 445.62 307.287 445.416 307.672 445.008C308.069 444.6 308.267 444.016 308.267 443.257C308.267 442.498 308.075 441.914 307.689 441.506C307.315 441.098 306.851 440.894 306.295 440.894C305.729 440.894 305.258 441.098 304.884 441.506C304.51 441.903 304.323 442.486 304.323 443.257C304.323 444.016 304.505 444.6 304.867 445.008C305.241 445.416 305.706 445.62 306.261 445.62ZM318.548 438.412C319.658 438.412 320.542 438.775 321.2 439.5C321.868 440.214 322.203 441.2 322.203 442.458V448H319.313V442.849C319.313 442.214 319.148 441.721 318.82 441.37C318.491 441.019 318.049 440.843 317.494 440.843C316.938 440.843 316.496 441.019 316.168 441.37C315.839 441.721 315.675 442.214 315.675 442.849V448H312.768V438.514H315.675V439.772C315.969 439.353 316.366 439.024 316.865 438.786C317.363 438.537 317.924 438.412 318.548 438.412ZM323.645 443.24C323.645 442.265 323.826 441.41 324.189 440.673C324.563 439.936 325.067 439.37 325.702 438.973C326.336 438.576 327.045 438.378 327.827 438.378C328.45 438.378 329.017 438.508 329.527 438.769C330.048 439.03 330.456 439.381 330.751 439.823V435.42H333.658V448H330.751V446.64C330.479 447.093 330.088 447.456 329.578 447.728C329.079 448 328.495 448.136 327.827 448.136C327.045 448.136 326.336 447.938 325.702 447.541C325.067 447.133 324.563 446.561 324.189 445.824C323.826 445.076 323.645 444.215 323.645 443.24ZM330.751 443.257C330.751 442.532 330.547 441.959 330.139 441.54C329.742 441.121 329.255 440.911 328.677 440.911C328.099 440.911 327.606 441.121 327.198 441.54C326.801 441.948 326.603 442.515 326.603 443.24C326.603 443.965 326.801 444.543 327.198 444.974C327.606 445.393 328.099 445.603 328.677 445.603C329.255 445.603 329.742 445.393 330.139 444.974C330.547 444.555 330.751 443.982 330.751 443.257ZM337.223 437.528C336.713 437.528 336.293 437.381 335.965 437.086C335.647 436.78 335.489 436.406 335.489 435.964C335.489 435.511 335.647 435.137 335.965 434.842C336.293 434.536 336.713 434.383 337.223 434.383C337.721 434.383 338.129 434.536 338.447 434.842C338.775 435.137 338.94 435.511 338.94 435.964C338.94 436.406 338.775 436.78 338.447 437.086C338.129 437.381 337.721 437.528 337.223 437.528ZM338.668 438.514V448H335.761V438.514H338.668ZM344.905 445.654C345.653 445.654 346.158 445.291 346.418 444.566H349.512C349.297 445.529 348.866 446.317 348.22 446.929C347.574 447.541 346.77 447.921 345.806 448.068V448.697C346.396 448.697 346.911 448.856 347.353 449.173C347.795 449.502 348.016 449.989 348.016 450.635C348.016 451.281 347.784 451.768 347.319 452.097C346.855 452.437 346.299 452.607 345.653 452.607H343.035V451.009H345.262C345.489 451.009 345.659 450.975 345.772 450.907C345.886 450.839 345.942 450.726 345.942 450.567C345.942 450.408 345.886 450.295 345.772 450.227C345.659 450.17 345.489 450.142 345.262 450.142H344.055V448.068C342.888 447.887 341.953 447.371 341.25 446.521C340.548 445.66 340.196 444.572 340.196 443.257C340.196 442.271 340.395 441.41 340.791 440.673C341.199 439.936 341.76 439.37 342.474 438.973C343.2 438.576 344.027 438.378 344.956 438.378C346.146 438.378 347.138 438.69 347.931 439.313C348.736 439.936 349.263 440.815 349.512 441.948H346.418C346.158 441.223 345.653 440.86 344.905 440.86C344.373 440.86 343.948 441.07 343.63 441.489C343.313 441.897 343.154 442.486 343.154 443.257C343.154 444.028 343.313 444.623 343.63 445.042C343.948 445.45 344.373 445.654 344.905 445.654ZM350.489 443.24C350.489 442.265 350.671 441.41 351.033 440.673C351.407 439.936 351.912 439.37 352.546 438.973C353.181 438.576 353.889 438.378 354.671 438.378C355.34 438.378 355.924 438.514 356.422 438.786C356.932 439.058 357.323 439.415 357.595 439.857V438.514H360.502V448H357.595V446.657C357.312 447.099 356.915 447.456 356.405 447.728C355.907 448 355.323 448.136 354.654 448.136C353.884 448.136 353.181 447.938 352.546 447.541C351.912 447.133 351.407 446.561 351.033 445.824C350.671 445.076 350.489 444.215 350.489 443.24ZM357.595 443.257C357.595 442.532 357.391 441.959 356.983 441.54C356.587 441.121 356.099 440.911 355.521 440.911C354.943 440.911 354.45 441.121 354.042 441.54C353.646 441.948 353.447 442.515 353.447 443.24C353.447 443.965 353.646 444.543 354.042 444.974C354.45 445.393 354.943 445.603 355.521 445.603C356.099 445.603 356.587 445.393 356.983 444.974C357.391 444.555 357.595 443.982 357.595 443.257ZM352.444 437.715C352.716 436.038 353.498 435.199 354.79 435.199C355.04 435.199 355.255 435.239 355.436 435.318C355.629 435.386 355.861 435.494 356.133 435.641C356.337 435.754 356.502 435.839 356.626 435.896C356.751 435.941 356.881 435.964 357.017 435.964C357.437 435.964 357.68 435.709 357.748 435.199H359.244C358.972 436.876 358.19 437.715 356.898 437.715C356.649 437.715 356.428 437.681 356.235 437.613C356.054 437.534 355.827 437.42 355.555 437.273C355.351 437.16 355.187 437.08 355.062 437.035C354.938 436.978 354.807 436.95 354.671 436.95C354.252 436.95 354.003 437.205 353.923 437.715H352.444ZM366.923 448.136C365.994 448.136 365.155 447.938 364.407 447.541C363.671 447.144 363.087 446.578 362.656 445.841C362.237 445.104 362.027 444.243 362.027 443.257C362.027 442.282 362.243 441.427 362.673 440.69C363.104 439.942 363.693 439.37 364.441 438.973C365.189 438.576 366.028 438.378 366.957 438.378C367.887 438.378 368.725 438.576 369.473 438.973C370.221 439.37 370.811 439.942 371.241 440.69C371.672 441.427 371.887 442.282 371.887 443.257C371.887 444.232 371.666 445.093 371.224 445.841C370.794 446.578 370.199 447.144 369.439 447.541C368.691 447.938 367.853 448.136 366.923 448.136ZM366.923 445.62C367.479 445.62 367.949 445.416 368.334 445.008C368.731 444.6 368.929 444.016 368.929 443.257C368.929 442.498 368.737 441.914 368.351 441.506C367.977 441.098 367.513 440.894 366.957 440.894C366.391 440.894 365.92 441.098 365.546 441.506C365.172 441.903 364.985 442.486 364.985 443.257C364.985 444.016 365.167 444.6 365.529 445.008C365.903 445.416 366.368 445.62 366.923 445.62ZM372.648 451.553V451.281C373.781 450.102 374.659 448.708 375.283 447.099C375.906 445.49 376.218 443.818 376.218 442.084C376.218 440.339 375.895 438.644 375.249 437.001C374.603 435.346 373.685 433.93 372.495 432.751V432.479H375.351C376.518 433.544 377.419 434.927 378.054 436.627C378.688 438.316 379.006 440.135 379.006 442.084C379.006 444.011 378.7 445.807 378.088 447.473C377.476 449.139 376.62 450.499 375.521 451.553H372.648ZM385.627 440.86C386.182 440.837 386.59 440.718 386.851 440.503C387.111 440.276 387.242 439.959 387.242 439.551C387.242 439.245 387.185 438.639 387.072 437.732C387.06 437.641 387.026 437.352 386.97 436.865C386.913 436.366 386.885 435.919 386.885 435.522C386.885 434.559 387.179 433.811 387.769 433.278C388.358 432.734 389.146 432.462 390.132 432.462H391.356V434.842H390.693C390.33 434.842 390.069 434.921 389.911 435.08C389.752 435.239 389.673 435.482 389.673 435.811C389.673 436.06 389.718 436.627 389.809 437.511C389.911 438.61 389.962 439.33 389.962 439.67C389.962 440.293 389.809 440.809 389.503 441.217C389.208 441.625 388.755 441.886 388.143 441.999V442.033C388.755 442.158 389.208 442.424 389.503 442.832C389.809 443.229 389.962 443.744 389.962 444.379C389.962 444.719 389.911 445.439 389.809 446.538C389.718 447.399 389.673 447.96 389.673 448.221C389.673 448.55 389.752 448.793 389.911 448.952C390.069 449.122 390.33 449.207 390.693 449.207H391.356V451.587H390.132C389.146 451.587 388.358 451.315 387.769 450.771C387.179 450.238 386.885 449.485 386.885 448.51C386.885 448.113 386.913 447.671 386.97 447.184C387.026 446.685 387.06 446.391 387.072 446.3C387.185 445.393 387.242 444.787 387.242 444.481C387.242 444.096 387.111 443.79 386.851 443.563C386.59 443.325 386.182 443.195 385.627 443.172V440.86ZM242.747 495.172C242.192 495.195 241.784 495.325 241.523 495.563C241.263 495.79 241.132 496.096 241.132 496.481C241.132 496.787 241.189 497.393 241.302 498.3C241.314 498.391 241.348 498.685 241.404 499.184C241.461 499.671 241.489 500.113 241.489 500.51C241.489 501.485 241.195 502.238 240.605 502.771C240.016 503.315 239.228 503.587 238.242 503.587H237.018V501.207H237.681C238.044 501.207 238.305 501.122 238.463 500.952C238.622 500.793 238.701 500.55 238.701 500.221C238.701 499.96 238.656 499.399 238.565 498.538C238.463 497.439 238.412 496.719 238.412 496.379C238.412 495.744 238.56 495.229 238.854 494.832C239.16 494.424 239.619 494.158 240.231 494.033V493.999C239.619 493.886 239.16 493.625 238.854 493.217C238.56 492.809 238.412 492.293 238.412 491.67C238.412 491.33 238.463 490.61 238.565 489.511C238.656 488.627 238.701 488.06 238.701 487.811C238.701 487.482 238.622 487.239 238.463 487.08C238.305 486.921 238.044 486.842 237.681 486.842H237.018V484.462H238.242C239.228 484.462 240.016 484.734 240.605 485.278C241.195 485.811 241.489 486.559 241.489 487.522C241.489 487.919 241.461 488.366 241.404 488.865C241.348 489.352 241.314 489.641 241.302 489.732C241.189 490.639 241.132 491.245 241.132 491.551C241.132 491.959 241.263 492.276 241.523 492.503C241.784 492.718 242.192 492.837 242.747 492.86V495.172Z" fill="white"/>
<rect x="269.811" y="458" width="89" height="24" fill="#BDBDBD"/>
<path d="M297.907 534.171L298.198 533.214L298.198 533.214L297.907 534.171ZM248.811 519.261L256.702 527.691L260.057 516.643L248.811 519.261ZM392.778 455.104C392.829 455.59 392.875 456.075 392.917 456.559L394.91 456.388C394.867 455.892 394.819 455.394 394.767 454.896L392.778 455.104ZM393.11 459.451C393.157 460.424 393.184 461.393 393.193 462.358L395.193 462.339C395.184 461.349 395.156 460.354 395.108 459.355L393.11 459.451ZM393.164 465.253C393.135 466.225 393.087 467.193 393.021 468.155L395.016 468.293C395.084 467.305 395.133 466.311 395.163 465.312L393.164 465.253ZM392.764 471.044C392.659 472.008 392.535 472.965 392.393 473.916L394.371 474.212C394.517 473.235 394.644 472.251 394.752 471.261L392.764 471.044ZM391.906 476.781C391.725 477.733 391.525 478.679 391.306 479.617L393.254 480.07C393.479 479.106 393.684 478.134 393.871 477.156L391.906 476.781ZM390.593 482.427C390.336 483.363 390.06 484.29 389.767 485.21L391.672 485.818C391.974 484.873 392.257 483.92 392.521 482.958L390.593 482.427ZM388.831 487.953C388.499 488.864 388.15 489.766 387.784 490.659L389.635 491.418C390.011 490.5 390.369 489.573 390.71 488.636L388.831 487.953ZM386.63 493.321C386.227 494.201 385.808 495.072 385.371 495.932L387.156 496.836C387.604 495.952 388.035 495.057 388.449 494.153L386.63 493.321ZM384.008 498.495C383.537 499.34 383.049 500.176 382.545 501L384.252 502.043C384.769 501.196 385.271 500.338 385.755 499.469L384.008 498.495ZM380.985 503.444C380.448 504.25 379.896 505.045 379.328 505.828L380.947 507.001C381.53 506.197 382.098 505.381 382.649 504.554L380.985 503.444ZM377.58 508.143C376.981 508.904 376.369 509.652 375.742 510.388L377.265 511.685C377.908 510.929 378.537 510.16 379.152 509.379L377.58 508.143ZM373.817 512.56C373.162 513.272 372.492 513.97 371.81 514.656L373.227 516.067C373.927 515.363 374.615 514.646 375.288 513.915L373.817 512.56ZM369.722 516.671C369.013 517.33 368.292 517.974 367.558 518.605L368.861 520.122C369.615 519.475 370.356 518.813 371.084 518.137L369.722 516.671ZM365.321 520.453C364.563 521.054 363.793 521.641 363.013 522.212L364.194 523.826C364.996 523.239 365.786 522.637 366.564 522.019L365.321 520.453ZM360.639 523.881C359.837 524.422 359.025 524.947 358.202 525.456L359.254 527.157C360.099 526.634 360.934 526.094 361.757 525.539L360.639 523.881ZM355.705 526.936C354.864 527.412 354.013 527.872 353.153 528.316L354.07 530.093C354.953 529.638 355.827 529.165 356.69 528.676L355.705 526.936ZM350.549 529.595C349.673 530.004 348.788 530.397 347.895 530.772L348.67 532.616C349.587 532.23 350.496 531.827 351.395 531.407L350.549 529.595ZM345.2 531.842C344.295 532.18 343.383 532.502 342.463 532.805L343.09 534.704C344.035 534.393 344.972 534.063 345.901 533.715L345.2 531.842ZM339.69 533.659C338.762 533.924 337.828 534.172 336.887 534.401L337.361 536.344C338.327 536.109 339.287 535.855 340.24 535.582L339.69 533.659ZM334.055 535.031C333.109 535.222 332.157 535.394 331.2 535.547L331.516 537.522C332.5 537.365 333.478 537.188 334.45 536.992L334.055 535.031ZM328.33 535.948C327.371 536.062 326.408 536.158 325.441 536.234L325.598 538.227C326.592 538.149 327.581 538.051 328.566 537.934L328.33 535.948ZM322.546 536.403C321.584 536.439 320.618 536.457 319.648 536.455L319.645 538.455C320.641 538.457 321.634 538.439 322.623 538.401L322.546 536.403ZM316.743 536.392C315.782 536.352 314.819 536.292 313.853 536.213L313.69 538.207C314.682 538.288 315.672 538.349 316.659 538.39L316.743 536.392ZM310.967 535.919C310.01 535.803 309.051 535.667 308.09 535.511L307.77 537.486C308.757 537.645 309.742 537.785 310.725 537.905L310.967 535.919ZM305.242 534.993C304.296 534.802 303.35 534.592 302.403 534.362L301.931 536.306C302.904 536.541 303.875 536.757 304.845 536.953L305.242 534.993ZM299.6 533.625C299.133 533.493 298.665 533.356 298.198 533.214L297.617 535.128C298.096 535.273 298.576 535.414 299.055 535.55L299.6 533.625ZM298.198 533.214L296.834 532.8L296.253 534.714L297.617 535.128L298.198 533.214ZM294.106 531.972L291.379 531.143L290.798 533.057L293.525 533.885L294.106 531.972ZM288.651 530.315L285.924 529.487L285.343 531.4L288.07 532.229L288.651 530.315ZM283.196 528.658L280.469 527.83L279.887 529.744L282.615 530.572L283.196 528.658ZM277.741 527.002L275.014 526.173L274.432 528.087L277.16 528.915L277.741 527.002ZM272.286 525.345L269.558 524.517L268.977 526.43L271.705 527.259L272.286 525.345ZM266.831 523.688L264.103 522.86L263.522 524.774L266.25 525.602L266.831 523.688ZM261.376 522.032L258.648 521.204L258.067 523.117L260.795 523.946L261.376 522.032ZM255.921 520.375L253.193 519.547L252.612 521.461L255.34 522.289L255.921 520.375ZM297.907 534.171L298.488 532.257L298.488 532.257L297.907 534.171ZM248.811 519.261L264.593 536.122L271.304 514.024L248.811 519.261ZM391.783 455.209C391.834 455.689 391.88 456.167 391.921 456.645L395.906 456.303C395.863 455.8 395.815 455.296 395.762 454.791L391.783 455.209ZM392.111 459.498C392.157 460.459 392.185 461.415 392.193 462.367L396.193 462.33C396.184 461.327 396.155 460.319 396.107 459.307L392.111 459.498ZM392.164 465.223C392.136 466.183 392.089 467.137 392.023 468.086L396.014 468.361C396.083 467.36 396.133 466.354 396.163 465.341L392.164 465.223ZM391.77 470.936C391.666 471.886 391.544 472.831 391.404 473.769L395.36 474.36C395.508 473.369 395.637 472.372 395.746 471.369L391.77 470.936ZM390.924 476.594C390.745 477.533 390.547 478.465 390.332 479.39L394.228 480.296C394.456 479.319 394.664 478.335 394.853 477.343L390.924 476.594ZM389.629 482.162C389.375 483.085 389.103 483.999 388.814 484.906L392.625 486.122C392.93 485.164 393.217 484.198 393.486 483.224L389.629 482.162ZM387.891 487.611C387.564 488.509 387.22 489.399 386.859 490.28L390.56 491.797C390.941 490.867 391.305 489.927 391.65 488.978L387.891 487.611ZM385.721 492.905C385.323 493.773 384.909 494.632 384.479 495.48L388.048 497.288C388.502 496.392 388.939 495.486 389.358 494.569L385.721 492.905ZM383.135 498.008C382.67 498.842 382.189 499.666 381.692 500.479L385.105 502.564C385.63 501.706 386.138 500.836 386.629 499.956L383.135 498.008ZM380.153 502.89C379.623 503.685 379.078 504.468 378.518 505.241L381.757 507.588C382.348 506.774 382.923 505.947 383.481 505.108L380.153 502.89ZM376.793 507.525C376.203 508.275 375.599 509.013 374.981 509.739L378.026 512.333C378.678 511.567 379.315 510.789 379.938 509.998L376.793 507.525ZM373.082 511.883C372.435 512.585 371.775 513.274 371.101 513.95L373.935 516.773C374.645 516.06 375.341 515.333 376.023 514.593L373.082 511.883ZM369.042 515.939C368.342 516.588 367.63 517.224 366.906 517.846L369.513 520.88C370.276 520.225 371.027 519.554 371.764 518.869L369.042 515.939ZM364.699 519.669C363.951 520.263 363.192 520.842 362.422 521.406L364.785 524.633C365.597 524.038 366.398 523.428 367.186 522.802L364.699 519.669ZM360.08 523.052C359.289 523.585 358.487 524.104 357.675 524.606L359.781 528.007C360.637 527.477 361.482 526.931 362.316 526.369L360.08 523.052ZM355.212 526.066C354.382 526.535 353.543 526.989 352.695 527.427L354.528 530.982C355.423 530.52 356.308 530.042 357.183 529.546L355.212 526.066ZM350.125 528.689C349.261 529.093 348.389 529.48 347.508 529.85L349.057 533.538C349.986 533.147 350.907 532.739 351.818 532.313L350.125 528.689ZM344.85 530.905C343.957 531.239 343.057 531.556 342.15 531.855L343.403 535.654C344.36 535.338 345.31 535.004 346.252 534.651L344.85 530.905ZM339.414 532.698C338.5 532.959 337.578 533.203 336.651 533.429L337.597 537.316C338.577 537.077 339.549 536.82 340.515 536.543L339.414 532.698ZM333.857 534.051C332.924 534.239 331.986 534.409 331.042 534.56L331.674 538.51C332.671 538.35 333.662 538.171 334.648 537.972L333.857 534.051ZM328.211 534.955C327.266 535.068 326.317 535.162 325.363 535.237L325.676 539.224C326.684 539.145 327.687 539.046 328.685 538.927L328.211 534.955ZM322.508 535.403C321.559 535.44 320.606 535.457 319.65 535.455L319.643 539.455C320.652 539.457 321.659 539.439 322.661 539.4L322.508 535.403ZM316.785 535.393C315.837 535.353 314.887 535.294 313.934 535.216L313.608 539.203C314.614 539.285 315.617 539.347 316.617 539.389L316.785 535.393ZM311.088 534.927C310.144 534.812 309.198 534.678 308.25 534.524L307.61 538.473C308.61 538.635 309.608 538.776 310.604 538.897L311.088 534.927ZM305.44 534.013C304.507 533.824 303.573 533.617 302.638 533.39L301.696 537.277C302.68 537.516 303.664 537.735 304.647 537.933L305.44 534.013ZM299.873 532.663C299.411 532.533 298.95 532.397 298.488 532.257L297.326 536.085C297.812 536.232 298.297 536.374 298.783 536.512L299.873 532.663ZM298.488 532.257L297.124 531.843L295.962 535.67L297.326 536.085L298.488 532.257ZM294.397 531.015L291.669 530.186L290.507 534.014L293.235 534.842L294.397 531.015ZM288.942 529.358L286.214 528.53L285.052 532.357L287.78 533.185L288.942 529.358ZM283.487 527.701L280.759 526.873L279.597 530.701L282.324 531.529L283.487 527.701ZM278.032 526.045L275.304 525.217L274.142 529.044L276.869 529.872L278.032 526.045ZM272.577 524.388L269.849 523.56L268.687 527.387L271.414 528.216L272.577 524.388ZM267.121 522.732L264.394 521.903L263.232 525.731L265.959 526.559L267.121 522.732ZM261.666 521.075L258.939 520.247L257.776 524.074L260.504 524.902L261.666 521.075ZM256.211 519.418L253.484 518.59L252.321 522.417L255.049 523.246L256.211 519.418Z" fill="#FEE50A"/>
<path d="M220.716 493.626L220.891 492.641L220.891 492.641L220.716 493.626ZM223.841 493.164L223.103 493.033L222.754 495.003L223.492 495.133L223.841 493.164ZM221.628 492.772L220.891 492.641L220.542 494.611L221.279 494.741L221.628 492.772ZM220.891 492.641C220.4 492.554 219.919 492.456 219.447 492.346L218.994 494.294C219.501 494.412 220.017 494.517 220.542 494.611L220.891 492.641ZM216.655 491.53C215.719 491.197 214.825 490.817 213.974 490.393L213.083 492.184C214.007 492.644 214.975 493.055 215.986 493.414L216.655 491.53ZM211.461 488.94C210.645 488.397 209.877 487.81 209.156 487.183L207.844 488.692C208.628 489.374 209.465 490.014 210.352 490.605L211.461 488.94ZM207.094 485.142C206.448 484.414 205.852 483.65 205.309 482.855L203.658 483.984C204.248 484.848 204.895 485.679 205.599 486.47L207.094 485.142ZM203.82 480.359C203.375 479.496 202.983 478.607 202.646 477.698L200.771 478.395C201.136 479.378 201.56 480.34 202.043 481.276L203.82 480.359ZM201.793 474.913C201.563 473.969 201.388 473.011 201.268 472.047L199.283 472.293C199.412 473.333 199.601 474.367 199.849 475.386L201.793 474.913ZM201.075 469.138C201.067 468.166 201.114 467.194 201.217 466.227L199.228 466.015C199.117 467.058 199.066 468.107 199.075 469.156L201.075 469.138ZM201.695 463.354C201.91 462.409 202.181 461.476 202.508 460.562L200.625 459.887C200.271 460.878 199.977 461.889 199.745 462.911L201.695 463.354ZM203.654 457.891C204.088 457.031 204.577 456.195 205.122 455.388L203.465 454.269C202.872 455.147 202.34 456.056 201.869 456.99L203.654 457.891ZM206.897 453.093C207.528 452.377 208.212 451.693 208.949 451.047L207.631 449.543C206.829 450.246 206.085 450.99 205.397 451.771L206.897 453.093ZM211.248 449.275C212.037 448.743 212.873 448.248 213.757 447.795L212.844 446.015C211.889 446.504 210.984 447.04 210.129 447.618L211.248 449.275ZM216.417 446.617C216.87 446.446 217.334 446.285 217.808 446.134L217.202 444.228C216.694 444.389 216.197 444.562 215.71 444.746L216.417 446.617ZM220.716 493.626L221.065 491.657L221.065 491.657L220.716 493.626ZM224.015 492.179L223.278 492.049L222.58 495.987L223.317 496.118L224.015 492.179ZM221.803 491.787L221.065 491.657L220.367 495.595L221.105 495.726L221.803 491.787ZM221.065 491.657C220.592 491.573 220.129 491.478 219.674 491.372L218.767 495.268C219.291 495.39 219.825 495.499 220.367 495.595L221.065 491.657ZM216.99 490.587C216.091 490.268 215.235 489.904 214.419 489.498L212.637 493.079C213.598 493.557 214.602 493.984 215.651 494.357L216.99 490.587ZM212.015 488.108C211.235 487.589 210.501 487.027 209.812 486.428L207.187 489.446C208.004 490.157 208.875 490.823 209.798 491.437L212.015 488.108ZM207.842 484.478C207.224 483.782 206.654 483.051 206.134 482.291L202.832 484.548C203.446 485.446 204.119 486.311 204.851 487.134L207.842 484.478ZM204.709 479.901C204.283 479.073 203.907 478.221 203.583 477.349L199.834 478.744C200.213 479.763 200.653 480.762 201.154 481.734L204.709 479.901ZM202.764 474.677C202.544 473.77 202.375 472.85 202.26 471.923L198.291 472.416C198.425 473.495 198.621 474.566 198.878 475.623L202.764 474.677ZM202.075 469.129C202.067 468.195 202.112 467.261 202.211 466.333L198.234 465.909C198.118 466.99 198.066 468.078 198.075 469.165L202.075 469.129ZM202.67 463.576C202.876 462.669 203.136 461.775 203.45 460.899L199.684 459.55C199.315 460.58 199.011 461.628 198.77 462.689L202.67 463.576ZM204.547 458.342C204.962 457.519 205.43 456.719 205.951 455.948L202.636 453.709C202.019 454.623 201.466 455.568 200.976 456.539L204.547 458.342ZM207.647 453.755C208.25 453.07 208.904 452.416 209.609 451.799L206.972 448.791C206.137 449.522 205.363 450.297 204.647 451.109L207.647 453.755ZM211.808 450.104C212.563 449.594 213.364 449.119 214.213 448.684L212.388 445.125C211.398 445.632 210.458 446.189 209.569 446.789L211.808 450.104ZM216.77 447.553C217.207 447.388 217.654 447.232 218.111 447.087L216.9 443.275C216.375 443.442 215.86 443.62 215.357 443.811L216.77 447.553Z" fill="#FEE50A"/>
<path d="M228.53 441.734L217.26 439.221L220.719 450.237L228.53 441.734ZM214.392 447.22L215.595 446.843L214.996 444.935L213.793 445.312L214.392 447.22ZM218.001 446.087L220.408 445.332L219.809 443.424L217.402 444.179L218.001 446.087ZM222.814 444.576L225.22 443.821L224.621 441.913L222.215 442.668L222.814 444.576ZM228.53 441.734L205.99 436.707L212.907 458.741L228.53 441.734ZM214.691 448.175L215.894 447.797L214.696 443.98L213.493 444.358L214.691 448.175ZM218.301 447.041L220.707 446.286L219.509 442.47L217.103 443.225L218.301 447.041ZM223.113 445.53L225.52 444.775L224.322 440.959L221.915 441.714L223.113 445.53Z" fill="#FEE50A"/>
</g>
<defs>
<clipPath id="clip0_1_38">
<rect width="600" height="570" fill="white"/>
</clipPath>
</defs>
</svg>
