<svg width="600" height="570" viewBox="0 0 600 570" fill="none" xmlns="http://www.w3.org/2000/svg">
<rect width="600" height="570" fill="#515050"/>
<path d="M172.051 82.642V86.615H163.757V90.907H169.963V94.764H163.757V103H158.798V82.642H172.051ZM190.636 86.818V103H185.677V100.796C185.175 101.511 184.488 102.091 183.618 102.536C182.768 102.961 181.82 103.174 180.776 103.174C179.539 103.174 178.447 102.903 177.499 102.362C176.552 101.801 175.817 100.999 175.295 99.955C174.773 98.911 174.512 97.6833 174.512 96.272V86.818H179.442V95.605C179.442 96.6877 179.723 97.5287 180.283 98.128C180.844 98.7273 181.598 99.027 182.545 99.027C183.512 99.027 184.276 98.7273 184.836 98.128C185.397 97.5287 185.677 96.6877 185.677 95.605V86.818H190.636ZM204.058 86.644C205.953 86.644 207.461 87.2627 208.582 88.5C209.723 89.718 210.293 91.4 210.293 93.546V103H205.363V94.213C205.363 93.1303 205.083 92.2893 204.522 91.69C203.962 91.0907 203.208 90.791 202.26 90.791C201.313 90.791 200.559 91.0907 199.998 91.69C199.438 92.2893 199.157 93.1303 199.157 94.213V103H194.198V86.818H199.157V88.964C199.66 88.2487 200.337 87.688 201.187 87.282C202.038 86.8567 202.995 86.644 204.058 86.644ZM220.786 98.998C222.062 98.998 222.923 98.3793 223.367 97.142H228.645C228.278 98.7853 227.543 100.129 226.441 101.173C225.339 102.217 223.967 102.865 222.323 103.116V104.189C223.329 104.189 224.208 104.46 224.962 105.001C225.716 105.562 226.093 106.393 226.093 107.495C226.093 108.597 225.697 109.428 224.904 109.989C224.112 110.569 223.164 110.859 222.062 110.859H217.596V108.133H221.395C221.782 108.133 222.072 108.075 222.265 107.959C222.459 107.843 222.555 107.65 222.555 107.379C222.555 107.108 222.459 106.915 222.265 106.799C222.072 106.702 221.782 106.654 221.395 106.654H219.336V103.116C217.345 102.807 215.75 101.927 214.551 100.477C213.353 99.0077 212.753 97.1517 212.753 94.909C212.753 93.227 213.092 91.7577 213.768 90.501C214.464 89.2443 215.421 88.2777 216.639 87.601C217.877 86.9243 219.288 86.586 220.873 86.586C222.903 86.586 224.595 87.1177 225.948 88.181C227.321 89.2443 228.22 90.7427 228.645 92.676H223.367C222.923 91.4387 222.062 90.82 220.786 90.82C219.878 90.82 219.153 91.1777 218.611 91.893C218.07 92.589 217.799 93.5943 217.799 94.909C217.799 96.2237 218.07 97.2387 218.611 97.954C219.153 98.65 219.878 98.998 220.786 98.998ZM238.664 103.232C237.079 103.232 235.648 102.894 234.372 102.217C233.115 101.54 232.12 100.574 231.385 99.317C230.67 98.0603 230.312 96.591 230.312 94.909C230.312 93.2463 230.679 91.7867 231.414 90.53C232.149 89.254 233.154 88.2777 234.43 87.601C235.706 86.9243 237.137 86.586 238.722 86.586C240.307 86.586 241.738 86.9243 243.014 87.601C244.29 88.2777 245.295 89.254 246.03 90.53C246.765 91.7867 247.132 93.2463 247.132 94.909C247.132 96.5717 246.755 98.041 246.001 99.317C245.266 100.574 244.251 101.54 242.956 102.217C241.68 102.894 240.249 103.232 238.664 103.232ZM238.664 98.94C239.611 98.94 240.414 98.592 241.071 97.896C241.748 97.2 242.086 96.2043 242.086 94.909C242.086 93.6137 241.757 92.618 241.1 91.922C240.462 91.226 239.669 90.878 238.722 90.878C237.755 90.878 236.953 91.226 236.315 91.922C235.677 92.5987 235.358 93.5943 235.358 94.909C235.358 96.2043 235.667 97.2 236.286 97.896C236.924 98.592 237.717 98.94 238.664 98.94ZM233.299 85.339C233.763 82.4777 235.097 81.047 237.301 81.047C237.726 81.047 238.094 81.1147 238.403 81.25C238.732 81.366 239.128 81.5497 239.592 81.801C239.94 81.9943 240.22 82.1393 240.433 82.236C240.646 82.3133 240.868 82.352 241.1 82.352C241.815 82.352 242.231 81.917 242.347 81.047H244.899C244.435 83.9083 243.101 85.339 240.897 85.339C240.472 85.339 240.095 85.281 239.766 85.165C239.457 85.0297 239.07 84.8363 238.606 84.585C238.258 84.3917 237.978 84.2563 237.765 84.179C237.552 84.0823 237.33 84.034 237.098 84.034C236.383 84.034 235.957 84.469 235.822 85.339H233.299ZM265.017 94.648C265.017 95.112 264.988 95.5953 264.93 96.098H253.707C253.784 97.1033 254.103 97.8767 254.664 98.418C255.244 98.94 255.95 99.201 256.781 99.201C258.018 99.201 258.879 98.679 259.362 97.635H264.64C264.369 98.6983 263.876 99.6553 263.161 100.506C262.465 101.357 261.585 102.024 260.522 102.507C259.459 102.99 258.27 103.232 256.955 103.232C255.37 103.232 253.958 102.894 252.721 102.217C251.484 101.54 250.517 100.574 249.821 99.317C249.125 98.0603 248.777 96.591 248.777 94.909C248.777 93.227 249.115 91.7577 249.792 90.501C250.488 89.2443 251.455 88.2777 252.692 87.601C253.929 86.9243 255.35 86.586 256.955 86.586C258.521 86.586 259.913 86.9147 261.131 87.572C262.349 88.2293 263.296 89.167 263.973 90.385C264.669 91.603 265.017 93.024 265.017 94.648ZM259.942 93.343C259.942 92.4923 259.652 91.8157 259.072 91.313C258.492 90.8103 257.767 90.559 256.897 90.559C256.066 90.559 255.36 90.8007 254.78 91.284C254.219 91.7673 253.871 92.4537 253.736 93.343H259.942ZM274.216 103.232C272.805 103.232 271.548 102.99 270.446 102.507C269.344 102.024 268.474 101.366 267.836 100.535C267.198 99.6843 266.84 98.737 266.763 97.693H271.664C271.722 98.2537 271.983 98.708 272.447 99.056C272.911 99.404 273.481 99.578 274.158 99.578C274.777 99.578 275.25 99.462 275.579 99.23C275.927 98.9787 276.101 98.6597 276.101 98.273C276.101 97.809 275.859 97.4707 275.376 97.258C274.893 97.026 274.11 96.7747 273.027 96.504C271.867 96.2333 270.9 95.953 270.127 95.663C269.354 95.3537 268.687 94.88 268.126 94.242C267.565 93.5847 267.285 92.705 267.285 91.603C267.285 90.675 267.536 89.834 268.039 89.08C268.561 88.3067 269.315 87.6977 270.301 87.253C271.306 86.8083 272.495 86.586 273.868 86.586C275.898 86.586 277.493 87.0887 278.653 88.094C279.832 89.0993 280.509 90.4333 280.683 92.096H276.101C276.024 91.5353 275.772 91.0907 275.347 90.762C274.941 90.4333 274.4 90.269 273.723 90.269C273.143 90.269 272.698 90.385 272.389 90.617C272.08 90.8297 271.925 91.1293 271.925 91.516C271.925 91.98 272.167 92.328 272.65 92.56C273.153 92.792 273.926 93.024 274.97 93.256C276.169 93.5653 277.145 93.8747 277.899 94.184C278.653 94.474 279.31 94.9573 279.871 95.634C280.451 96.2913 280.751 97.1807 280.77 98.302C280.77 99.2493 280.499 100.1 279.958 100.854C279.436 101.589 278.672 102.169 277.667 102.594C276.681 103.019 275.531 103.232 274.216 103.232ZM292.414 85.136C291.544 85.136 290.829 84.8847 290.268 84.382C289.727 83.86 289.456 83.222 289.456 82.468C289.456 81.6947 289.727 81.0567 290.268 80.554C290.829 80.032 291.544 79.771 292.414 79.771C293.265 79.771 293.961 80.032 294.502 80.554C295.063 81.0567 295.343 81.6947 295.343 82.468C295.343 83.222 295.063 83.86 294.502 84.382C293.961 84.8847 293.265 85.136 292.414 85.136ZM294.908 105.088C294.908 107.079 294.406 108.51 293.4 109.38C292.395 110.269 290.993 110.714 289.195 110.714H287.252V106.509H288.441C288.983 106.509 289.369 106.403 289.601 106.19C289.833 105.977 289.949 105.629 289.949 105.146V86.818H294.908V105.088ZM297.488 94.88C297.488 93.2173 297.797 91.7577 298.416 90.501C299.054 89.2443 299.914 88.2777 300.997 87.601C302.079 86.9243 303.288 86.586 304.622 86.586C305.762 86.586 306.758 86.818 307.609 87.282C308.479 87.746 309.146 88.355 309.61 89.109V86.818H314.569V103H309.61V100.709C309.126 101.463 308.45 102.072 307.58 102.536C306.729 103 305.733 103.232 304.593 103.232C303.278 103.232 302.079 102.894 300.997 102.217C299.914 101.521 299.054 100.545 298.416 99.288C297.797 98.012 297.488 96.5427 297.488 94.88ZM309.61 94.909C309.61 93.6717 309.262 92.6953 308.566 91.98C307.889 91.2647 307.058 90.907 306.072 90.907C305.086 90.907 304.245 91.2647 303.549 91.98C302.872 92.676 302.534 93.6427 302.534 94.88C302.534 96.1173 302.872 97.1033 303.549 97.838C304.245 98.5533 305.086 98.911 306.072 98.911C307.058 98.911 307.889 98.5533 308.566 97.838C309.262 97.1227 309.61 96.1463 309.61 94.909ZM325.435 98.36L328.944 86.818H334.222L328.48 103H322.361L316.619 86.818H321.926L325.435 98.36ZM335.324 94.88C335.324 93.2173 335.633 91.7577 336.252 90.501C336.89 89.2443 337.75 88.2777 338.833 87.601C339.915 86.9243 341.124 86.586 342.458 86.586C343.598 86.586 344.594 86.818 345.445 87.282C346.315 87.746 346.982 88.355 347.446 89.109V86.818H352.405V103H347.446V100.709C346.962 101.463 346.286 102.072 345.416 102.536C344.565 103 343.569 103.232 342.429 103.232C341.114 103.232 339.915 102.894 338.833 102.217C337.75 101.521 336.89 100.545 336.252 99.288C335.633 98.012 335.324 96.5427 335.324 94.88ZM347.446 94.909C347.446 93.6717 347.098 92.6953 346.402 91.98C345.725 91.2647 344.894 90.907 343.908 90.907C342.922 90.907 342.081 91.2647 341.385 91.98C340.708 92.676 340.37 93.6427 340.37 94.88C340.37 96.1173 340.708 97.1033 341.385 97.838C342.081 98.5533 342.922 98.911 343.908 98.911C344.894 98.911 345.725 98.5533 346.402 97.838C347.098 97.1227 347.446 96.1463 347.446 94.909ZM363.358 103.203C361.87 103.203 360.536 102.961 359.356 102.478C358.177 101.995 357.23 101.279 356.514 100.332C355.818 99.3847 355.451 98.244 355.412 96.91H360.69C360.768 97.664 361.029 98.244 361.473 98.65C361.918 99.0367 362.498 99.23 363.213 99.23C363.948 99.23 364.528 99.0657 364.953 98.737C365.379 98.389 365.591 97.9153 365.591 97.316C365.591 96.8133 365.417 96.3977 365.069 96.069C364.741 95.7403 364.325 95.4697 363.822 95.257C363.339 95.0443 362.643 94.8027 361.734 94.532C360.42 94.126 359.347 93.72 358.515 93.314C357.684 92.908 356.969 92.3087 356.369 91.516C355.77 90.7233 355.47 89.689 355.47 88.413C355.47 86.5183 356.157 85.0393 357.529 83.976C358.902 82.8933 360.69 82.352 362.894 82.352C365.137 82.352 366.945 82.8933 368.317 83.976C369.69 85.0393 370.425 86.528 370.521 88.442H365.156C365.118 87.7847 364.876 87.2723 364.431 86.905C363.987 86.5183 363.416 86.325 362.72 86.325C362.121 86.325 361.638 86.4893 361.27 86.818C360.903 87.1273 360.719 87.5817 360.719 88.181C360.719 88.8383 361.029 89.3507 361.647 89.718C362.266 90.0853 363.233 90.4817 364.547 90.907C365.862 91.3517 366.925 91.777 367.737 92.183C368.569 92.589 369.284 93.1787 369.883 93.952C370.483 94.7253 370.782 95.721 370.782 96.939C370.782 98.099 370.483 99.1527 369.883 100.1C369.303 101.047 368.453 101.801 367.331 102.362C366.21 102.923 364.886 103.203 363.358 103.203ZM372.848 94.909C372.848 93.227 373.186 91.7577 373.863 90.501C374.559 89.2443 375.516 88.2777 376.734 87.601C377.971 86.9243 379.383 86.586 380.968 86.586C382.998 86.586 384.69 87.1177 386.043 88.181C387.416 89.2443 388.315 90.7427 388.74 92.676H383.462C383.017 91.4387 382.157 90.82 380.881 90.82C379.972 90.82 379.247 91.1777 378.706 91.893C378.165 92.589 377.894 93.5943 377.894 94.909C377.894 96.2237 378.165 97.2387 378.706 97.954C379.247 98.65 379.972 98.998 380.881 98.998C382.157 98.998 383.017 98.3793 383.462 97.142H388.74C388.315 99.0367 387.416 100.525 386.043 101.608C384.67 102.691 382.979 103.232 380.968 103.232C379.383 103.232 377.971 102.894 376.734 102.217C375.516 101.54 374.559 100.574 373.863 99.317C373.186 98.0603 372.848 96.591 372.848 94.909ZM396.352 89.515C396.932 88.6257 397.657 87.9297 398.527 87.427C399.397 86.905 400.363 86.644 401.427 86.644V91.893H400.064C398.826 91.893 397.898 92.1637 397.28 92.705C396.661 93.227 396.352 94.155 396.352 95.489V103H391.393V86.818H396.352V89.515ZM406.291 85.136C405.421 85.136 404.706 84.8847 404.145 84.382C403.604 83.86 403.333 83.222 403.333 82.468C403.333 81.6947 403.604 81.0567 404.145 80.554C404.706 80.032 405.421 79.771 406.291 79.771C407.142 79.771 407.838 80.032 408.379 80.554C408.94 81.0567 409.22 81.6947 409.22 82.468C409.22 83.222 408.94 83.86 408.379 84.382C407.838 84.8847 407.142 85.136 406.291 85.136ZM408.756 86.818V103H403.797V86.818H408.756ZM417.309 89.109C417.792 88.355 418.459 87.746 419.31 87.282C420.16 86.818 421.156 86.586 422.297 86.586C423.631 86.586 424.839 86.9243 425.922 87.601C427.004 88.2777 427.855 89.2443 428.474 90.501C429.112 91.7577 429.431 93.2173 429.431 94.88C429.431 96.5427 429.112 98.012 428.474 99.288C427.855 100.545 427.004 101.521 425.922 102.217C424.839 102.894 423.631 103.232 422.297 103.232C421.175 103.232 420.18 103 419.31 102.536C418.459 102.072 417.792 101.473 417.309 100.738V110.714H412.35V86.818H417.309V89.109ZM424.385 94.88C424.385 93.6427 424.037 92.676 423.341 91.98C422.664 91.2647 421.823 90.907 420.818 90.907C419.832 90.907 418.991 91.2647 418.295 91.98C417.618 92.6953 417.28 93.6717 417.28 94.909C417.28 96.1463 417.618 97.1227 418.295 97.838C418.991 98.5533 419.832 98.911 420.818 98.911C421.804 98.911 422.645 98.5533 423.341 97.838C424.037 97.1033 424.385 96.1173 424.385 94.88ZM441.051 98.795V103H438.528C436.73 103 435.329 102.565 434.323 101.695C433.318 100.806 432.815 99.3653 432.815 97.374V90.936H430.843V86.818H432.815V82.874H437.774V86.818H441.022V90.936H437.774V97.432C437.774 97.9153 437.89 98.2633 438.122 98.476C438.354 98.6887 438.741 98.795 439.282 98.795H441.051Z" fill="white"/>
<path d="M127.182 219.737H125.25V228.473H121.659V219.737H120.357V216.755H121.659V216.419C121.659 214.977 122.072 213.885 122.898 213.143C123.724 212.387 124.935 212.009 126.531 212.009C126.797 212.009 126.993 212.016 127.119 212.03V215.075C126.433 215.033 125.95 215.131 125.67 215.369C125.39 215.607 125.25 216.034 125.25 216.65V216.755H127.182V219.737ZM140.44 216.755V228.473H136.849V226.877C136.485 227.395 135.988 227.815 135.358 228.137C134.742 228.445 134.056 228.599 133.3 228.599C132.404 228.599 131.613 228.403 130.927 228.011C130.241 227.605 129.709 227.024 129.331 226.268C128.953 225.512 128.764 224.623 128.764 223.601V216.755H132.334V223.118C132.334 223.902 132.537 224.511 132.943 224.945C133.349 225.379 133.895 225.596 134.581 225.596C135.281 225.596 135.834 225.379 136.24 224.945C136.646 224.511 136.849 223.902 136.849 223.118V216.755H140.44ZM150.16 216.629C151.532 216.629 152.624 217.077 153.436 217.973C154.262 218.855 154.675 220.073 154.675 221.627V228.473H151.105V222.11C151.105 221.326 150.902 220.717 150.496 220.283C150.09 219.849 149.544 219.632 148.858 219.632C148.172 219.632 147.626 219.849 147.22 220.283C146.814 220.717 146.611 221.326 146.611 222.11V228.473H143.02V216.755H146.611V218.309C146.975 217.791 147.465 217.385 148.081 217.091C148.697 216.783 149.39 216.629 150.16 216.629ZM156.456 222.614C156.456 221.396 156.701 220.332 157.191 219.422C157.695 218.512 158.388 217.812 159.27 217.322C160.166 216.832 161.188 216.587 162.336 216.587C163.806 216.587 165.031 216.972 166.011 217.742C167.005 218.512 167.656 219.597 167.964 220.997H164.142C163.82 220.101 163.197 219.653 162.273 219.653C161.615 219.653 161.09 219.912 160.698 220.43C160.306 220.934 160.11 221.662 160.11 222.614C160.11 223.566 160.306 224.301 160.698 224.819C161.09 225.323 161.615 225.575 162.273 225.575C163.197 225.575 163.82 225.127 164.142 224.231H167.964C167.656 225.603 167.005 226.681 166.011 227.465C165.017 228.249 163.792 228.641 162.336 228.641C161.188 228.641 160.166 228.396 159.27 227.906C158.388 227.416 157.695 226.716 157.191 225.806C156.701 224.896 156.456 223.832 156.456 222.614ZM176.416 225.428V228.473H174.589C173.287 228.473 172.272 228.158 171.544 227.528C170.816 226.884 170.452 225.841 170.452 224.399V219.737H169.024V216.755H170.452V213.899H174.043V216.755H176.395V219.737H174.043V224.441C174.043 224.791 174.127 225.043 174.295 225.197C174.463 225.351 174.743 225.428 175.135 225.428H176.416ZM180.222 215.537C179.592 215.537 179.074 215.355 178.668 214.991C178.276 214.613 178.08 214.151 178.08 213.605C178.08 213.045 178.276 212.583 178.668 212.219C179.074 211.841 179.592 211.652 180.222 211.652C180.838 211.652 181.342 211.841 181.734 212.219C182.14 212.583 182.343 213.045 182.343 213.605C182.343 214.151 182.14 214.613 181.734 214.991C181.342 215.355 180.838 215.537 180.222 215.537ZM182.007 216.755V228.473H178.416V216.755H182.007ZM189.944 228.641C188.796 228.641 187.76 228.396 186.836 227.906C185.926 227.416 185.205 226.716 184.673 225.806C184.155 224.896 183.896 223.832 183.896 222.614C183.896 221.41 184.162 220.353 184.694 219.443C185.226 218.519 185.954 217.812 186.878 217.322C187.802 216.832 188.838 216.587 189.986 216.587C191.134 216.587 192.17 216.832 193.094 217.322C194.018 217.812 194.746 218.519 195.278 219.443C195.81 220.353 196.076 221.41 196.076 222.614C196.076 223.818 195.803 224.882 195.257 225.806C194.725 226.716 193.99 227.416 193.052 227.906C192.128 228.396 191.092 228.641 189.944 228.641ZM189.944 225.533C190.63 225.533 191.211 225.281 191.687 224.777C192.177 224.273 192.422 223.552 192.422 222.614C192.422 221.676 192.184 220.955 191.708 220.451C191.246 219.947 190.672 219.695 189.986 219.695C189.286 219.695 188.705 219.947 188.243 220.451C187.781 220.941 187.55 221.662 187.55 222.614C187.55 223.552 187.774 224.273 188.222 224.777C188.684 225.281 189.258 225.533 189.944 225.533ZM205.121 216.629C206.493 216.629 207.585 217.077 208.397 217.973C209.223 218.855 209.636 220.073 209.636 221.627V228.473H206.066V222.11C206.066 221.326 205.863 220.717 205.457 220.283C205.051 219.849 204.505 219.632 203.819 219.632C203.133 219.632 202.587 219.849 202.181 220.283C201.775 220.717 201.572 221.326 201.572 222.11V228.473H197.981V216.755H201.572V218.309C201.936 217.791 202.426 217.385 203.042 217.091C203.658 216.783 204.351 216.629 205.121 216.629Z" fill="#EC426B"/>
<path d="M215.867 222.593C215.867 221.389 216.091 220.332 216.539 219.422C217.001 218.512 217.624 217.812 218.408 217.322C219.192 216.832 220.067 216.587 221.033 216.587C221.859 216.587 222.58 216.755 223.196 217.091C223.826 217.427 224.309 217.868 224.645 218.414V216.755H228.236V228.473H224.645V226.814C224.295 227.36 223.805 227.801 223.175 228.137C222.559 228.473 221.838 228.641 221.012 228.641C220.06 228.641 219.192 228.396 218.408 227.906C217.624 227.402 217.001 226.695 216.539 225.785C216.091 224.861 215.867 223.797 215.867 222.593ZM224.645 222.614C224.645 221.718 224.393 221.011 223.889 220.493C223.399 219.975 222.797 219.716 222.083 219.716C221.369 219.716 220.76 219.975 220.256 220.493C219.766 220.997 219.521 221.697 219.521 222.593C219.521 223.489 219.766 224.203 220.256 224.735C220.76 225.253 221.369 225.512 222.083 225.512C222.797 225.512 223.399 225.253 223.889 224.735C224.393 224.217 224.645 223.51 224.645 222.614ZM235.937 225.575C236.861 225.575 237.484 225.127 237.806 224.231H241.628C241.362 225.421 240.83 226.394 240.032 227.15C239.234 227.906 238.24 228.375 237.05 228.557V229.334C237.778 229.334 238.415 229.53 238.961 229.922C239.507 230.328 239.78 230.93 239.78 231.728C239.78 232.526 239.493 233.128 238.919 233.534C238.345 233.954 237.659 234.164 236.861 234.164H233.627V232.19H236.378C236.658 232.19 236.868 232.148 237.008 232.064C237.148 231.98 237.218 231.84 237.218 231.644C237.218 231.448 237.148 231.308 237.008 231.224C236.868 231.154 236.658 231.119 236.378 231.119H234.887V228.557C233.445 228.333 232.29 227.696 231.422 226.646C230.554 225.582 230.12 224.238 230.12 222.614C230.12 221.396 230.365 220.332 230.855 219.422C231.359 218.512 232.052 217.812 232.934 217.322C233.83 216.832 234.852 216.587 236 216.587C237.47 216.587 238.695 216.972 239.675 217.742C240.669 218.512 241.32 219.597 241.628 220.997H237.806C237.484 220.101 236.861 219.653 235.937 219.653C235.279 219.653 234.754 219.912 234.362 220.43C233.97 220.934 233.774 221.662 233.774 222.614C233.774 223.566 233.97 224.301 234.362 224.819C234.754 225.323 235.279 225.575 235.937 225.575ZM242.835 222.593C242.835 221.389 243.059 220.332 243.507 219.422C243.969 218.512 244.592 217.812 245.376 217.322C246.16 216.832 247.035 216.587 248.001 216.587C248.827 216.587 249.548 216.755 250.164 217.091C250.794 217.427 251.277 217.868 251.613 218.414V216.755H255.204V228.473H251.613V226.814C251.263 227.36 250.773 227.801 250.143 228.137C249.527 228.473 248.806 228.641 247.98 228.641C247.028 228.641 246.16 228.396 245.376 227.906C244.592 227.402 243.969 226.695 243.507 225.785C243.059 224.861 242.835 223.797 242.835 222.593ZM251.613 222.614C251.613 221.718 251.361 221.011 250.857 220.493C250.367 219.975 249.765 219.716 249.051 219.716C248.337 219.716 247.728 219.975 247.224 220.493C246.734 220.997 246.489 221.697 246.489 222.593C246.489 223.489 246.734 224.203 247.224 224.735C247.728 225.253 248.337 225.512 249.051 225.512C249.765 225.512 250.367 225.253 250.857 224.735C251.361 224.217 251.613 223.51 251.613 222.614ZM245.25 215.768C245.586 213.696 246.552 212.66 248.148 212.66C248.456 212.66 248.722 212.709 248.946 212.807C249.184 212.891 249.471 213.024 249.807 213.206C250.059 213.346 250.262 213.451 250.416 213.521C250.57 213.577 250.731 213.605 250.899 213.605C251.417 213.605 251.718 213.29 251.802 212.66H253.65C253.314 214.732 252.348 215.768 250.752 215.768C250.444 215.768 250.171 215.726 249.933 215.642C249.709 215.544 249.429 215.404 249.093 215.222C248.841 215.082 248.638 214.984 248.484 214.928C248.33 214.858 248.169 214.823 248.001 214.823C247.483 214.823 247.175 215.138 247.077 215.768H245.25ZM263.136 228.641C261.988 228.641 260.952 228.396 260.028 227.906C259.118 227.416 258.397 226.716 257.865 225.806C257.347 224.896 257.088 223.832 257.088 222.614C257.088 221.41 257.354 220.353 257.886 219.443C258.418 218.519 259.146 217.812 260.07 217.322C260.994 216.832 262.03 216.587 263.178 216.587C264.326 216.587 265.362 216.832 266.286 217.322C267.21 217.812 267.938 218.519 268.47 219.443C269.002 220.353 269.268 221.41 269.268 222.614C269.268 223.818 268.995 224.882 268.449 225.806C267.917 226.716 267.182 227.416 266.244 227.906C265.32 228.396 264.284 228.641 263.136 228.641ZM263.136 225.533C263.822 225.533 264.403 225.281 264.879 224.777C265.369 224.273 265.614 223.552 265.614 222.614C265.614 221.676 265.376 220.955 264.9 220.451C264.438 219.947 263.864 219.695 263.178 219.695C262.478 219.695 261.897 219.947 261.435 220.451C260.973 220.941 260.742 221.662 260.742 222.614C260.742 223.552 260.966 224.273 261.414 224.777C261.876 225.281 262.45 225.533 263.136 225.533ZM276.003 232.862C274.645 231.56 273.588 229.88 272.832 227.822C272.076 225.764 271.698 223.545 271.698 221.165C271.698 218.757 272.09 216.51 272.874 214.424C273.658 212.324 274.771 210.616 276.213 209.3H279.741V209.636C278.271 211.092 277.137 212.842 276.339 214.886C275.541 216.916 275.142 219.009 275.142 221.165C275.142 223.307 275.527 225.372 276.297 227.36C277.067 229.348 278.152 231.07 279.552 232.526V232.862H276.003ZM354.187 232.862V232.526C355.587 231.07 356.672 229.348 357.442 227.36C358.212 225.372 358.597 223.307 358.597 221.165C358.597 219.009 358.198 216.916 357.4 214.886C356.602 212.842 355.468 211.092 353.998 209.636V209.3H357.526C358.968 210.616 360.081 212.324 360.865 214.424C361.649 216.51 362.041 218.757 362.041 221.165C362.041 223.545 361.663 225.764 360.907 227.822C360.151 229.88 359.094 231.56 357.736 232.862H354.187ZM120.588 478.593C120.588 477.389 120.812 476.332 121.26 475.422C121.722 474.512 122.345 473.812 123.129 473.322C123.913 472.832 124.788 472.587 125.754 472.587C126.58 472.587 127.301 472.755 127.917 473.091C128.547 473.427 129.03 473.868 129.366 474.414V472.755H132.957V484.473H129.366V482.814C129.016 483.36 128.526 483.801 127.896 484.137C127.28 484.473 126.559 484.641 125.733 484.641C124.781 484.641 123.913 484.396 123.129 483.906C122.345 483.402 121.722 482.695 121.26 481.785C120.812 480.861 120.588 479.797 120.588 478.593ZM129.366 478.614C129.366 477.718 129.114 477.011 128.61 476.493C128.12 475.975 127.518 475.716 126.804 475.716C126.09 475.716 125.481 475.975 124.977 476.493C124.487 476.997 124.242 477.697 124.242 478.593C124.242 479.489 124.487 480.203 124.977 480.735C125.481 481.253 126.09 481.512 126.804 481.512C127.518 481.512 128.12 481.253 128.61 480.735C129.114 480.217 129.366 479.51 129.366 478.614ZM140.658 481.575C141.582 481.575 142.205 481.127 142.527 480.231H146.349C146.083 481.421 145.551 482.394 144.753 483.15C143.955 483.906 142.961 484.375 141.771 484.557V485.334C142.499 485.334 143.136 485.53 143.682 485.922C144.228 486.328 144.501 486.93 144.501 487.728C144.501 488.526 144.214 489.128 143.64 489.534C143.066 489.954 142.38 490.164 141.582 490.164H138.348V488.19H141.099C141.379 488.19 141.589 488.148 141.729 488.064C141.869 487.98 141.939 487.84 141.939 487.644C141.939 487.448 141.869 487.308 141.729 487.224C141.589 487.154 141.379 487.119 141.099 487.119H139.608V484.557C138.166 484.333 137.011 483.696 136.143 482.646C135.275 481.582 134.841 480.238 134.841 478.614C134.841 477.396 135.086 476.332 135.576 475.422C136.08 474.512 136.773 473.812 137.655 473.322C138.551 472.832 139.573 472.587 140.721 472.587C142.191 472.587 143.416 472.972 144.396 473.742C145.39 474.512 146.041 475.597 146.349 476.997H142.527C142.205 476.101 141.582 475.653 140.658 475.653C140 475.653 139.475 475.912 139.083 476.43C138.691 476.934 138.495 477.662 138.495 478.614C138.495 479.566 138.691 480.301 139.083 480.819C139.475 481.323 140 481.575 140.658 481.575ZM147.556 478.593C147.556 477.389 147.78 476.332 148.228 475.422C148.69 474.512 149.313 473.812 150.097 473.322C150.881 472.832 151.756 472.587 152.722 472.587C153.548 472.587 154.269 472.755 154.885 473.091C155.515 473.427 155.998 473.868 156.334 474.414V472.755H159.925V484.473H156.334V482.814C155.984 483.36 155.494 483.801 154.864 484.137C154.248 484.473 153.527 484.641 152.701 484.641C151.749 484.641 150.881 484.396 150.097 483.906C149.313 483.402 148.69 482.695 148.228 481.785C147.78 480.861 147.556 479.797 147.556 478.593ZM156.334 478.614C156.334 477.718 156.082 477.011 155.578 476.493C155.088 475.975 154.486 475.716 153.772 475.716C153.058 475.716 152.449 475.975 151.945 476.493C151.455 476.997 151.21 477.697 151.21 478.593C151.21 479.489 151.455 480.203 151.945 480.735C152.449 481.253 153.058 481.512 153.772 481.512C154.486 481.512 155.088 481.253 155.578 480.735C156.082 480.217 156.334 479.51 156.334 478.614ZM149.971 471.768C150.307 469.696 151.273 468.66 152.869 468.66C153.177 468.66 153.443 468.709 153.667 468.807C153.905 468.891 154.192 469.024 154.528 469.206C154.78 469.346 154.983 469.451 155.137 469.521C155.291 469.577 155.452 469.605 155.62 469.605C156.138 469.605 156.439 469.29 156.523 468.66H158.371C158.035 470.732 157.069 471.768 155.473 471.768C155.165 471.768 154.892 471.726 154.654 471.642C154.43 471.544 154.15 471.404 153.814 471.222C153.562 471.082 153.359 470.984 153.205 470.928C153.051 470.858 152.89 470.823 152.722 470.823C152.204 470.823 151.896 471.138 151.798 471.768H149.971ZM167.857 484.641C166.709 484.641 165.673 484.396 164.749 483.906C163.839 483.416 163.118 482.716 162.586 481.806C162.068 480.896 161.809 479.832 161.809 478.614C161.809 477.41 162.075 476.353 162.607 475.443C163.139 474.519 163.867 473.812 164.791 473.322C165.715 472.832 166.751 472.587 167.899 472.587C169.047 472.587 170.083 472.832 171.007 473.322C171.931 473.812 172.659 474.519 173.191 475.443C173.723 476.353 173.989 477.41 173.989 478.614C173.989 479.818 173.716 480.882 173.17 481.806C172.638 482.716 171.903 483.416 170.965 483.906C170.041 484.396 169.005 484.641 167.857 484.641ZM167.857 481.533C168.543 481.533 169.124 481.281 169.6 480.777C170.09 480.273 170.335 479.552 170.335 478.614C170.335 477.676 170.097 476.955 169.621 476.451C169.159 475.947 168.585 475.695 167.899 475.695C167.199 475.695 166.618 475.947 166.156 476.451C165.694 476.941 165.463 477.662 165.463 478.614C165.463 479.552 165.687 480.273 166.135 480.777C166.597 481.281 167.171 481.533 167.857 481.533ZM180.724 488.862C179.366 487.56 178.309 485.88 177.553 483.822C176.797 481.764 176.419 479.545 176.419 477.165C176.419 474.757 176.811 472.51 177.595 470.424C178.379 468.324 179.492 466.616 180.934 465.3H184.462V465.636C182.992 467.092 181.858 468.842 181.06 470.886C180.262 472.916 179.863 475.009 179.863 477.165C179.863 479.307 180.248 481.372 181.018 483.36C181.788 485.348 182.873 487.07 184.273 488.526V488.862H180.724ZM198.594 488.862V488.526C199.994 487.07 201.079 485.348 201.849 483.36C202.619 481.372 203.004 479.307 203.004 477.165C203.004 475.009 202.605 472.916 201.807 470.886C201.009 468.842 199.875 467.092 198.405 465.636V465.3H201.933C203.375 466.616 204.488 468.324 205.272 470.424C206.056 472.51 206.448 474.757 206.448 477.165C206.448 479.545 206.07 481.764 205.314 483.822C204.558 485.88 203.501 487.56 202.143 488.862H198.594Z" fill="white"/>
<path d="M284.772 218.414C285.122 217.868 285.605 217.427 286.221 217.091C286.837 216.755 287.558 216.587 288.384 216.587C289.35 216.587 290.225 216.832 291.009 217.322C291.793 217.812 292.409 218.512 292.857 219.422C293.319 220.332 293.55 221.389 293.55 222.593C293.55 223.797 293.319 224.861 292.857 225.785C292.409 226.695 291.793 227.402 291.009 227.906C290.225 228.396 289.35 228.641 288.384 228.641C287.572 228.641 286.851 228.473 286.221 228.137C285.605 227.801 285.122 227.367 284.772 226.835V234.059H281.181V216.755H284.772V218.414ZM289.896 222.593C289.896 221.697 289.644 220.997 289.14 220.493C288.65 219.975 288.041 219.716 287.313 219.716C286.599 219.716 285.99 219.975 285.486 220.493C284.996 221.011 284.751 221.718 284.751 222.614C284.751 223.51 284.996 224.217 285.486 224.735C285.99 225.253 286.599 225.512 287.313 225.512C288.027 225.512 288.636 225.253 289.14 224.735C289.644 224.203 289.896 223.489 289.896 222.593ZM294.72 222.593C294.72 221.389 294.944 220.332 295.392 219.422C295.854 218.512 296.477 217.812 297.261 217.322C298.045 216.832 298.92 216.587 299.886 216.587C300.712 216.587 301.433 216.755 302.049 217.091C302.679 217.427 303.162 217.868 303.498 218.414V216.755H307.089V228.473H303.498V226.814C303.148 227.36 302.658 227.801 302.028 228.137C301.412 228.473 300.691 228.641 299.865 228.641C298.913 228.641 298.045 228.396 297.261 227.906C296.477 227.402 295.854 226.695 295.392 225.785C294.944 224.861 294.72 223.797 294.72 222.593ZM303.498 222.614C303.498 221.718 303.246 221.011 302.742 220.493C302.252 219.975 301.65 219.716 300.936 219.716C300.222 219.716 299.613 219.975 299.109 220.493C298.619 220.997 298.374 221.697 298.374 222.593C298.374 223.489 298.619 224.203 299.109 224.735C299.613 225.253 300.222 225.512 300.936 225.512C301.65 225.512 302.252 225.253 302.742 224.735C303.246 224.217 303.498 223.51 303.498 222.614ZM313.278 218.708C313.698 218.064 314.223 217.56 314.853 217.196C315.483 216.818 316.183 216.629 316.953 216.629V220.43H315.966C315.07 220.43 314.398 220.626 313.95 221.018C313.502 221.396 313.278 222.068 313.278 223.034V228.473H309.687V216.755H313.278V218.708ZM317.955 222.593C317.955 221.389 318.179 220.332 318.627 219.422C319.089 218.512 319.712 217.812 320.496 217.322C321.28 216.832 322.155 216.587 323.121 216.587C323.947 216.587 324.668 216.755 325.284 217.091C325.914 217.427 326.397 217.868 326.733 218.414V216.755H330.324V228.473H326.733V226.814C326.383 227.36 325.893 227.801 325.263 228.137C324.647 228.473 323.926 228.641 323.1 228.641C322.148 228.641 321.28 228.396 320.496 227.906C319.712 227.402 319.089 226.695 318.627 225.785C318.179 224.861 317.955 223.797 317.955 222.593ZM326.733 222.614C326.733 221.718 326.481 221.011 325.977 220.493C325.487 219.975 324.885 219.716 324.171 219.716C323.457 219.716 322.848 219.975 322.344 220.493C321.854 220.997 321.609 221.697 321.609 222.593C321.609 223.489 321.854 224.203 322.344 224.735C322.848 225.253 323.457 225.512 324.171 225.512C324.885 225.512 325.487 225.253 325.977 224.735C326.481 224.217 326.733 223.51 326.733 222.614ZM347.874 216.629C349.33 216.629 350.485 217.07 351.339 217.952C352.207 218.834 352.641 220.059 352.641 221.627V228.473H349.071V222.11C349.071 221.354 348.868 220.773 348.462 220.367C348.07 219.947 347.524 219.737 346.824 219.737C346.124 219.737 345.571 219.947 345.165 220.367C344.773 220.773 344.577 221.354 344.577 222.11V228.473H341.007V222.11C341.007 221.354 340.804 220.773 340.398 220.367C340.006 219.947 339.46 219.737 338.76 219.737C338.06 219.737 337.507 219.947 337.101 220.367C336.709 220.773 336.513 221.354 336.513 222.11V228.473H332.922V216.755H336.513V218.225C336.877 217.735 337.353 217.35 337.941 217.07C338.529 216.776 339.194 216.629 339.936 216.629C340.818 216.629 341.602 216.818 342.288 217.196C342.988 217.574 343.534 218.113 343.926 218.813C344.332 218.169 344.885 217.644 345.585 217.238C346.285 216.832 347.048 216.629 347.874 216.629Z" fill="#8D8686"/>
<path d="M370.22 219.653C370.906 219.625 371.41 219.478 371.732 219.212C372.054 218.932 372.215 218.54 372.215 218.036C372.215 217.658 372.145 216.909 372.005 215.789C371.991 215.677 371.949 215.32 371.879 214.718C371.809 214.102 371.774 213.549 371.774 213.059C371.774 211.869 372.138 210.945 372.866 210.287C373.594 209.615 374.567 209.279 375.785 209.279H377.297V212.219H376.478C376.03 212.219 375.708 212.317 375.512 212.513C375.316 212.709 375.218 213.01 375.218 213.416C375.218 213.724 375.274 214.424 375.386 215.516C375.512 216.874 375.575 217.763 375.575 218.183C375.575 218.953 375.386 219.59 375.008 220.094C374.644 220.598 374.084 220.92 373.328 221.06V221.102C374.084 221.256 374.644 221.585 375.008 222.089C375.386 222.579 375.575 223.216 375.575 224C375.575 224.42 375.512 225.309 375.386 226.667C375.274 227.731 375.218 228.424 375.218 228.746C375.218 229.152 375.316 229.453 375.512 229.649C375.708 229.859 376.03 229.964 376.478 229.964H377.297V232.904H375.785C374.567 232.904 373.594 232.568 372.866 231.896C372.138 231.238 371.774 230.307 371.774 229.103C371.774 228.613 371.809 228.067 371.879 227.465C371.949 226.849 371.991 226.485 372.005 226.373C372.145 225.253 372.215 224.504 372.215 224.126C372.215 223.65 372.054 223.272 371.732 222.992C371.41 222.698 370.906 222.537 370.22 222.509V219.653ZM128.568 382.509C127.882 382.537 127.378 382.698 127.056 382.992C126.734 383.272 126.573 383.65 126.573 384.126C126.573 384.504 126.643 385.253 126.783 386.373C126.797 386.485 126.839 386.849 126.909 387.465C126.979 388.067 127.014 388.613 127.014 389.103C127.014 390.307 126.65 391.238 125.922 391.896C125.194 392.568 124.221 392.904 123.003 392.904H121.491V389.964H122.31C122.758 389.964 123.08 389.859 123.276 389.649C123.472 389.453 123.57 389.152 123.57 388.746C123.57 388.424 123.514 387.731 123.402 386.667C123.276 385.309 123.213 384.42 123.213 384C123.213 383.216 123.395 382.579 123.759 382.089C124.137 381.585 124.704 381.256 125.46 381.102V381.06C124.704 380.92 124.137 380.598 123.759 380.094C123.395 379.59 123.213 378.953 123.213 378.183C123.213 377.763 123.276 376.874 123.402 375.516C123.514 374.424 123.57 373.724 123.57 373.416C123.57 373.01 123.472 372.709 123.276 372.513C123.08 372.317 122.758 372.219 122.31 372.219H121.491V369.279H123.003C124.221 369.279 125.194 369.615 125.922 370.287C126.65 370.945 127.014 371.869 127.014 373.059C127.014 373.549 126.979 374.102 126.909 374.718C126.839 375.32 126.797 375.677 126.783 375.789C126.643 376.909 126.573 377.658 126.573 378.036C126.573 378.54 126.734 378.932 127.056 379.212C127.378 379.478 127.882 379.625 128.568 379.653V382.509ZM196.339 472.272H189.787V475.17C190.067 474.862 190.459 474.61 190.963 474.414C191.467 474.218 192.013 474.12 192.601 474.12C193.651 474.12 194.519 474.358 195.205 474.834C195.905 475.31 196.416 475.926 196.738 476.682C197.06 477.438 197.221 478.257 197.221 479.139C197.221 480.777 196.759 482.079 195.835 483.045C194.911 483.997 193.609 484.473 191.929 484.473C190.809 484.473 189.836 484.284 189.01 483.906C188.184 483.514 187.547 482.975 187.099 482.289C186.651 481.603 186.406 480.812 186.364 479.916H189.871C189.955 480.35 190.158 480.714 190.48 481.008C190.802 481.288 191.243 481.428 191.803 481.428C192.461 481.428 192.951 481.218 193.273 480.798C193.595 480.378 193.756 479.818 193.756 479.118C193.756 478.432 193.588 477.907 193.252 477.543C192.916 477.179 192.426 476.997 191.782 476.997C191.306 476.997 190.914 477.116 190.606 477.354C190.298 477.578 190.095 477.879 189.997 478.257H186.532V469.122H196.339V472.272Z" fill="#FEE50A"/>
<rect x="189" y="240.473" width="128" height="83" rx="13" fill="#8D8686" fill-opacity="0.74"/>
<path d="M204.893 303.467C205.313 302.823 205.838 302.319 206.468 301.955C207.098 301.577 207.798 301.388 208.568 301.388V305.189H207.581C206.685 305.189 206.013 305.385 205.565 305.777C205.117 306.155 204.893 306.827 204.893 307.793V313.232H201.302V301.514H204.893V303.467ZM221.33 307.184C221.33 307.52 221.309 307.87 221.267 308.234H213.14C213.196 308.962 213.427 309.522 213.833 309.914C214.253 310.292 214.764 310.481 215.366 310.481C216.262 310.481 216.885 310.103 217.235 309.347H221.057C220.861 310.117 220.504 310.81 219.986 311.426C219.482 312.042 218.845 312.525 218.075 312.875C217.305 313.225 216.444 313.4 215.492 313.4C214.344 313.4 213.322 313.155 212.426 312.665C211.53 312.175 210.83 311.475 210.326 310.565C209.822 309.655 209.57 308.591 209.57 307.373C209.57 306.155 209.815 305.091 210.305 304.181C210.809 303.271 211.509 302.571 212.405 302.081C213.301 301.591 214.33 301.346 215.492 301.346C216.626 301.346 217.634 301.584 218.516 302.06C219.398 302.536 220.084 303.215 220.574 304.097C221.078 304.979 221.33 306.008 221.33 307.184ZM217.655 306.239C217.655 305.623 217.445 305.133 217.025 304.769C216.605 304.405 216.08 304.223 215.45 304.223C214.848 304.223 214.337 304.398 213.917 304.748C213.511 305.098 213.259 305.595 213.161 306.239H217.655ZM229.756 310.187V313.232H227.929C226.627 313.232 225.612 312.917 224.884 312.287C224.156 311.643 223.792 310.6 223.792 309.158V304.496H222.364V301.514H223.792V298.658H227.383V301.514H229.735V304.496H227.383V309.2C227.383 309.55 227.467 309.802 227.635 309.956C227.803 310.11 228.083 310.187 228.475 310.187H229.756ZM243.327 301.514V313.232H239.736V311.636C239.372 312.154 238.875 312.574 238.245 312.896C237.629 313.204 236.943 313.358 236.187 313.358C235.291 313.358 234.5 313.162 233.814 312.77C233.128 312.364 232.596 311.783 232.218 311.027C231.84 310.271 231.651 309.382 231.651 308.36V301.514H235.221V307.877C235.221 308.661 235.424 309.27 235.83 309.704C236.236 310.138 236.782 310.355 237.468 310.355C238.168 310.355 238.721 310.138 239.127 309.704C239.533 309.27 239.736 308.661 239.736 307.877V301.514H243.327ZM249.497 303.467C249.917 302.823 250.442 302.319 251.072 301.955C251.702 301.577 252.402 301.388 253.172 301.388V305.189H252.185C251.289 305.189 250.617 305.385 250.169 305.777C249.721 306.155 249.497 306.827 249.497 307.793V313.232H245.906V301.514H249.497V303.467ZM262.029 301.388C263.401 301.388 264.493 301.836 265.305 302.732C266.131 303.614 266.544 304.832 266.544 306.386V313.232H262.974V306.869C262.974 306.085 262.771 305.476 262.365 305.042C261.959 304.608 261.413 304.391 260.727 304.391C260.041 304.391 259.495 304.608 259.089 305.042C258.683 305.476 258.48 306.085 258.48 306.869V313.232H254.889V301.514H258.48V303.068C258.844 302.55 259.334 302.144 259.95 301.85C260.566 301.542 261.259 301.388 262.029 301.388Z" fill="#EC426B"/>
<path d="M277.081 303.467C277.501 302.823 278.026 302.319 278.656 301.955C279.286 301.577 279.986 301.388 280.756 301.388V305.189H279.769C278.873 305.189 278.201 305.385 277.753 305.777C277.305 306.155 277.081 306.827 277.081 307.793V313.232H273.49V301.514H277.081V303.467ZM293.518 307.184C293.518 307.52 293.497 307.87 293.455 308.234H285.328C285.384 308.962 285.615 309.522 286.021 309.914C286.441 310.292 286.952 310.481 287.554 310.481C288.45 310.481 289.073 310.103 289.423 309.347H293.245C293.049 310.117 292.692 310.81 292.174 311.426C291.67 312.042 291.033 312.525 290.263 312.875C289.493 313.225 288.632 313.4 287.68 313.4C286.532 313.4 285.51 313.155 284.614 312.665C283.718 312.175 283.018 311.475 282.514 310.565C282.01 309.655 281.758 308.591 281.758 307.373C281.758 306.155 282.003 305.091 282.493 304.181C282.997 303.271 283.697 302.571 284.593 302.081C285.489 301.591 286.518 301.346 287.68 301.346C288.814 301.346 289.822 301.584 290.704 302.06C291.586 302.536 292.272 303.215 292.762 304.097C293.266 304.979 293.518 306.008 293.518 307.184ZM289.843 306.239C289.843 305.623 289.633 305.133 289.213 304.769C288.793 304.405 288.268 304.223 287.638 304.223C287.036 304.223 286.525 304.398 286.105 304.748C285.699 305.098 285.447 305.595 285.349 306.239H289.843ZM300.179 313.4C299.157 313.4 298.247 313.225 297.449 312.875C296.651 312.525 296.021 312.049 295.559 311.447C295.097 310.831 294.838 310.145 294.782 309.389H298.331C298.373 309.795 298.562 310.124 298.898 310.376C299.234 310.628 299.647 310.754 300.137 310.754C300.585 310.754 300.928 310.67 301.166 310.502C301.418 310.32 301.544 310.089 301.544 309.809C301.544 309.473 301.369 309.228 301.019 309.074C300.669 308.906 300.102 308.724 299.318 308.528C298.478 308.332 297.778 308.129 297.218 307.919C296.658 307.695 296.175 307.352 295.769 306.89C295.363 306.414 295.16 305.777 295.16 304.979C295.16 304.307 295.342 303.698 295.706 303.152C296.084 302.592 296.63 302.151 297.344 301.829C298.072 301.507 298.933 301.346 299.927 301.346C301.397 301.346 302.552 301.71 303.392 302.438C304.246 303.166 304.736 304.132 304.862 305.336H301.544C301.488 304.93 301.306 304.608 300.998 304.37C300.704 304.132 300.312 304.013 299.822 304.013C299.402 304.013 299.08 304.097 298.856 304.265C298.632 304.419 298.52 304.636 298.52 304.916C298.52 305.252 298.695 305.504 299.045 305.672C299.409 305.84 299.969 306.008 300.725 306.176C301.593 306.4 302.3 306.624 302.846 306.848C303.392 307.058 303.868 307.408 304.274 307.898C304.694 308.374 304.911 309.018 304.925 309.83C304.925 310.516 304.729 311.132 304.337 311.678C303.959 312.21 303.406 312.63 302.678 312.938C301.964 313.246 301.131 313.4 300.179 313.4Z" fill="white"/>
<path d="M383.907 298.468C384.457 298.52 384.944 298.116 384.996 297.566L385.832 288.605C385.883 288.055 385.479 287.567 384.929 287.516C384.379 287.465 383.892 287.869 383.841 288.419L383.097 296.384L375.132 295.641C374.582 295.589 374.095 295.994 374.043 296.543C373.992 297.093 374.396 297.581 374.946 297.632L383.907 298.468ZM373.055 284.275L373.825 283.636L373.055 284.275ZM292.086 262.469L294.838 262.232L294.666 260.239L291.914 260.476L292.086 262.469ZM300.342 261.757L305.846 261.283L305.674 259.29L300.17 259.765L300.342 261.757ZM311.35 260.808L314.102 260.571L313.93 258.579L311.178 258.816L311.35 260.808ZM314.102 260.571C315.012 260.493 315.921 260.433 316.829 260.391L316.737 258.393C315.803 258.436 314.867 258.498 313.93 258.579L314.102 260.571ZM322.292 260.36C324.119 260.423 325.937 260.559 327.741 260.768L327.97 258.781C326.113 258.566 324.242 258.426 322.361 258.361L322.292 260.36ZM333.139 261.612C334.929 261.966 336.701 262.392 338.451 262.887L338.996 260.963C337.194 260.453 335.37 260.015 333.527 259.65L333.139 261.612ZM343.645 264.585C345.353 265.22 347.034 265.923 348.685 266.693L349.531 264.881C347.831 264.088 346.1 263.364 344.342 262.71L343.645 264.585ZM353.541 269.2C355.122 270.098 356.67 271.062 358.179 272.088L359.303 270.434C357.75 269.377 356.157 268.386 354.529 267.461L353.541 269.2ZM362.57 275.338C363.985 276.477 365.358 277.676 366.686 278.932L368.061 277.48C366.694 276.186 365.28 274.952 363.823 273.78L362.57 275.338ZM370.499 282.844C371.107 283.52 371.702 284.21 372.286 284.913L373.825 283.636C373.225 282.913 372.612 282.203 371.986 281.507L370.499 282.844ZM372.286 284.913L375.022 288.213L376.561 286.936L373.825 283.636L372.286 284.913ZM380.494 294.812L383.23 298.111L384.77 296.834L382.034 293.535L380.494 294.812Z" fill="#06D0FD"/>
<path d="M240.293 347.766C239.902 348.156 239.902 348.789 240.293 349.18L246.657 355.544C247.047 355.934 247.681 355.934 248.071 355.544C248.462 355.153 248.462 354.52 248.071 354.13L242.414 348.473L248.071 342.816C248.462 342.425 248.462 341.792 248.071 341.402C247.681 341.011 247.047 341.011 246.657 341.402L240.293 347.766ZM267 348.473L267 349.473L267 348.473ZM299.024 308.253L298.091 312.4L300.043 312.839L300.976 308.692L299.024 308.253ZM296.226 320.692L295.293 324.839L297.244 325.278L298.177 321.131L296.226 320.692ZM295.293 324.839C295.052 325.911 294.753 326.957 294.4 327.976L296.29 328.63C296.667 327.541 296.986 326.423 297.244 325.278L295.293 324.839ZM291.593 333.847C290.433 335.702 289.072 337.409 287.544 338.942L288.96 340.354C290.594 338.716 292.049 336.891 293.289 334.907L291.593 333.847ZM282.46 343.009C280.629 344.163 278.665 345.116 276.6 345.841L277.263 347.728C279.47 346.953 281.57 345.935 283.527 344.7L282.46 343.009ZM270.256 347.291C269.185 347.411 268.099 347.473 267 347.473L267 349.473C268.174 349.473 269.335 349.407 270.48 349.278L270.256 347.291ZM267 347.473L263.75 347.473L263.75 349.473L267 349.473L267 347.473ZM257.25 347.473L250.75 347.473L250.75 349.473L257.25 349.473L257.25 347.473ZM244.25 347.473L241 347.473L241 349.473L244.25 349.473L244.25 347.473Z" fill="#06D0FD"/>
<path d="M288.293 165.766C287.902 166.156 287.902 166.789 288.293 167.18L294.657 173.544C295.047 173.934 295.681 173.934 296.071 173.544C296.462 173.153 296.462 172.52 296.071 172.13L290.414 166.473L296.071 160.816C296.462 160.425 296.462 159.792 296.071 159.402C295.681 159.011 295.047 159.011 294.657 159.402L288.293 165.766ZM297.091 166.473L297.091 165.473L297.091 166.473ZM336.987 216.631L337.135 215.711L335.16 215.395L335.013 216.315L336.987 216.631ZM337.429 213.871L337.576 212.95L335.601 212.634L335.454 213.555L337.429 213.871ZM337.576 212.95C337.733 211.969 337.854 210.991 337.94 210.017L335.948 209.841C335.866 210.768 335.751 211.699 335.601 212.634L337.576 212.95ZM338.037 204.114C337.926 202.125 337.67 200.168 337.279 198.256L335.32 198.656C335.691 200.474 335.934 202.334 336.04 204.226L338.037 204.114ZM335.679 192.571C335.007 190.71 334.202 188.908 333.276 187.178L331.512 188.121C332.393 189.768 333.159 191.482 333.799 193.251L335.679 192.571ZM330.124 182.185C328.956 180.598 327.675 179.096 326.293 177.692L324.868 179.095C326.183 180.432 327.402 181.861 328.513 183.37L330.124 182.185ZM321.861 173.791C320.298 172.604 318.646 171.524 316.915 170.566L315.946 172.315C317.593 173.227 319.164 174.253 320.651 175.384L321.861 173.791ZM311.554 168.088C309.728 167.4 307.836 166.838 305.889 166.414L305.464 168.368C307.315 168.771 309.113 169.305 310.85 169.96L311.554 168.088ZM300.045 165.577C299.07 165.508 298.085 165.473 297.091 165.473L297.091 167.473C298.038 167.473 298.976 167.506 299.904 167.572L300.045 165.577ZM297.091 165.473L295.068 165.473L295.068 167.473L297.091 167.473L297.091 165.473ZM291.023 165.473L289 165.473L289 167.473L291.023 167.473L291.023 165.473Z" fill="#06D0FD"/>
<path d="M262.439 493.941C262.454 493.389 262.019 492.929 261.467 492.914L252.47 492.667C251.918 492.652 251.458 493.087 251.443 493.639C251.428 494.192 251.863 494.651 252.415 494.666L260.412 494.886L260.193 502.883C260.178 503.435 260.613 503.895 261.165 503.91C261.717 503.925 262.177 503.49 262.192 502.938L262.439 493.941ZM172.749 488.774L171.853 489.217L172.749 488.774ZM167.511 480.444L168.597 482.637L170.389 481.75L169.304 479.556L167.511 480.444ZM170.767 487.024L171.853 489.217L173.645 488.33L172.56 486.137L170.767 487.024ZM171.853 489.217C172.297 490.115 172.763 490.992 173.249 491.85L174.989 490.863C174.521 490.038 174.073 489.194 173.645 488.33L171.853 489.217ZM176.483 496.853C177.67 498.475 178.938 500.006 180.278 501.446L181.742 500.083C180.455 498.7 179.237 497.23 178.096 495.672L176.483 496.853ZM184.59 505.558C186.117 506.849 187.709 508.041 189.358 509.131L190.461 507.462C188.877 506.415 187.348 505.271 185.882 504.031L184.59 505.558ZM194.513 512.117C196.292 513.013 198.118 513.802 199.98 514.482L200.666 512.603C198.876 511.95 197.122 511.192 195.412 510.331L194.513 512.117ZM205.684 516.197C207.616 516.658 209.574 517.008 211.547 517.244L211.784 515.258C209.888 515.031 208.006 514.695 206.148 514.252L205.684 516.197ZM217.492 517.608C219.474 517.614 221.46 517.506 223.439 517.281L223.213 515.294C221.312 515.51 219.403 515.614 217.498 515.608L217.492 517.608ZM229.309 516.262C231.233 515.81 233.139 515.244 235.018 514.56L234.334 512.68C232.53 513.337 230.699 513.881 228.851 514.315L229.309 516.262ZM240.487 512.194C242.243 511.307 243.963 510.309 245.637 509.198L244.532 507.532C242.923 508.599 241.271 509.557 239.585 510.408L240.487 512.194ZM250.402 505.623C251.155 504.987 251.896 504.324 252.623 503.636L251.248 502.184C250.548 502.846 249.836 503.483 249.112 504.095L250.402 505.623ZM252.623 503.636L254.999 501.387L253.624 499.935L251.248 502.184L252.623 503.636ZM259.751 496.889L262.127 494.64L260.752 493.187L258.376 495.436L259.751 496.889Z" fill="#06D0FD"/>
<path d="M197.728 163.336C197.995 162.92 198.363 162.584 198.832 162.328C199.301 162.072 199.851 161.944 200.48 161.944C201.216 161.944 201.883 162.131 202.48 162.504C203.077 162.877 203.547 163.411 203.888 164.104C204.24 164.797 204.416 165.603 204.416 166.52C204.416 167.437 204.24 168.248 203.888 168.952C203.547 169.645 203.077 170.184 202.48 170.568C201.883 170.941 201.216 171.128 200.48 171.128C199.861 171.128 199.312 171 198.832 170.744C198.363 170.488 197.995 170.157 197.728 169.752V175.256H194.992V162.072H197.728V163.336ZM201.632 166.52C201.632 165.837 201.44 165.304 201.056 164.92C200.683 164.525 200.219 164.328 199.664 164.328C199.12 164.328 198.656 164.525 198.272 164.92C197.899 165.315 197.712 165.853 197.712 166.536C197.712 167.219 197.899 167.757 198.272 168.152C198.656 168.547 199.12 168.744 199.664 168.744C200.208 168.744 200.672 168.547 201.056 168.152C201.44 167.747 201.632 167.203 201.632 166.52ZM205.307 166.52C205.307 165.603 205.478 164.797 205.819 164.104C206.171 163.411 206.646 162.877 207.243 162.504C207.841 162.131 208.507 161.944 209.243 161.944C209.873 161.944 210.422 162.072 210.891 162.328C211.371 162.584 211.739 162.92 211.995 163.336V162.072H214.731V171H211.995V169.736C211.729 170.152 211.355 170.488 210.875 170.744C210.406 171 209.857 171.128 209.227 171.128C208.502 171.128 207.841 170.941 207.243 170.568C206.646 170.184 206.171 169.645 205.819 168.952C205.478 168.248 205.307 167.437 205.307 166.52ZM211.995 166.536C211.995 165.853 211.803 165.315 211.419 164.92C211.046 164.525 210.587 164.328 210.043 164.328C209.499 164.328 209.035 164.525 208.651 164.92C208.278 165.304 208.091 165.837 208.091 166.52C208.091 167.203 208.278 167.747 208.651 168.152C209.035 168.547 209.499 168.744 210.043 168.744C210.587 168.744 211.046 168.547 211.419 168.152C211.803 167.757 211.995 167.219 211.995 166.536ZM219.447 163.56C219.767 163.069 220.167 162.685 220.647 162.408C221.127 162.12 221.66 161.976 222.247 161.976V164.872H221.495C220.812 164.872 220.3 165.021 219.959 165.32C219.617 165.608 219.447 166.12 219.447 166.856V171H216.711V162.072H219.447V163.56ZM223.011 166.52C223.011 165.603 223.181 164.797 223.523 164.104C223.875 163.411 224.349 162.877 224.947 162.504C225.544 162.131 226.211 161.944 226.947 161.944C227.576 161.944 228.125 162.072 228.595 162.328C229.075 162.584 229.443 162.92 229.699 163.336V162.072H232.435V171H229.699V169.736C229.432 170.152 229.059 170.488 228.579 170.744C228.109 171 227.56 171.128 226.931 171.128C226.205 171.128 225.544 170.941 224.947 170.568C224.349 170.184 223.875 169.645 223.523 168.952C223.181 168.248 223.011 167.437 223.011 166.52ZM229.699 166.536C229.699 165.853 229.507 165.315 229.123 164.92C228.749 164.525 228.291 164.328 227.747 164.328C227.203 164.328 226.739 164.525 226.355 164.92C225.981 165.304 225.795 165.837 225.795 166.52C225.795 167.203 225.981 167.747 226.355 168.152C226.739 168.547 227.203 168.744 227.747 168.744C228.291 168.744 228.749 168.547 229.123 168.152C229.507 167.757 229.699 167.219 229.699 166.536ZM228.051 160.152L225.571 161.464V159.576L228.051 158.312L230.531 159.576V161.464L228.051 160.152ZM245.806 161.976C246.915 161.976 247.795 162.312 248.446 162.984C249.107 163.656 249.438 164.589 249.438 165.784V171H246.718V166.152C246.718 165.576 246.563 165.133 246.254 164.824C245.955 164.504 245.539 164.344 245.006 164.344C244.473 164.344 244.051 164.504 243.742 164.824C243.443 165.133 243.294 165.576 243.294 166.152V171H240.574V166.152C240.574 165.576 240.419 165.133 240.11 164.824C239.811 164.504 239.395 164.344 238.862 164.344C238.329 164.344 237.907 164.504 237.598 164.824C237.299 165.133 237.15 165.576 237.15 166.152V171H234.414V162.072H237.15V163.192C237.427 162.819 237.79 162.525 238.238 162.312C238.686 162.088 239.193 161.976 239.758 161.976C240.43 161.976 241.027 162.12 241.55 162.408C242.083 162.696 242.499 163.107 242.798 163.64C243.107 163.149 243.529 162.749 244.062 162.44C244.595 162.131 245.177 161.976 245.806 161.976ZM259.767 166.392C259.767 166.648 259.751 166.915 259.719 167.192H253.527C253.57 167.747 253.746 168.173 254.055 168.472C254.375 168.76 254.765 168.904 255.223 168.904C255.906 168.904 256.381 168.616 256.647 168.04H259.559C259.41 168.627 259.138 169.155 258.743 169.624C258.359 170.093 257.874 170.461 257.287 170.728C256.701 170.995 256.045 171.128 255.319 171.128C254.445 171.128 253.666 170.941 252.983 170.568C252.301 170.195 251.767 169.661 251.383 168.968C250.999 168.275 250.807 167.464 250.807 166.536C250.807 165.608 250.994 164.797 251.367 164.104C251.751 163.411 252.285 162.877 252.967 162.504C253.65 162.131 254.434 161.944 255.319 161.944C256.183 161.944 256.951 162.125 257.623 162.488C258.295 162.851 258.818 163.368 259.191 164.04C259.575 164.712 259.767 165.496 259.767 166.392ZM256.967 165.672C256.967 165.203 256.807 164.829 256.487 164.552C256.167 164.275 255.767 164.136 255.287 164.136C254.829 164.136 254.439 164.269 254.119 164.536C253.81 164.803 253.618 165.181 253.543 165.672H256.967ZM266.187 168.68V171H264.795C263.803 171 263.029 170.76 262.475 170.28C261.92 169.789 261.643 168.995 261.643 167.896V164.344H260.555V162.072H261.643V159.896H264.379V162.072H266.171V164.344H264.379V167.928C264.379 168.195 264.443 168.387 264.571 168.504C264.699 168.621 264.912 168.68 265.211 168.68H266.187ZM270.447 163.56C270.767 163.069 271.167 162.685 271.647 162.408C272.127 162.12 272.66 161.976 273.247 161.976V164.872H272.495C271.812 164.872 271.3 165.021 270.959 165.32C270.617 165.608 270.447 166.12 270.447 166.856V171H267.711V162.072H270.447V163.56ZM278.619 171.128C277.744 171.128 276.955 170.941 276.251 170.568C275.557 170.195 275.008 169.661 274.603 168.968C274.208 168.275 274.011 167.464 274.011 166.536C274.011 165.619 274.213 164.813 274.618 164.12C275.024 163.416 275.579 162.877 276.283 162.504C276.987 162.131 277.776 161.944 278.651 161.944C279.525 161.944 280.315 162.131 281.019 162.504C281.723 162.877 282.277 163.416 282.683 164.12C283.088 164.813 283.291 165.619 283.291 166.536C283.291 167.453 283.083 168.264 282.667 168.968C282.261 169.661 281.701 170.195 280.987 170.568C280.283 170.941 279.493 171.128 278.619 171.128ZM278.619 168.76C279.141 168.76 279.584 168.568 279.947 168.184C280.32 167.8 280.507 167.251 280.507 166.536C280.507 165.821 280.325 165.272 279.963 164.888C279.611 164.504 279.173 164.312 278.651 164.312C278.117 164.312 277.675 164.504 277.323 164.888C276.971 165.261 276.795 165.811 276.795 166.536C276.795 167.251 276.965 167.8 277.307 168.184C277.659 168.568 278.096 168.76 278.619 168.76Z" fill="#06D0FD"/>
<path d="M365.448 313.993C365.448 313.075 365.619 312.27 365.96 311.577C366.312 310.883 366.787 310.35 367.384 309.977C367.981 309.603 368.648 309.417 369.384 309.417C370.013 309.417 370.563 309.545 371.032 309.801C371.512 310.057 371.88 310.393 372.136 310.809V309.545H374.872V318.473H372.136V317.209C371.869 317.625 371.496 317.961 371.016 318.217C370.547 318.473 369.997 318.601 369.368 318.601C368.643 318.601 367.981 318.414 367.384 318.041C366.787 317.657 366.312 317.118 365.96 316.425C365.619 315.721 365.448 314.91 365.448 313.993ZM372.136 314.009C372.136 313.326 371.944 312.787 371.56 312.393C371.187 311.998 370.728 311.801 370.184 311.801C369.64 311.801 369.176 311.998 368.792 312.393C368.419 312.777 368.232 313.31 368.232 313.993C368.232 314.675 368.419 315.219 368.792 315.625C369.176 316.019 369.64 316.217 370.184 316.217C370.728 316.217 371.187 316.019 371.56 315.625C371.944 315.23 372.136 314.691 372.136 314.009ZM380.739 316.265C381.443 316.265 381.918 315.923 382.163 315.241H385.075C384.873 316.147 384.467 316.889 383.859 317.465C383.251 318.041 382.494 318.398 381.587 318.537V319.129C382.142 319.129 382.627 319.278 383.043 319.577C383.459 319.886 383.667 320.345 383.667 320.953C383.667 321.561 383.449 322.019 383.011 322.329C382.574 322.649 382.051 322.809 381.443 322.809H378.979V321.305H381.075C381.289 321.305 381.449 321.273 381.555 321.209C381.662 321.145 381.715 321.038 381.715 320.889C381.715 320.739 381.662 320.633 381.555 320.569C381.449 320.515 381.289 320.489 381.075 320.489H379.939V318.537C378.841 318.366 377.961 317.881 377.299 317.081C376.638 316.27 376.307 315.246 376.307 314.009C376.307 313.081 376.494 312.27 376.867 311.577C377.251 310.883 377.779 310.35 378.451 309.977C379.134 309.603 379.913 309.417 380.787 309.417C381.907 309.417 382.841 309.71 383.587 310.297C384.345 310.883 384.841 311.71 385.075 312.777H382.163C381.918 312.094 381.443 311.753 380.739 311.753C380.238 311.753 379.838 311.95 379.539 312.345C379.241 312.729 379.091 313.283 379.091 314.009C379.091 314.734 379.241 315.294 379.539 315.689C379.838 316.073 380.238 316.265 380.739 316.265ZM385.995 313.993C385.995 313.075 386.166 312.27 386.507 311.577C386.859 310.883 387.334 310.35 387.931 309.977C388.528 309.603 389.195 309.417 389.931 309.417C390.56 309.417 391.11 309.545 391.579 309.801C392.059 310.057 392.427 310.393 392.683 310.809V309.545H395.419V318.473H392.683V317.209C392.416 317.625 392.043 317.961 391.563 318.217C391.094 318.473 390.544 318.601 389.915 318.601C389.19 318.601 388.528 318.414 387.931 318.041C387.334 317.657 386.859 317.118 386.507 316.425C386.166 315.721 385.995 314.91 385.995 313.993ZM392.683 314.009C392.683 313.326 392.491 312.787 392.107 312.393C391.734 311.998 391.275 311.801 390.731 311.801C390.187 311.801 389.723 311.998 389.339 312.393C388.966 312.777 388.779 313.31 388.779 313.993C388.779 314.675 388.966 315.219 389.339 315.625C389.723 316.019 390.187 316.217 390.731 316.217C391.275 316.217 391.734 316.019 392.107 315.625C392.491 315.23 392.683 314.691 392.683 314.009ZM387.835 308.793C388.091 307.214 388.827 306.425 390.043 306.425C390.278 306.425 390.48 306.462 390.651 306.537C390.832 306.601 391.051 306.702 391.307 306.841C391.499 306.947 391.654 307.027 391.771 307.081C391.888 307.123 392.011 307.145 392.139 307.145C392.534 307.145 392.763 306.905 392.827 306.425H394.235C393.979 308.003 393.243 308.793 392.027 308.793C391.792 308.793 391.584 308.761 391.403 308.697C391.232 308.622 391.019 308.515 390.763 308.377C390.571 308.27 390.416 308.195 390.299 308.153C390.182 308.099 390.059 308.073 389.931 308.073C389.536 308.073 389.302 308.313 389.227 308.793H387.835ZM401.462 318.601C400.588 318.601 399.798 318.414 399.094 318.041C398.401 317.667 397.852 317.134 397.446 316.441C397.052 315.747 396.854 314.937 396.854 314.009C396.854 313.091 397.057 312.286 397.462 311.593C397.868 310.889 398.422 310.35 399.126 309.977C399.83 309.603 400.62 309.417 401.494 309.417C402.369 309.417 403.158 309.603 403.862 309.977C404.566 310.35 405.121 310.889 405.526 311.593C405.932 312.286 406.134 313.091 406.134 314.009C406.134 314.926 405.926 315.737 405.51 316.441C405.105 317.134 404.545 317.667 403.83 318.041C403.126 318.414 402.337 318.601 401.462 318.601ZM401.462 316.233C401.985 316.233 402.428 316.041 402.79 315.657C403.164 315.273 403.35 314.723 403.35 314.009C403.35 313.294 403.169 312.745 402.806 312.361C402.454 311.977 402.017 311.785 401.494 311.785C400.961 311.785 400.518 311.977 400.166 312.361C399.814 312.734 399.638 313.283 399.638 314.009C399.638 314.723 399.809 315.273 400.15 315.657C400.502 316.041 400.94 316.233 401.462 316.233ZM369.672 345.817C368.637 344.825 367.832 343.545 367.256 341.977C366.68 340.409 366.392 338.718 366.392 336.905C366.392 335.07 366.691 333.358 367.288 331.769C367.885 330.169 368.733 328.867 369.832 327.865H372.52V328.121C371.4 329.23 370.536 330.563 369.928 332.121C369.32 333.667 369.016 335.262 369.016 336.905C369.016 338.537 369.309 340.11 369.896 341.625C370.483 343.139 371.309 344.451 372.376 345.561V345.817H369.672ZM373.073 338.009C373.073 337.081 373.26 336.27 373.633 335.577C374.017 334.883 374.545 334.35 375.217 333.977C375.9 333.603 376.678 333.417 377.553 333.417C378.673 333.417 379.606 333.71 380.353 334.297C381.11 334.883 381.606 335.71 381.841 336.777H378.929C378.684 336.094 378.209 335.753 377.505 335.753C377.004 335.753 376.604 335.95 376.305 336.345C376.006 336.729 375.857 337.283 375.857 338.009C375.857 338.734 376.006 339.294 376.305 339.689C376.604 340.073 377.004 340.265 377.505 340.265C378.209 340.265 378.684 339.923 378.929 339.241H381.841C381.606 340.286 381.11 341.107 380.353 341.705C379.596 342.302 378.662 342.601 377.553 342.601C376.678 342.601 375.9 342.414 375.217 342.041C374.545 341.667 374.017 341.134 373.633 340.441C373.26 339.747 373.073 338.937 373.073 338.009ZM387.369 342.601C386.494 342.601 385.705 342.414 385.001 342.041C384.307 341.667 383.758 341.134 383.353 340.441C382.958 339.747 382.761 338.937 382.761 338.009C382.761 337.091 382.963 336.286 383.368 335.593C383.774 334.889 384.329 334.35 385.033 333.977C385.737 333.603 386.526 333.417 387.401 333.417C388.275 333.417 389.065 333.603 389.769 333.977C390.473 334.35 391.027 334.889 391.433 335.593C391.838 336.286 392.041 337.091 392.041 338.009C392.041 338.926 391.833 339.737 391.417 340.441C391.011 341.134 390.451 341.667 389.737 342.041C389.033 342.414 388.243 342.601 387.369 342.601ZM387.369 340.233C387.891 340.233 388.334 340.041 388.697 339.657C389.07 339.273 389.257 338.723 389.257 338.009C389.257 337.294 389.075 336.745 388.713 336.361C388.361 335.977 387.923 335.785 387.401 335.785C386.867 335.785 386.425 335.977 386.073 336.361C385.721 336.734 385.545 337.283 385.545 338.009C385.545 338.723 385.715 339.273 386.057 339.657C386.409 340.041 386.846 340.233 387.369 340.233ZM396.228 335.033C396.548 334.542 396.948 334.158 397.428 333.881C397.908 333.593 398.441 333.449 399.028 333.449V336.345H398.276C397.593 336.345 397.081 336.494 396.74 336.793C396.399 337.081 396.228 337.593 396.228 338.329V342.473H393.492V333.545H396.228V335.033ZM403.072 334.809C403.338 334.393 403.706 334.057 404.176 333.801C404.645 333.545 405.194 333.417 405.824 333.417C406.56 333.417 407.226 333.603 407.824 333.977C408.421 334.35 408.89 334.883 409.232 335.577C409.584 336.27 409.76 337.075 409.76 337.993C409.76 338.91 409.584 339.721 409.232 340.425C408.89 341.118 408.421 341.657 407.824 342.041C407.226 342.414 406.56 342.601 405.824 342.601C405.205 342.601 404.656 342.473 404.176 342.217C403.706 341.961 403.338 341.63 403.072 341.225V346.729H400.336V333.545H403.072V334.809ZM406.976 337.993C406.976 337.31 406.784 336.777 406.4 336.393C406.026 335.998 405.562 335.801 405.008 335.801C404.464 335.801 404 335.998 403.616 336.393C403.242 336.787 403.056 337.326 403.056 338.009C403.056 338.691 403.242 339.23 403.616 339.625C404 340.019 404.464 340.217 405.008 340.217C405.552 340.217 406.016 340.019 406.4 339.625C406.784 339.219 406.976 338.675 406.976 337.993ZM415.259 342.601C414.384 342.601 413.595 342.414 412.891 342.041C412.198 341.667 411.648 341.134 411.243 340.441C410.848 339.747 410.651 338.937 410.651 338.009C410.651 337.091 410.854 336.286 411.259 335.593C411.664 334.889 412.219 334.35 412.923 333.977C413.627 333.603 414.416 333.417 415.291 333.417C416.166 333.417 416.955 333.603 417.659 333.977C418.363 334.35 418.918 334.889 419.323 335.593C419.728 336.286 419.931 337.091 419.931 338.009C419.931 338.926 419.723 339.737 419.307 340.441C418.902 341.134 418.342 341.667 417.627 342.041C416.923 342.414 416.134 342.601 415.259 342.601ZM415.259 340.233C415.782 340.233 416.224 340.041 416.587 339.657C416.96 339.273 417.147 338.723 417.147 338.009C417.147 337.294 416.966 336.745 416.603 336.361C416.251 335.977 415.814 335.785 415.291 335.785C414.758 335.785 414.315 335.977 413.963 336.361C413.611 336.734 413.435 337.283 413.435 338.009C413.435 338.723 413.606 339.273 413.947 339.657C414.299 340.041 414.736 340.233 415.259 340.233ZM424.229 337.993C424.229 337.075 424.4 336.27 424.741 335.577C425.093 334.883 425.568 334.35 426.165 333.977C426.763 333.603 427.429 333.417 428.165 333.417C428.752 333.417 429.285 333.539 429.765 333.785C430.256 334.03 430.64 334.361 430.917 334.777V330.633H433.653V342.473H430.917V341.193C430.661 341.619 430.293 341.961 429.813 342.217C429.344 342.473 428.795 342.601 428.165 342.601C427.429 342.601 426.763 342.414 426.165 342.041C425.568 341.657 425.093 341.118 424.741 340.425C424.4 339.721 424.229 338.91 424.229 337.993ZM430.917 338.009C430.917 337.326 430.725 336.787 430.341 336.393C429.968 335.998 429.509 335.801 428.965 335.801C428.421 335.801 427.957 335.998 427.573 336.393C427.2 336.777 427.013 337.31 427.013 337.993C427.013 338.675 427.2 339.219 427.573 339.625C427.957 340.019 428.421 340.217 428.965 340.217C429.509 340.217 429.968 340.019 430.341 339.625C430.725 339.23 430.917 338.691 430.917 338.009ZM435.089 337.993C435.089 337.075 435.259 336.27 435.601 335.577C435.953 334.883 436.427 334.35 437.025 333.977C437.622 333.603 438.289 333.417 439.025 333.417C439.654 333.417 440.203 333.545 440.673 333.801C441.153 334.057 441.521 334.393 441.777 334.809V333.545H444.513V342.473H441.777V341.209C441.51 341.625 441.137 341.961 440.657 342.217C440.187 342.473 439.638 342.601 439.009 342.601C438.283 342.601 437.622 342.414 437.025 342.041C436.427 341.657 435.953 341.118 435.601 340.425C435.259 339.721 435.089 338.91 435.089 337.993ZM441.777 338.009C441.777 337.326 441.585 336.787 441.201 336.393C440.827 335.998 440.369 335.801 439.825 335.801C439.281 335.801 438.817 335.998 438.433 336.393C438.059 336.777 437.873 337.31 437.873 337.993C437.873 338.675 438.059 339.219 438.433 339.625C438.817 340.019 439.281 340.217 439.825 340.217C440.369 340.217 440.827 340.019 441.201 339.625C441.585 339.23 441.777 338.691 441.777 338.009ZM454.363 335.817H452.891V342.473H450.155V335.817H449.163V333.545H450.155V333.289C450.155 332.19 450.469 331.358 451.099 330.793C451.728 330.217 452.651 329.929 453.867 329.929C454.069 329.929 454.219 329.934 454.315 329.945V332.265C453.792 332.233 453.424 332.307 453.211 332.489C452.997 332.67 452.891 332.995 452.891 333.465V333.545H454.363V335.817ZM464.464 333.545V342.473H461.728V341.257C461.451 341.651 461.072 341.971 460.592 342.217C460.123 342.451 459.6 342.569 459.024 342.569C458.342 342.569 457.739 342.419 457.216 342.121C456.694 341.811 456.288 341.369 456 340.793C455.712 340.217 455.568 339.539 455.568 338.761V333.545H458.288V338.393C458.288 338.99 458.443 339.454 458.752 339.785C459.062 340.115 459.478 340.281 460 340.281C460.534 340.281 460.955 340.115 461.264 339.785C461.574 339.454 461.728 338.99 461.728 338.393V333.545H464.464ZM471.87 333.449C472.915 333.449 473.747 333.79 474.366 334.473C474.995 335.145 475.31 336.073 475.31 337.257V342.473H472.59V337.625C472.59 337.027 472.435 336.563 472.126 336.233C471.816 335.902 471.4 335.737 470.878 335.737C470.355 335.737 469.939 335.902 469.63 336.233C469.32 336.563 469.166 337.027 469.166 337.625V342.473H466.43V333.545H469.166V334.729C469.443 334.334 469.816 334.025 470.286 333.801C470.755 333.566 471.283 333.449 471.87 333.449ZM481.099 340.265C481.803 340.265 482.277 339.923 482.523 339.241H485.435C485.232 340.147 484.827 340.889 484.219 341.465C483.611 342.041 482.853 342.398 481.947 342.537V343.129C482.501 343.129 482.987 343.278 483.403 343.577C483.819 343.886 484.027 344.345 484.027 344.953C484.027 345.561 483.808 346.019 483.371 346.329C482.933 346.649 482.411 346.809 481.803 346.809H479.339V345.305H481.435C481.648 345.305 481.808 345.273 481.915 345.209C482.021 345.145 482.075 345.038 482.075 344.889C482.075 344.739 482.021 344.633 481.915 344.569C481.808 344.515 481.648 344.489 481.435 344.489H480.299V342.537C479.2 342.366 478.32 341.881 477.659 341.081C476.997 340.27 476.667 339.246 476.667 338.009C476.667 337.081 476.853 336.27 477.227 335.577C477.611 334.883 478.139 334.35 478.811 333.977C479.493 333.603 480.272 333.417 481.147 333.417C482.267 333.417 483.2 333.71 483.947 334.297C484.704 334.883 485.2 335.71 485.435 336.777H482.523C482.277 336.094 481.803 335.753 481.099 335.753C480.597 335.753 480.197 335.95 479.899 336.345C479.6 336.729 479.451 337.283 479.451 338.009C479.451 338.734 479.6 339.294 479.899 339.689C480.197 340.073 480.597 340.265 481.099 340.265ZM486.354 337.993C486.354 337.075 486.525 336.27 486.866 335.577C487.218 334.883 487.693 334.35 488.29 333.977C488.888 333.603 489.554 333.417 490.29 333.417C490.92 333.417 491.469 333.545 491.938 333.801C492.418 334.057 492.786 334.393 493.042 334.809V333.545H495.778V342.473H493.042V341.209C492.776 341.625 492.402 341.961 491.922 342.217C491.453 342.473 490.904 342.601 490.274 342.601C489.549 342.601 488.888 342.414 488.29 342.041C487.693 341.657 487.218 341.118 486.866 340.425C486.525 339.721 486.354 338.91 486.354 337.993ZM493.042 338.009C493.042 337.326 492.85 336.787 492.466 336.393C492.093 335.998 491.634 335.801 491.09 335.801C490.546 335.801 490.082 335.998 489.698 336.393C489.325 336.777 489.138 337.31 489.138 337.993C489.138 338.675 489.325 339.219 489.698 339.625C490.082 340.019 490.546 340.217 491.09 340.217C491.634 340.217 492.093 340.019 492.466 339.625C492.85 339.23 493.042 338.691 493.042 338.009ZM488.194 332.793C488.45 331.214 489.186 330.425 490.402 330.425C490.637 330.425 490.84 330.462 491.01 330.537C491.192 330.601 491.41 330.702 491.666 330.841C491.858 330.947 492.013 331.027 492.13 331.081C492.248 331.123 492.37 331.145 492.498 331.145C492.893 331.145 493.122 330.905 493.186 330.425H494.594C494.338 332.003 493.602 332.793 492.386 332.793C492.152 332.793 491.944 332.761 491.762 332.697C491.592 332.622 491.378 332.515 491.122 332.377C490.93 332.27 490.776 332.195 490.658 332.153C490.541 332.099 490.418 332.073 490.29 332.073C489.896 332.073 489.661 332.313 489.586 332.793H488.194ZM501.822 342.601C500.947 342.601 500.158 342.414 499.454 342.041C498.76 341.667 498.211 341.134 497.806 340.441C497.411 339.747 497.214 338.937 497.214 338.009C497.214 337.091 497.416 336.286 497.822 335.593C498.227 334.889 498.782 334.35 499.486 333.977C500.19 333.603 500.979 333.417 501.854 333.417C502.728 333.417 503.518 333.603 504.222 333.977C504.926 334.35 505.48 334.889 505.886 335.593C506.291 336.286 506.494 337.091 506.494 338.009C506.494 338.926 506.286 339.737 505.87 340.441C505.464 341.134 504.904 341.667 504.19 342.041C503.486 342.414 502.696 342.601 501.822 342.601ZM501.822 340.233C502.344 340.233 502.787 340.041 503.15 339.657C503.523 339.273 503.71 338.723 503.71 338.009C503.71 337.294 503.528 336.745 503.166 336.361C502.814 335.977 502.376 335.785 501.854 335.785C501.32 335.785 500.878 335.977 500.526 336.361C500.174 336.734 499.998 337.283 499.998 338.009C499.998 338.723 500.168 339.273 500.51 339.657C500.862 340.041 501.299 340.233 501.822 340.233ZM507.209 345.817V345.561C508.276 344.451 509.102 343.139 509.689 341.625C510.276 340.11 510.569 338.537 510.569 336.905C510.569 335.262 510.265 333.667 509.657 332.121C509.049 330.563 508.185 329.23 507.065 328.121V327.865H509.753C510.852 328.867 511.7 330.169 512.297 331.769C512.894 333.358 513.193 335.07 513.193 336.905C513.193 338.718 512.905 340.409 512.329 341.977C511.753 343.545 510.948 344.825 509.913 345.817H507.209Z" fill="#06D0FD"/>
<path d="M176.728 347.033C177.048 346.542 177.448 346.158 177.928 345.881C178.408 345.593 178.941 345.449 179.528 345.449V348.345H178.776C178.093 348.345 177.581 348.494 177.24 348.793C176.899 349.081 176.728 349.593 176.728 350.329V354.473H173.992V345.545H176.728V347.033ZM189.252 349.865C189.252 350.121 189.236 350.387 189.204 350.665H183.012C183.054 351.219 183.23 351.646 183.54 351.945C183.86 352.233 184.249 352.377 184.708 352.377C185.39 352.377 185.865 352.089 186.132 351.513H189.044C188.894 352.099 188.622 352.627 188.228 353.097C187.844 353.566 187.358 353.934 186.772 354.201C186.185 354.467 185.529 354.601 184.804 354.601C183.929 354.601 183.15 354.414 182.468 354.041C181.785 353.667 181.252 353.134 180.868 352.441C180.484 351.747 180.292 350.937 180.292 350.009C180.292 349.081 180.478 348.27 180.852 347.577C181.236 346.883 181.769 346.35 182.452 345.977C183.134 345.603 183.918 345.417 184.804 345.417C185.668 345.417 186.436 345.598 187.108 345.961C187.78 346.323 188.302 346.841 188.676 347.513C189.06 348.185 189.252 348.969 189.252 349.865ZM186.452 349.145C186.452 348.675 186.292 348.302 185.972 348.025C185.652 347.747 185.252 347.609 184.772 347.609C184.313 347.609 183.924 347.742 183.604 348.009C183.294 348.275 183.102 348.654 183.028 349.145H186.452ZM195.671 352.153V354.473H194.279C193.287 354.473 192.514 354.233 191.959 353.753C191.404 353.262 191.127 352.467 191.127 351.369V347.817H190.039V345.545H191.127V343.369H193.863V345.545H195.655V347.817H193.863V351.401C193.863 351.667 193.927 351.859 194.055 351.977C194.183 352.094 194.396 352.153 194.695 352.153H195.671ZM201.259 354.601C200.384 354.601 199.595 354.414 198.891 354.041C198.198 353.667 197.648 353.134 197.243 352.441C196.848 351.747 196.651 350.937 196.651 350.009C196.651 349.091 196.854 348.286 197.259 347.593C197.664 346.889 198.219 346.35 198.923 345.977C199.627 345.603 200.416 345.417 201.291 345.417C202.166 345.417 202.955 345.603 203.659 345.977C204.363 346.35 204.918 346.889 205.323 347.593C205.728 348.286 205.931 349.091 205.931 350.009C205.931 350.926 205.723 351.737 205.307 352.441C204.902 353.134 204.342 353.667 203.627 354.041C202.923 354.414 202.134 354.601 201.259 354.601ZM201.259 352.233C201.782 352.233 202.224 352.041 202.587 351.657C202.96 351.273 203.147 350.723 203.147 350.009C203.147 349.294 202.966 348.745 202.603 348.361C202.251 347.977 201.814 347.785 201.291 347.785C200.758 347.785 200.315 347.977 199.963 348.361C199.611 348.734 199.435 349.283 199.435 350.009C199.435 350.723 199.606 351.273 199.947 351.657C200.299 352.041 200.736 352.233 201.259 352.233ZM210.119 347.033C210.439 346.542 210.839 346.158 211.319 345.881C211.799 345.593 212.332 345.449 212.919 345.449V348.345H212.167C211.484 348.345 210.972 348.494 210.631 348.793C210.289 349.081 210.119 349.593 210.119 350.329V354.473H207.383V345.545H210.119V347.033ZM219.666 345.449C220.712 345.449 221.544 345.79 222.162 346.473C222.792 347.145 223.106 348.073 223.106 349.257V354.473H220.386V349.625C220.386 349.027 220.232 348.563 219.922 348.233C219.613 347.902 219.197 347.737 218.674 347.737C218.152 347.737 217.736 347.902 217.426 348.233C217.117 348.563 216.962 349.027 216.962 349.625V354.473H214.226V345.545H216.962V346.729C217.24 346.334 217.613 346.025 218.082 345.801C218.552 345.566 219.08 345.449 219.666 345.449ZM229.072 354.601C228.197 354.601 227.408 354.414 226.704 354.041C226.01 353.667 225.461 353.134 225.056 352.441C224.661 351.747 224.464 350.937 224.464 350.009C224.464 349.091 224.666 348.286 225.072 347.593C225.477 346.889 226.032 346.35 226.736 345.977C227.44 345.603 228.229 345.417 229.104 345.417C229.978 345.417 230.768 345.603 231.472 345.977C232.176 346.35 232.73 346.889 233.136 347.593C233.541 348.286 233.744 349.091 233.744 350.009C233.744 350.926 233.536 351.737 233.12 352.441C232.714 353.134 232.154 353.667 231.44 354.041C230.736 354.414 229.946 354.601 229.072 354.601ZM229.072 352.233C229.594 352.233 230.037 352.041 230.4 351.657C230.773 351.273 230.96 350.723 230.96 350.009C230.96 349.294 230.778 348.745 230.416 348.361C230.064 347.977 229.626 347.785 229.104 347.785C228.57 347.785 228.128 347.977 227.776 348.361C227.424 348.734 227.248 349.283 227.248 350.009C227.248 350.723 227.418 351.273 227.76 351.657C228.112 352.041 228.549 352.233 229.072 352.233Z" fill="#06D0FD"/>
<path d="M261.448 480.536C261.448 479.608 261.635 478.797 262.008 478.104C262.392 477.411 262.92 476.877 263.592 476.504C264.275 476.131 265.053 475.944 265.928 475.944C267.048 475.944 267.981 476.237 268.728 476.824C269.485 477.411 269.981 478.237 270.216 479.304H267.304C267.059 478.621 266.584 478.28 265.88 478.28C265.379 478.28 264.979 478.477 264.68 478.872C264.381 479.256 264.232 479.811 264.232 480.536C264.232 481.261 264.381 481.821 264.68 482.216C264.979 482.6 265.379 482.792 265.88 482.792C266.584 482.792 267.059 482.451 267.304 481.768H270.216C269.981 482.813 269.485 483.635 268.728 484.232C267.971 484.829 267.037 485.128 265.928 485.128C265.053 485.128 264.275 484.941 263.592 484.568C262.92 484.195 262.392 483.661 262.008 482.968C261.635 482.275 261.448 481.464 261.448 480.536ZM277.168 475.976C278.192 475.976 279.013 476.317 279.632 477C280.25 477.672 280.56 478.6 280.56 479.784V485H277.84V480.152C277.84 479.555 277.685 479.091 277.376 478.76C277.066 478.429 276.65 478.264 276.128 478.264C275.605 478.264 275.189 478.429 274.88 478.76C274.57 479.091 274.416 479.555 274.416 480.152V485H271.68V473.16H274.416V477.272C274.693 476.877 275.072 476.563 275.552 476.328C276.032 476.093 276.57 475.976 277.168 475.976ZM281.917 480.52C281.917 479.603 282.087 478.797 282.429 478.104C282.781 477.411 283.255 476.877 283.853 476.504C284.45 476.131 285.117 475.944 285.853 475.944C286.482 475.944 287.031 476.072 287.501 476.328C287.981 476.584 288.349 476.92 288.605 477.336V476.072H291.341V485H288.605V483.736C288.338 484.152 287.965 484.488 287.485 484.744C287.015 485 286.466 485.128 285.837 485.128C285.111 485.128 284.45 484.941 283.853 484.568C283.255 484.184 282.781 483.645 282.429 482.952C282.087 482.248 281.917 481.437 281.917 480.52ZM288.605 480.536C288.605 479.853 288.413 479.315 288.029 478.92C287.655 478.525 287.197 478.328 286.653 478.328C286.109 478.328 285.645 478.525 285.261 478.92C284.887 479.304 284.701 479.837 284.701 480.52C284.701 481.203 284.887 481.747 285.261 482.152C285.645 482.547 286.109 482.744 286.653 482.744C287.197 482.744 287.655 482.547 288.029 482.152C288.413 481.757 288.605 481.219 288.605 480.536ZM304.712 475.976C305.821 475.976 306.701 476.312 307.352 476.984C308.013 477.656 308.344 478.589 308.344 479.784V485H305.624V480.152C305.624 479.576 305.469 479.133 305.16 478.824C304.861 478.504 304.445 478.344 303.912 478.344C303.379 478.344 302.957 478.504 302.648 478.824C302.349 479.133 302.2 479.576 302.2 480.152V485H299.48V480.152C299.48 479.576 299.325 479.133 299.016 478.824C298.717 478.504 298.301 478.344 297.768 478.344C297.235 478.344 296.813 478.504 296.504 478.824C296.205 479.133 296.056 479.576 296.056 480.152V485H293.32V476.072H296.056V477.192C296.333 476.819 296.696 476.525 297.144 476.312C297.592 476.088 298.099 475.976 298.664 475.976C299.336 475.976 299.933 476.12 300.456 476.408C300.989 476.696 301.405 477.107 301.704 477.64C302.013 477.149 302.435 476.749 302.968 476.44C303.501 476.131 304.083 475.976 304.712 475.976ZM309.714 480.52C309.714 479.603 309.884 478.797 310.226 478.104C310.578 477.411 311.052 476.877 311.65 476.504C312.247 476.131 312.914 475.944 313.65 475.944C314.236 475.944 314.77 476.067 315.25 476.312C315.74 476.557 316.124 476.888 316.402 477.304V473.16H319.138V485H316.402V483.72C316.146 484.147 315.778 484.488 315.298 484.744C314.828 485 314.279 485.128 313.65 485.128C312.914 485.128 312.247 484.941 311.65 484.568C311.052 484.184 310.578 483.645 310.226 482.952C309.884 482.248 309.714 481.437 309.714 480.52ZM316.402 480.536C316.402 479.853 316.21 479.315 315.826 478.92C315.452 478.525 314.994 478.328 314.45 478.328C313.906 478.328 313.442 478.525 313.058 478.92C312.684 479.304 312.498 479.837 312.498 480.52C312.498 481.203 312.684 481.747 313.058 482.152C313.442 482.547 313.906 482.744 314.45 482.744C314.994 482.744 315.452 482.547 315.826 482.152C316.21 481.757 316.402 481.219 316.402 480.536ZM320.573 480.52C320.573 479.603 320.744 478.797 321.085 478.104C321.437 477.411 321.912 476.877 322.509 476.504C323.106 476.131 323.773 475.944 324.509 475.944C325.138 475.944 325.688 476.072 326.157 476.328C326.637 476.584 327.005 476.92 327.261 477.336V476.072H329.997V485H327.261V483.736C326.994 484.152 326.621 484.488 326.141 484.744C325.672 485 325.122 485.128 324.493 485.128C323.768 485.128 323.106 484.941 322.509 484.568C321.912 484.184 321.437 483.645 321.085 482.952C320.744 482.248 320.573 481.437 320.573 480.52ZM327.261 480.536C327.261 479.853 327.069 479.315 326.685 478.92C326.312 478.525 325.853 478.328 325.309 478.328C324.765 478.328 324.301 478.525 323.917 478.92C323.544 479.304 323.357 479.837 323.357 480.52C323.357 481.203 323.544 481.747 323.917 482.152C324.301 482.547 324.765 482.744 325.309 482.744C325.853 482.744 326.312 482.547 326.685 482.152C327.069 481.757 327.261 481.219 327.261 480.536Z" fill="#06D0FD"/>
<path d="M263.656 409.469C264.031 409.063 264.006 408.43 263.601 408.055L256.991 401.947C256.585 401.572 255.952 401.597 255.578 402.003C255.203 402.409 255.228 403.041 255.633 403.416L261.509 408.846L256.079 414.721C255.704 415.127 255.729 415.759 256.135 416.134C256.541 416.509 257.173 416.484 257.548 416.078L263.656 409.469ZM235.51 409.871L235.47 408.872L235.51 409.871ZM192.93 464.129C192.813 463.49 192.71 462.852 192.62 462.216L190.64 462.495C190.733 463.159 190.841 463.824 190.963 464.49L192.93 464.129ZM192.244 458.368C192.173 457.071 192.158 455.782 192.197 454.504L190.198 454.442C190.157 455.777 190.172 457.123 190.247 458.478L192.244 458.368ZM192.483 450.649C192.635 449.363 192.842 448.091 193.102 446.835L191.143 446.43C190.872 447.742 190.656 449.071 190.497 450.414L192.483 450.649ZM194.048 443.087C194.418 441.848 194.84 440.63 195.313 439.435L193.453 438.699C192.96 439.948 192.518 441.22 192.131 442.514L194.048 443.087ZM196.887 435.904C197.463 434.749 198.087 433.62 198.757 432.52L197.049 431.479C196.349 432.627 195.698 433.806 195.097 435.012L196.887 435.904ZM200.908 429.307C201.67 428.267 202.476 427.26 203.324 426.288L201.817 424.974C200.932 425.988 200.09 427.039 199.295 428.125L200.908 429.307ZM205.987 423.485C206.913 422.59 207.877 421.734 208.879 420.919L207.616 419.368C206.571 420.219 205.563 421.113 204.597 422.047L205.987 423.485ZM211.978 418.609C213.041 417.886 214.137 417.207 215.264 416.574L214.285 414.83C213.108 415.491 211.963 416.201 210.853 416.956L211.978 418.609ZM218.714 414.829C219.882 414.301 221.078 413.82 222.299 413.39L221.635 411.504C220.359 411.953 219.109 412.455 217.889 413.007L218.714 414.829ZM225.998 412.266C227.236 411.947 228.497 411.679 229.778 411.464L229.447 409.492C228.109 409.716 226.793 409.996 225.499 410.329L225.998 412.266ZM233.615 410.987C234.255 410.935 234.9 410.896 235.549 410.871L235.47 408.872C234.794 408.899 234.121 408.94 233.453 408.994L233.615 410.987ZM235.549 410.871L237.834 410.781L237.755 408.782L235.47 408.872L235.549 410.871ZM242.402 410.6L246.971 410.42L246.892 408.422L242.323 408.602L242.402 410.6ZM251.54 410.24L256.108 410.059L256.029 408.061L251.461 408.241L251.54 410.24ZM260.677 409.879L262.961 409.789L262.882 407.791L260.598 407.881L260.677 409.879Z" fill="#FEE50A"/>
<path d="M277.008 411.44L278.944 405.072H281.856L278.688 414H275.312L272.144 405.072H275.072L277.008 411.44ZM282.464 409.52C282.464 408.603 282.634 407.797 282.976 407.104C283.328 406.411 283.802 405.877 284.4 405.504C284.997 405.131 285.664 404.944 286.4 404.944C287.029 404.944 287.578 405.072 288.048 405.328C288.528 405.584 288.896 405.92 289.152 406.336V405.072H291.888V414H289.152V412.736C288.885 413.152 288.512 413.488 288.032 413.744C287.562 414 287.013 414.128 286.384 414.128C285.658 414.128 284.997 413.941 284.4 413.568C283.802 413.184 283.328 412.645 282.976 411.952C282.634 411.248 282.464 410.437 282.464 409.52ZM289.152 409.536C289.152 408.853 288.96 408.315 288.576 407.92C288.202 407.525 287.744 407.328 287.2 407.328C286.656 407.328 286.192 407.525 285.808 407.92C285.434 408.304 285.248 408.837 285.248 409.52C285.248 410.203 285.434 410.747 285.808 411.152C286.192 411.547 286.656 411.744 287.2 411.744C287.744 411.744 288.202 411.547 288.576 411.152C288.96 410.757 289.152 410.219 289.152 409.536ZM296.603 402.16V414H293.867V402.16H296.603ZM302.65 414.128C301.775 414.128 300.986 413.941 300.282 413.568C299.588 413.195 299.039 412.661 298.634 411.968C298.239 411.275 298.042 410.464 298.042 409.536C298.042 408.619 298.244 407.813 298.65 407.12C299.055 406.416 299.61 405.877 300.314 405.504C301.018 405.131 301.807 404.944 302.682 404.944C303.556 404.944 304.346 405.131 305.05 405.504C305.754 405.877 306.308 406.416 306.714 407.12C307.119 407.813 307.322 408.619 307.322 409.536C307.322 410.453 307.114 411.264 306.698 411.968C306.292 412.661 305.732 413.195 305.018 413.568C304.314 413.941 303.524 414.128 302.65 414.128ZM302.65 411.76C303.172 411.76 303.615 411.568 303.978 411.184C304.351 410.8 304.538 410.251 304.538 409.536C304.538 408.821 304.356 408.272 303.994 407.888C303.642 407.504 303.204 407.312 302.682 407.312C302.148 407.312 301.706 407.504 301.354 407.888C301.002 408.261 300.826 408.811 300.826 409.536C300.826 410.251 300.996 410.8 301.338 411.184C301.69 411.568 302.127 411.76 302.65 411.76ZM311.509 406.56C311.829 406.069 312.229 405.685 312.709 405.408C313.189 405.12 313.723 404.976 314.309 404.976V407.872H313.557C312.875 407.872 312.363 408.021 312.021 408.32C311.68 408.608 311.509 409.12 311.509 409.856V414H308.773V405.072H311.509V406.56ZM326.078 417.344C325.044 416.352 324.238 415.072 323.662 413.504C323.086 411.936 322.798 410.245 322.798 408.432C322.798 406.597 323.097 404.885 323.694 403.296C324.292 401.696 325.14 400.395 326.238 399.392H328.926V399.648C327.806 400.757 326.942 402.091 326.334 403.648C325.726 405.195 325.422 406.789 325.422 408.432C325.422 410.064 325.716 411.637 326.302 413.152C326.889 414.667 327.716 415.979 328.782 417.088V417.344H326.078ZM419.037 417.344V417.088C420.104 415.979 420.931 414.667 421.517 413.152C422.104 411.637 422.397 410.064 422.397 408.432C422.397 406.789 422.093 405.195 421.485 403.648C420.877 402.091 420.013 400.757 418.893 399.648V399.392H421.581C422.68 400.395 423.528 401.696 424.125 403.296C424.723 404.885 425.021 406.597 425.021 408.432C425.021 410.245 424.733 411.936 424.157 413.504C423.581 415.072 422.776 416.352 421.741 417.344H419.037Z" fill="#FEE50A"/>
<path d="M332.759 406.336C333.026 405.92 333.394 405.584 333.863 405.328C334.333 405.072 334.882 404.944 335.511 404.944C336.247 404.944 336.914 405.131 337.511 405.504C338.109 405.877 338.578 406.411 338.919 407.104C339.271 407.797 339.447 408.603 339.447 409.52C339.447 410.437 339.271 411.248 338.919 411.952C338.578 412.645 338.109 413.184 337.511 413.568C336.914 413.941 336.247 414.128 335.511 414.128C334.893 414.128 334.343 414 333.863 413.744C333.394 413.488 333.026 413.157 332.759 412.752V418.256H330.023V405.072H332.759V406.336ZM336.663 409.52C336.663 408.837 336.471 408.304 336.087 407.92C335.714 407.525 335.25 407.328 334.695 407.328C334.151 407.328 333.687 407.525 333.303 407.92C332.93 408.315 332.743 408.853 332.743 409.536C332.743 410.219 332.93 410.757 333.303 411.152C333.687 411.547 334.151 411.744 334.695 411.744C335.239 411.744 335.703 411.547 336.087 411.152C336.471 410.747 336.663 410.203 336.663 409.52ZM340.339 409.52C340.339 408.603 340.509 407.797 340.851 407.104C341.203 406.411 341.677 405.877 342.275 405.504C342.872 405.131 343.539 404.944 344.275 404.944C344.904 404.944 345.453 405.072 345.923 405.328C346.403 405.584 346.771 405.92 347.027 406.336V405.072H349.763V414H347.027V412.736C346.76 413.152 346.387 413.488 345.907 413.744C345.437 414 344.888 414.128 344.259 414.128C343.533 414.128 342.872 413.941 342.275 413.568C341.677 413.184 341.203 412.645 340.851 411.952C340.509 411.248 340.339 410.437 340.339 409.52ZM347.027 409.536C347.027 408.853 346.835 408.315 346.451 407.92C346.077 407.525 345.619 407.328 345.075 407.328C344.531 407.328 344.067 407.525 343.683 407.92C343.309 408.304 343.123 408.837 343.123 409.52C343.123 410.203 343.309 410.747 343.683 411.152C344.067 411.547 344.531 411.744 345.075 411.744C345.619 411.744 346.077 411.547 346.451 411.152C346.835 410.757 347.027 410.219 347.027 409.536ZM354.478 406.56C354.798 406.069 355.198 405.685 355.678 405.408C356.158 405.12 356.691 404.976 357.278 404.976V407.872H356.526C355.843 407.872 355.331 408.021 354.99 408.32C354.649 408.608 354.478 409.12 354.478 409.856V414H351.742V405.072H354.478V406.56ZM358.042 409.52C358.042 408.603 358.212 407.797 358.554 407.104C358.906 406.411 359.38 405.877 359.978 405.504C360.575 405.131 361.242 404.944 361.978 404.944C362.607 404.944 363.156 405.072 363.626 405.328C364.106 405.584 364.474 405.92 364.73 406.336V405.072H367.466V414H364.73V412.736C364.463 413.152 364.09 413.488 363.61 413.744C363.14 414 362.591 414.128 361.962 414.128C361.236 414.128 360.575 413.941 359.978 413.568C359.38 413.184 358.906 412.645 358.554 411.952C358.212 411.248 358.042 410.437 358.042 409.52ZM364.73 409.536C364.73 408.853 364.538 408.315 364.154 407.92C363.78 407.525 363.322 407.328 362.778 407.328C362.234 407.328 361.77 407.525 361.386 407.92C361.012 408.304 360.826 408.837 360.826 409.52C360.826 410.203 361.012 410.747 361.386 411.152C361.77 411.547 362.234 411.744 362.778 411.744C363.322 411.744 363.78 411.547 364.154 411.152C364.538 410.757 364.73 410.219 364.73 409.536ZM363.082 403.152L360.602 404.464V402.576L363.082 401.312L365.562 402.576V404.464L363.082 403.152ZM380.837 404.976C381.946 404.976 382.826 405.312 383.477 405.984C384.138 406.656 384.469 407.589 384.469 408.784V414H381.749V409.152C381.749 408.576 381.594 408.133 381.285 407.824C380.986 407.504 380.57 407.344 380.037 407.344C379.504 407.344 379.082 407.504 378.773 407.824C378.474 408.133 378.325 408.576 378.325 409.152V414H375.605V409.152C375.605 408.576 375.45 408.133 375.141 407.824C374.842 407.504 374.426 407.344 373.893 407.344C373.36 407.344 372.938 407.504 372.629 407.824C372.33 408.133 372.181 408.576 372.181 409.152V414H369.445V405.072H372.181V406.192C372.458 405.819 372.821 405.525 373.269 405.312C373.717 405.088 374.224 404.976 374.789 404.976C375.461 404.976 376.058 405.12 376.581 405.408C377.114 405.696 377.53 406.107 377.829 406.64C378.138 406.149 378.56 405.749 379.093 405.44C379.626 405.131 380.208 404.976 380.837 404.976ZM394.799 409.392C394.799 409.648 394.783 409.915 394.751 410.192H388.559C388.601 410.747 388.777 411.173 389.087 411.472C389.407 411.76 389.796 411.904 390.255 411.904C390.937 411.904 391.412 411.616 391.679 411.04H394.591C394.441 411.627 394.169 412.155 393.775 412.624C393.391 413.093 392.905 413.461 392.319 413.728C391.732 413.995 391.076 414.128 390.351 414.128C389.476 414.128 388.697 413.941 388.015 413.568C387.332 413.195 386.799 412.661 386.415 411.968C386.031 411.275 385.839 410.464 385.839 409.536C385.839 408.608 386.025 407.797 386.399 407.104C386.783 406.411 387.316 405.877 387.999 405.504C388.681 405.131 389.465 404.944 390.351 404.944C391.215 404.944 391.983 405.125 392.655 405.488C393.327 405.851 393.849 406.368 394.223 407.04C394.607 407.712 394.799 408.496 394.799 409.392ZM391.999 408.672C391.999 408.203 391.839 407.829 391.519 407.552C391.199 407.275 390.799 407.136 390.319 407.136C389.86 407.136 389.471 407.269 389.151 407.536C388.841 407.803 388.649 408.181 388.575 408.672H391.999ZM401.218 411.68V414H399.826C398.834 414 398.061 413.76 397.506 413.28C396.951 412.789 396.674 411.995 396.674 410.896V407.344H395.586V405.072H396.674V402.896H399.41V405.072H401.202V407.344H399.41V410.928C399.41 411.195 399.474 411.387 399.602 411.504C399.73 411.621 399.943 411.68 400.242 411.68H401.218ZM405.478 406.56C405.798 406.069 406.198 405.685 406.678 405.408C407.158 405.12 407.691 404.976 408.278 404.976V407.872H407.526C406.843 407.872 406.331 408.021 405.99 408.32C405.649 408.608 405.478 409.12 405.478 409.856V414H402.742V405.072H405.478V406.56ZM413.65 414.128C412.775 414.128 411.986 413.941 411.282 413.568C410.588 413.195 410.039 412.661 409.634 411.968C409.239 411.275 409.042 410.464 409.042 409.536C409.042 408.619 409.244 407.813 409.65 407.12C410.055 406.416 410.61 405.877 411.314 405.504C412.018 405.131 412.807 404.944 413.682 404.944C414.556 404.944 415.346 405.131 416.05 405.504C416.754 405.877 417.308 406.416 417.714 407.12C418.119 407.813 418.322 408.619 418.322 409.536C418.322 410.453 418.114 411.264 417.698 411.968C417.292 412.661 416.732 413.195 416.018 413.568C415.314 413.941 414.524 414.128 413.65 414.128ZM413.65 411.76C414.172 411.76 414.615 411.568 414.978 411.184C415.351 410.8 415.538 410.251 415.538 409.536C415.538 408.821 415.356 408.272 414.994 407.888C414.642 407.504 414.204 407.312 413.682 407.312C413.148 407.312 412.706 407.504 412.354 407.888C412.002 408.261 411.826 408.811 411.826 409.536C411.826 410.251 411.996 410.8 412.338 411.184C412.69 411.568 413.127 411.76 413.65 411.76Z" fill="#06D0FD"/>
</svg>
