<svg width="600" height="570" viewBox="0 0 600 570" fill="none" xmlns="http://www.w3.org/2000/svg">
<rect width="600" height="570" fill="#515050"/>
<path d="M294.087 229.047L302.685 214.011L285.365 214.083L294.087 229.047ZM292.413 187.006L292.531 215.554L295.531 215.541L295.413 186.994L292.413 187.006Z" fill="white"/>
<path d="M247.757 52.172H254.253V56H242.798V35.642H247.757V52.172ZM263.984 56.232C262.399 56.232 260.968 55.8937 259.692 55.217C258.436 54.5403 257.44 53.5737 256.705 52.317C255.99 51.0603 255.632 49.591 255.632 47.909C255.632 46.2463 256 44.7867 256.734 43.53C257.469 42.254 258.474 41.2777 259.75 40.601C261.026 39.9243 262.457 39.586 264.042 39.586C265.628 39.586 267.058 39.9243 268.334 40.601C269.61 41.2777 270.616 42.254 271.35 43.53C272.085 44.7867 272.452 46.2463 272.452 47.909C272.452 49.5717 272.075 51.041 271.321 52.317C270.587 53.5737 269.572 54.5403 268.276 55.217C267 55.8937 265.57 56.232 263.984 56.232ZM263.984 51.94C264.932 51.94 265.734 51.592 266.391 50.896C267.068 50.2 267.406 49.2043 267.406 47.909C267.406 46.6137 267.078 45.618 266.42 44.922C265.782 44.226 264.99 43.878 264.042 43.878C263.076 43.878 262.273 44.226 261.635 44.922C260.997 45.5987 260.678 46.5943 260.678 47.909C260.678 49.2043 260.988 50.2 261.606 50.896C262.244 51.592 263.037 51.94 263.984 51.94ZM282.449 56.232C280.864 56.232 279.433 55.8937 278.157 55.217C276.9 54.5403 275.905 53.5737 275.17 52.317C274.455 51.0603 274.097 49.591 274.097 47.909C274.097 46.2463 274.464 44.7867 275.199 43.53C275.934 42.254 276.939 41.2777 278.215 40.601C279.491 39.9243 280.922 39.586 282.507 39.586C284.092 39.586 285.523 39.9243 286.799 40.601C288.075 41.2777 289.08 42.254 289.815 43.53C290.55 44.7867 290.917 46.2463 290.917 47.909C290.917 49.5717 290.54 51.041 289.786 52.317C289.051 53.5737 288.036 54.5403 286.741 55.217C285.465 55.8937 284.034 56.232 282.449 56.232ZM282.449 51.94C283.396 51.94 284.199 51.592 284.856 50.896C285.533 50.2 285.871 49.2043 285.871 47.909C285.871 46.6137 285.542 45.618 284.885 44.922C284.247 44.226 283.454 43.878 282.507 43.878C281.54 43.878 280.738 44.226 280.1 44.922C279.462 45.5987 279.143 46.5943 279.143 47.909C279.143 49.2043 279.452 50.2 280.071 50.896C280.709 51.592 281.502 51.94 282.449 51.94ZM298.507 42.109C298.99 41.355 299.657 40.746 300.508 40.282C301.359 39.818 302.354 39.586 303.495 39.586C304.829 39.586 306.037 39.9243 307.12 40.601C308.203 41.2777 309.053 42.2443 309.672 43.501C310.31 44.7577 310.629 46.2173 310.629 47.88C310.629 49.5427 310.31 51.012 309.672 52.288C309.053 53.5447 308.203 54.521 307.12 55.217C306.037 55.8937 304.829 56.232 303.495 56.232C302.374 56.232 301.378 56 300.508 55.536C299.657 55.072 298.99 54.4727 298.507 53.738V63.714H293.548V39.818H298.507V42.109ZM305.583 47.88C305.583 46.6427 305.235 45.676 304.539 44.98C303.862 44.2647 303.021 43.907 302.016 43.907C301.03 43.907 300.189 44.2647 299.493 44.98C298.816 45.6953 298.478 46.6717 298.478 47.909C298.478 49.1463 298.816 50.1227 299.493 50.838C300.189 51.5533 301.03 51.911 302.016 51.911C303.002 51.911 303.843 51.5533 304.539 50.838C305.235 50.1033 305.583 49.1173 305.583 47.88ZM327.496 43.936H324.828V56H319.869V43.936H318.071V39.818H319.869V39.354C319.869 37.3627 320.439 35.8547 321.58 34.83C322.721 33.786 324.393 33.264 326.597 33.264C326.964 33.264 327.235 33.2737 327.409 33.293V37.498C326.462 37.44 325.795 37.5753 325.408 37.904C325.021 38.2327 324.828 38.8223 324.828 39.673V39.818H327.496V43.936ZM337.192 56.232C335.607 56.232 334.176 55.8937 332.9 55.217C331.644 54.5403 330.648 53.5737 329.913 52.317C329.198 51.0603 328.84 49.591 328.84 47.909C328.84 46.2463 329.208 44.7867 329.942 43.53C330.677 42.254 331.682 41.2777 332.958 40.601C334.234 39.9243 335.665 39.586 337.25 39.586C338.836 39.586 340.266 39.9243 341.542 40.601C342.818 41.2777 343.824 42.254 344.558 43.53C345.293 44.7867 345.66 46.2463 345.66 47.909C345.66 49.5717 345.283 51.041 344.529 52.317C343.795 53.5737 342.78 54.5403 341.484 55.217C340.208 55.8937 338.778 56.232 337.192 56.232ZM337.192 51.94C338.14 51.94 338.942 51.592 339.599 50.896C340.276 50.2 340.614 49.2043 340.614 47.909C340.614 46.6137 340.286 45.618 339.628 44.922C338.99 44.226 338.198 43.878 337.25 43.878C336.284 43.878 335.481 44.226 334.843 44.922C334.205 45.5987 333.886 46.5943 333.886 47.909C333.886 49.2043 334.196 50.2 334.814 50.896C335.452 51.592 336.245 51.94 337.192 51.94ZM353.25 42.515C353.83 41.6257 354.555 40.9297 355.425 40.427C356.295 39.905 357.262 39.644 358.325 39.644V44.893H356.962C355.725 44.893 354.797 45.1637 354.178 45.705C353.559 46.227 353.25 47.155 353.25 48.489V56H348.291V39.818H353.25V42.515Z" fill="white"/>
<path d="M294.085 109.024L302.683 93.9877L285.362 94.0598L294.085 109.024ZM292.41 66.9826L292.529 95.53L295.529 95.5175L295.41 66.9701L292.41 66.9826Z" fill="white"/>
<path d="M237 117L221 140L237 161H355L371 140L355 117H237Z" fill="#EC426B"/>
<rect x="221" y="235" width="150" height="49" rx="10" fill="#D9D9D9"/>
<path d="M294 283V318H170V138" stroke="white" stroke-width="3"/>
<rect x="243" y="452" width="119" height="39" rx="10" fill="#D9D9D9"/>
<path d="M294.085 397.03L302.695 381.985L285.374 382.075L294.085 397.03ZM292.41 344.988L292.54 383.538L295.54 383.522L295.41 344.972L292.41 344.988Z" fill="white"/>
<path d="M372 139H422V346H294" stroke="white" stroke-width="3"/>
<path d="M212.13 424.76H210.75V431H208.185V424.76H207.255V422.63H208.185V422.39C208.185 421.36 208.48 420.58 209.07 420.05C209.66 419.51 210.525 419.24 211.665 419.24C211.855 419.24 211.995 419.245 212.085 419.255V421.43C211.595 421.4 211.25 421.47 211.05 421.64C210.85 421.81 210.75 422.115 210.75 422.555V422.63H212.13V424.76ZM217.145 431.12C216.325 431.12 215.585 430.945 214.925 430.595C214.275 430.245 213.76 429.745 213.38 429.095C213.01 428.445 212.825 427.685 212.825 426.815C212.825 425.955 213.015 425.2 213.395 424.55C213.775 423.89 214.295 423.385 214.955 423.035C215.615 422.685 216.355 422.51 217.175 422.51C217.995 422.51 218.735 422.685 219.395 423.035C220.055 423.385 220.575 423.89 220.955 424.55C221.335 425.2 221.525 425.955 221.525 426.815C221.525 427.675 221.33 428.435 220.94 429.095C220.56 429.745 220.035 430.245 219.365 430.595C218.705 430.945 217.965 431.12 217.145 431.12ZM217.145 428.9C217.635 428.9 218.05 428.72 218.39 428.36C218.74 428 218.915 427.485 218.915 426.815C218.915 426.145 218.745 425.63 218.405 425.27C218.075 424.91 217.665 424.73 217.175 424.73C216.675 424.73 216.26 424.91 215.93 425.27C215.6 425.62 215.435 426.135 215.435 426.815C215.435 427.485 215.595 428 215.915 428.36C216.245 428.72 216.655 428.9 217.145 428.9ZM225.451 424.025C225.751 423.565 226.126 423.205 226.576 422.945C227.026 422.675 227.526 422.54 228.076 422.54V425.255H227.371C226.731 425.255 226.251 425.395 225.931 425.675C225.611 425.945 225.451 426.425 225.451 427.115V431H222.886V422.63H225.451V424.025ZM235.931 434.135C234.961 433.205 234.206 432.005 233.666 430.535C233.126 429.065 232.856 427.48 232.856 425.78C232.856 424.06 233.136 422.455 233.696 420.965C234.256 419.465 235.051 418.245 236.081 417.305H238.601V417.545C237.551 418.585 236.741 419.835 236.171 421.295C235.601 422.745 235.316 424.24 235.316 425.78C235.316 427.31 235.591 428.785 236.141 430.205C236.691 431.625 237.466 432.855 238.466 433.895V434.135H235.931ZM240.919 421.76C240.469 421.76 240.099 421.63 239.809 421.37C239.529 421.1 239.389 420.77 239.389 420.38C239.389 419.98 239.529 419.65 239.809 419.39C240.099 419.12 240.469 418.985 240.919 418.985C241.359 418.985 241.719 419.12 241.999 419.39C242.289 419.65 242.434 419.98 242.434 420.38C242.434 420.77 242.289 421.1 241.999 421.37C241.719 421.63 241.359 421.76 240.919 421.76ZM242.194 422.63V431H239.629V422.63H242.194ZM249.153 422.54C250.133 422.54 250.913 422.86 251.493 423.5C252.083 424.13 252.378 425 252.378 426.11V431H249.828V426.455C249.828 425.895 249.683 425.46 249.393 425.15C249.103 424.84 248.713 424.685 248.223 424.685C247.733 424.685 247.343 424.84 247.053 425.15C246.763 425.46 246.618 425.895 246.618 426.455V431H244.053V422.63H246.618V423.74C246.878 423.37 247.228 423.08 247.668 422.87C248.108 422.65 248.603 422.54 249.153 422.54ZM255.45 421.76C255 421.76 254.63 421.63 254.34 421.37C254.06 421.1 253.92 420.77 253.92 420.38C253.92 419.98 254.06 419.65 254.34 419.39C254.63 419.12 255 418.985 255.45 418.985C255.89 418.985 256.25 419.12 256.53 419.39C256.82 419.65 256.965 419.98 256.965 420.38C256.965 420.77 256.82 421.1 256.53 421.37C256.25 421.63 255.89 421.76 255.45 421.76ZM256.725 422.63V431H254.16V422.63H256.725ZM258.074 426.815C258.074 425.945 258.249 425.185 258.599 424.535C258.959 423.885 259.454 423.385 260.084 423.035C260.724 422.685 261.454 422.51 262.274 422.51C263.324 422.51 264.199 422.785 264.899 423.335C265.609 423.885 266.074 424.66 266.294 425.66H263.564C263.334 425.02 262.889 424.7 262.229 424.7C261.759 424.7 261.384 424.885 261.104 425.255C260.824 425.615 260.684 426.135 260.684 426.815C260.684 427.495 260.824 428.02 261.104 428.39C261.384 428.75 261.759 428.93 262.229 428.93C262.889 428.93 263.334 428.61 263.564 427.97H266.294C266.074 428.95 265.609 429.72 264.899 430.28C264.189 430.84 263.314 431.12 262.274 431.12C261.454 431.12 260.724 430.945 260.084 430.595C259.454 430.245 258.959 429.745 258.599 429.095C258.249 428.445 258.074 427.685 258.074 426.815ZM268.956 421.76C268.506 421.76 268.136 421.63 267.846 421.37C267.566 421.1 267.426 420.77 267.426 420.38C267.426 419.98 267.566 419.65 267.846 419.39C268.136 419.12 268.506 418.985 268.956 418.985C269.396 418.985 269.756 419.12 270.036 419.39C270.326 419.65 270.471 419.98 270.471 420.38C270.471 420.77 270.326 421.1 270.036 421.37C269.756 421.63 269.396 421.76 268.956 421.76ZM270.231 422.63V431H267.666V422.63H270.231ZM275.9 431.12C275.08 431.12 274.34 430.945 273.68 430.595C273.03 430.245 272.515 429.745 272.135 429.095C271.765 428.445 271.58 427.685 271.58 426.815C271.58 425.955 271.77 425.2 272.15 424.55C272.53 423.89 273.05 423.385 273.71 423.035C274.37 422.685 275.11 422.51 275.93 422.51C276.75 422.51 277.49 422.685 278.15 423.035C278.81 423.385 279.33 423.89 279.71 424.55C280.09 425.2 280.28 425.955 280.28 426.815C280.28 427.675 280.085 428.435 279.695 429.095C279.315 429.745 278.79 430.245 278.12 430.595C277.46 430.945 276.72 431.12 275.9 431.12ZM275.9 428.9C276.39 428.9 276.805 428.72 277.145 428.36C277.495 428 277.67 427.485 277.67 426.815C277.67 426.145 277.5 425.63 277.16 425.27C276.83 424.91 276.42 424.73 275.93 424.73C275.43 424.73 275.015 424.91 274.685 425.27C274.355 425.62 274.19 426.135 274.19 426.815C274.19 427.485 274.35 428 274.67 428.36C275 428.72 275.41 428.9 275.9 428.9ZM283.276 425.135C282.826 425.135 282.456 425.005 282.166 424.745C281.886 424.475 281.746 424.145 281.746 423.755C281.746 423.355 281.886 423.02 282.166 422.75C282.456 422.48 282.826 422.345 283.276 422.345C283.716 422.345 284.076 422.48 284.356 422.75C284.646 423.02 284.791 423.355 284.791 423.755C284.791 424.145 284.646 424.475 284.356 424.745C284.076 425.005 283.716 425.135 283.276 425.135ZM284.761 428.63L283.096 432.935H281.461L282.331 428.63H284.761ZM294.685 428.825V431H293.38C292.45 431 291.725 430.775 291.205 430.325C290.685 429.865 290.425 429.12 290.425 428.09V424.76H289.405V422.63H290.425V420.59H292.99V422.63H294.67V424.76H292.99V428.12C292.99 428.37 293.05 428.55 293.17 428.66C293.29 428.77 293.49 428.825 293.77 428.825H294.685ZM304.004 426.68C304.004 426.92 303.989 427.17 303.959 427.43H298.154C298.194 427.95 298.359 428.35 298.649 428.63C298.949 428.9 299.314 429.035 299.744 429.035C300.384 429.035 300.829 428.765 301.079 428.225H303.809C303.669 428.775 303.414 429.27 303.044 429.71C302.684 430.15 302.229 430.495 301.679 430.745C301.129 430.995 300.514 431.12 299.834 431.12C299.014 431.12 298.284 430.945 297.644 430.595C297.004 430.245 296.504 429.745 296.144 429.095C295.784 428.445 295.604 427.685 295.604 426.815C295.604 425.945 295.779 425.185 296.129 424.535C296.489 423.885 296.989 423.385 297.629 423.035C298.269 422.685 299.004 422.51 299.834 422.51C300.644 422.51 301.364 422.68 301.994 423.02C302.624 423.36 303.114 423.845 303.464 424.475C303.824 425.105 304.004 425.84 304.004 426.68ZM301.379 426.005C301.379 425.565 301.229 425.215 300.929 424.955C300.629 424.695 300.254 424.565 299.804 424.565C299.374 424.565 299.009 424.69 298.709 424.94C298.419 425.19 298.239 425.545 298.169 426.005H301.379ZM308.762 431.12C308.032 431.12 307.382 430.995 306.812 430.745C306.242 430.495 305.792 430.155 305.462 429.725C305.132 429.285 304.947 428.795 304.907 428.255H307.442C307.472 428.545 307.607 428.78 307.847 428.96C308.087 429.14 308.382 429.23 308.732 429.23C309.052 429.23 309.297 429.17 309.467 429.05C309.647 428.92 309.737 428.755 309.737 428.555C309.737 428.315 309.612 428.14 309.362 428.03C309.112 427.91 308.707 427.78 308.147 427.64C307.547 427.5 307.047 427.355 306.647 427.205C306.247 427.045 305.902 426.8 305.612 426.47C305.322 426.13 305.177 425.675 305.177 425.105C305.177 424.625 305.307 424.19 305.567 423.8C305.837 423.4 306.227 423.085 306.737 422.855C307.257 422.625 307.872 422.51 308.582 422.51C309.632 422.51 310.457 422.77 311.057 423.29C311.667 423.81 312.017 424.5 312.107 425.36H309.737C309.697 425.07 309.567 424.84 309.347 424.67C309.137 424.5 308.857 424.415 308.507 424.415C308.207 424.415 307.977 424.475 307.817 424.595C307.657 424.705 307.577 424.86 307.577 425.06C307.577 425.3 307.702 425.48 307.952 425.6C308.212 425.72 308.612 425.84 309.152 425.96C309.772 426.12 310.277 426.28 310.667 426.44C311.057 426.59 311.397 426.84 311.687 427.19C311.987 427.53 312.142 427.99 312.152 428.57C312.152 429.06 312.012 429.5 311.732 429.89C311.462 430.27 311.067 430.57 310.547 430.79C310.037 431.01 309.442 431.12 308.762 431.12ZM318.386 428.825V431H317.081C316.151 431 315.426 430.775 314.906 430.325C314.386 429.865 314.126 429.12 314.126 428.09V424.76H313.106V422.63H314.126V420.59H316.691V422.63H318.371V424.76H316.691V428.12C316.691 428.37 316.751 428.55 316.871 428.66C316.991 428.77 317.191 428.825 317.471 428.825H318.386ZM327.705 426.68C327.705 426.92 327.69 427.17 327.66 427.43H321.855C321.895 427.95 322.06 428.35 322.35 428.63C322.65 428.9 323.015 429.035 323.445 429.035C324.085 429.035 324.53 428.765 324.78 428.225H327.51C327.37 428.775 327.115 429.27 326.745 429.71C326.385 430.15 325.93 430.495 325.38 430.745C324.83 430.995 324.215 431.12 323.535 431.12C322.715 431.12 321.985 430.945 321.345 430.595C320.705 430.245 320.205 429.745 319.845 429.095C319.485 428.445 319.305 427.685 319.305 426.815C319.305 425.945 319.48 425.185 319.83 424.535C320.19 423.885 320.69 423.385 321.33 423.035C321.97 422.685 322.705 422.51 323.535 422.51C324.345 422.51 325.065 422.68 325.695 423.02C326.325 423.36 326.815 423.845 327.165 424.475C327.525 425.105 327.705 425.84 327.705 426.68ZM325.08 426.005C325.08 425.565 324.93 425.215 324.63 424.955C324.33 424.695 323.955 424.565 323.505 424.565C323.075 424.565 322.71 424.69 322.41 424.94C322.12 425.19 321.94 425.545 321.87 426.005H325.08ZM330.693 425.135C330.243 425.135 329.873 425.005 329.583 424.745C329.303 424.475 329.163 424.145 329.163 423.755C329.163 423.355 329.303 423.02 329.583 422.75C329.873 422.48 330.243 422.345 330.693 422.345C331.133 422.345 331.493 422.48 331.773 422.75C332.063 423.02 332.208 423.355 332.208 423.755C332.208 424.145 332.063 424.475 331.773 424.745C331.493 425.005 331.133 425.135 330.693 425.135ZM332.178 428.63L330.513 432.935H328.878L329.748 428.63H332.178ZM340.002 423.815C340.252 423.425 340.597 423.11 341.037 422.87C341.477 422.63 341.992 422.51 342.582 422.51C343.272 422.51 343.897 422.685 344.457 423.035C345.017 423.385 345.457 423.885 345.777 424.535C346.107 425.185 346.272 425.94 346.272 426.8C346.272 427.66 346.107 428.42 345.777 429.08C345.457 429.73 345.017 430.235 344.457 430.595C343.897 430.945 343.272 431.12 342.582 431.12C342.002 431.12 341.487 431 341.037 430.76C340.597 430.52 340.252 430.21 340.002 429.83V434.99H337.437V422.63H340.002V423.815ZM343.662 426.8C343.662 426.16 343.482 425.66 343.122 425.3C342.772 424.93 342.337 424.745 341.817 424.745C341.307 424.745 340.872 424.93 340.512 425.3C340.162 425.67 339.987 426.175 339.987 426.815C339.987 427.455 340.162 427.96 340.512 428.33C340.872 428.7 341.307 428.885 341.817 428.885C342.327 428.885 342.762 428.7 343.122 428.33C343.482 427.95 343.662 427.44 343.662 426.8ZM347.108 426.8C347.108 425.94 347.268 425.185 347.588 424.535C347.918 423.885 348.363 423.385 348.923 423.035C349.483 422.685 350.108 422.51 350.798 422.51C351.388 422.51 351.903 422.63 352.343 422.87C352.793 423.11 353.138 423.425 353.378 423.815V422.63H355.943V431H353.378V429.815C353.128 430.205 352.778 430.52 352.328 430.76C351.888 431 351.373 431.12 350.783 431.12C350.103 431.12 349.483 430.945 348.923 430.595C348.363 430.235 347.918 429.73 347.588 429.08C347.268 428.42 347.108 427.66 347.108 426.8ZM353.378 426.815C353.378 426.175 353.198 425.67 352.838 425.3C352.488 424.93 352.058 424.745 351.548 424.745C351.038 424.745 350.603 424.93 350.243 425.3C349.893 425.66 349.718 426.16 349.718 426.8C349.718 427.44 349.893 427.95 350.243 428.33C350.603 428.7 351.038 428.885 351.548 428.885C352.058 428.885 352.488 428.7 352.838 428.33C353.198 427.96 353.378 427.455 353.378 426.815ZM361.203 431.12C360.473 431.12 359.823 430.995 359.253 430.745C358.683 430.495 358.233 430.155 357.903 429.725C357.573 429.285 357.388 428.795 357.348 428.255H359.883C359.913 428.545 360.048 428.78 360.288 428.96C360.528 429.14 360.823 429.23 361.173 429.23C361.493 429.23 361.738 429.17 361.908 429.05C362.088 428.92 362.178 428.755 362.178 428.555C362.178 428.315 362.053 428.14 361.803 428.03C361.553 427.91 361.148 427.78 360.588 427.64C359.988 427.5 359.488 427.355 359.088 427.205C358.688 427.045 358.343 426.8 358.053 426.47C357.763 426.13 357.618 425.675 357.618 425.105C357.618 424.625 357.748 424.19 358.008 423.8C358.278 423.4 358.668 423.085 359.178 422.855C359.698 422.625 360.313 422.51 361.023 422.51C362.073 422.51 362.898 422.77 363.498 423.29C364.108 423.81 364.458 424.5 364.548 425.36H362.178C362.138 425.07 362.008 424.84 361.788 424.67C361.578 424.5 361.298 424.415 360.948 424.415C360.648 424.415 360.418 424.475 360.258 424.595C360.098 424.705 360.018 424.86 360.018 425.06C360.018 425.3 360.143 425.48 360.393 425.6C360.653 425.72 361.053 425.84 361.593 425.96C362.213 426.12 362.718 426.28 363.108 426.44C363.498 426.59 363.838 426.84 364.128 427.19C364.428 427.53 364.583 427.99 364.593 428.57C364.593 429.06 364.453 429.5 364.173 429.89C363.903 430.27 363.508 430.57 362.988 430.79C362.478 431.01 361.883 431.12 361.203 431.12ZM369.567 431.12C368.837 431.12 368.187 430.995 367.617 430.745C367.047 430.495 366.597 430.155 366.267 429.725C365.937 429.285 365.752 428.795 365.712 428.255H368.247C368.277 428.545 368.412 428.78 368.652 428.96C368.892 429.14 369.187 429.23 369.537 429.23C369.857 429.23 370.102 429.17 370.272 429.05C370.452 428.92 370.542 428.755 370.542 428.555C370.542 428.315 370.417 428.14 370.167 428.03C369.917 427.91 369.512 427.78 368.952 427.64C368.352 427.5 367.852 427.355 367.452 427.205C367.052 427.045 366.707 426.8 366.417 426.47C366.127 426.13 365.982 425.675 365.982 425.105C365.982 424.625 366.112 424.19 366.372 423.8C366.642 423.4 367.032 423.085 367.542 422.855C368.062 422.625 368.677 422.51 369.387 422.51C370.437 422.51 371.262 422.77 371.862 423.29C372.472 423.81 372.822 424.5 372.912 425.36H370.542C370.502 425.07 370.372 424.84 370.152 424.67C369.942 424.5 369.662 424.415 369.312 424.415C369.012 424.415 368.782 424.475 368.622 424.595C368.462 424.705 368.382 424.86 368.382 425.06C368.382 425.3 368.507 425.48 368.757 425.6C369.017 425.72 369.417 425.84 369.957 425.96C370.577 426.12 371.082 426.28 371.472 426.44C371.862 426.59 372.202 426.84 372.492 427.19C372.792 427.53 372.947 427.99 372.957 428.57C372.957 429.06 372.817 429.5 372.537 429.89C372.267 430.27 371.872 430.57 371.352 430.79C370.842 431.01 370.247 431.12 369.567 431.12ZM378.337 431.12C377.517 431.12 376.777 430.945 376.117 430.595C375.467 430.245 374.952 429.745 374.572 429.095C374.202 428.445 374.017 427.685 374.017 426.815C374.017 425.955 374.207 425.2 374.587 424.55C374.967 423.89 375.487 423.385 376.147 423.035C376.807 422.685 377.547 422.51 378.367 422.51C379.187 422.51 379.927 422.685 380.587 423.035C381.247 423.385 381.767 423.89 382.147 424.55C382.527 425.2 382.717 425.955 382.717 426.815C382.717 427.675 382.522 428.435 382.132 429.095C381.752 429.745 381.227 430.245 380.557 430.595C379.897 430.945 379.157 431.12 378.337 431.12ZM378.337 428.9C378.827 428.9 379.242 428.72 379.582 428.36C379.932 428 380.107 427.485 380.107 426.815C380.107 426.145 379.937 425.63 379.597 425.27C379.267 424.91 378.857 424.73 378.367 424.73C377.867 424.73 377.452 424.91 377.122 425.27C376.792 425.62 376.627 426.135 376.627 426.815C376.627 427.485 376.787 428 377.107 428.36C377.437 428.72 377.847 428.9 378.337 428.9ZM383.387 434.135V433.895C384.387 432.855 385.162 431.625 385.712 430.205C386.262 428.785 386.537 427.31 386.537 425.78C386.537 424.24 386.252 422.745 385.682 421.295C385.112 419.835 384.302 418.585 383.252 417.545V417.305H385.772C386.802 418.245 387.597 419.465 388.157 420.965C388.717 422.455 388.997 424.06 388.997 425.78C388.997 427.48 388.727 429.065 388.187 430.535C387.647 432.005 386.892 433.205 385.922 434.135H383.387ZM394.84 424.7C395.33 424.68 395.69 424.575 395.92 424.385C396.15 424.185 396.265 423.905 396.265 423.545C396.265 423.275 396.215 422.74 396.115 421.94C396.105 421.86 396.075 421.605 396.025 421.175C395.975 420.735 395.95 420.34 395.95 419.99C395.95 419.14 396.21 418.48 396.73 418.01C397.25 417.53 397.945 417.29 398.815 417.29H399.895V419.39H399.31C398.99 419.39 398.76 419.46 398.62 419.6C398.48 419.74 398.41 419.955 398.41 420.245C398.41 420.465 398.45 420.965 398.53 421.745C398.62 422.715 398.665 423.35 398.665 423.65C398.665 424.2 398.53 424.655 398.26 425.015C398 425.375 397.6 425.605 397.06 425.705V425.735C397.6 425.845 398 426.08 398.26 426.44C398.53 426.79 398.665 427.245 398.665 427.805C398.665 428.105 398.62 428.74 398.53 429.71C398.45 430.47 398.41 430.965 398.41 431.195C398.41 431.485 398.48 431.7 398.62 431.84C398.76 431.99 398.99 432.065 399.31 432.065H399.895V434.165H398.815C397.945 434.165 397.25 433.925 396.73 433.445C396.21 432.975 395.95 432.31 395.95 431.45C395.95 431.1 395.975 430.71 396.025 430.28C396.075 429.84 396.105 429.58 396.115 429.5C396.215 428.7 396.265 428.165 396.265 427.895C396.265 427.555 396.15 427.285 395.92 427.085C395.69 426.875 395.33 426.76 394.84 426.74V424.7ZM213.12 518.74C212.63 518.76 212.27 518.875 212.04 519.085C211.81 519.285 211.695 519.555 211.695 519.895C211.695 520.165 211.745 520.7 211.845 521.5C211.855 521.58 211.885 521.84 211.935 522.28C211.985 522.71 212.01 523.1 212.01 523.45C212.01 524.31 211.75 524.975 211.23 525.445C210.71 525.925 210.015 526.165 209.145 526.165H208.065V524.065H208.65C208.97 524.065 209.2 523.99 209.34 523.84C209.48 523.7 209.55 523.485 209.55 523.195C209.55 522.965 209.51 522.47 209.43 521.71C209.34 520.74 209.295 520.105 209.295 519.805C209.295 519.245 209.425 518.79 209.685 518.44C209.955 518.08 210.36 517.845 210.9 517.735V517.705C210.36 517.605 209.955 517.375 209.685 517.015C209.425 516.655 209.295 516.2 209.295 515.65C209.295 515.35 209.34 514.715 209.43 513.745C209.51 512.965 209.55 512.465 209.55 512.245C209.55 511.955 209.48 511.74 209.34 511.6C209.2 511.46 208.97 511.39 208.65 511.39H208.065V509.29H209.145C210.015 509.29 210.71 509.53 211.23 510.01C211.75 510.48 212.01 511.14 212.01 511.99C212.01 512.34 211.985 512.735 211.935 513.175C211.885 513.605 211.855 513.86 211.845 513.94C211.745 514.74 211.695 515.275 211.695 515.545C211.695 515.905 211.81 516.185 212.04 516.385C212.27 516.575 212.63 516.68 213.12 516.7V518.74Z" fill="white"/>
<path d="M183.054 505.872L183.656 505.074L183.656 505.074L183.054 505.872ZM182.575 442.381L183.19 443.17L183.19 443.17L182.575 442.381ZM198.478 430L187.04 431.588L194.134 440.699L198.478 430ZM198.19 516.042L197.464 515.493L196.259 517.09L196.986 517.638L198.19 516.042ZM196.01 514.397L194.557 513.3L193.352 514.896L194.805 515.993L196.01 514.397ZM193.103 512.203L191.65 511.106L190.445 512.702L191.899 513.799L193.103 512.203ZM190.196 510.009L188.743 508.912L187.538 510.509L188.992 511.606L190.196 510.009ZM187.29 507.816L185.836 506.719L184.631 508.315L186.085 509.412L187.29 507.816ZM184.383 505.622L183.656 505.074L182.451 506.67L183.178 507.218L184.383 505.622ZM183.656 505.074C183.389 504.872 183.126 504.668 182.866 504.462L181.622 506.028C181.895 506.245 182.171 506.459 182.451 506.67L183.656 505.074ZM181.341 503.188C180.841 502.749 180.355 502.299 179.883 501.841L178.489 503.275C178.985 503.757 179.496 504.229 180.021 504.691L181.341 503.188ZM178.494 500.42C178.041 499.932 177.603 499.435 177.179 498.93L175.646 500.214C176.092 500.746 176.553 501.269 177.029 501.782L178.494 500.42ZM175.943 497.375C175.543 496.844 175.158 496.305 174.789 495.758L173.131 496.878C173.52 497.453 173.925 498.02 174.346 498.579L175.943 497.375ZM173.72 494.085C173.377 493.516 173.05 492.94 172.739 492.358L170.975 493.301C171.302 493.913 171.646 494.519 172.007 495.117L173.72 494.085ZM171.848 490.583C171.566 489.983 171.3 489.376 171.05 488.765L169.198 489.521C169.461 490.165 169.741 490.802 170.038 491.434L171.848 490.583ZM170.346 486.907C170.127 486.281 169.924 485.651 169.738 485.016L167.819 485.58C168.015 486.247 168.228 486.91 168.458 487.568L170.346 486.907ZM169.226 483.096C169.072 482.451 168.934 481.803 168.813 481.152L166.847 481.518C166.974 482.202 167.119 482.883 167.281 483.561L169.226 483.096ZM168.499 479.19C168.411 478.533 168.339 477.874 168.284 477.214L166.291 477.38C166.349 478.074 166.424 478.766 166.517 479.456L168.499 479.19ZM168.169 475.23C168.148 474.568 168.143 473.905 168.154 473.243L166.155 473.208C166.142 473.904 166.148 474.6 166.17 475.296L168.169 475.23ZM168.239 471.257C168.284 470.597 168.346 469.937 168.424 469.279L166.438 469.042C166.356 469.734 166.291 470.427 166.244 471.122L168.239 471.257ZM168.709 467.312C168.82 466.66 168.948 466.009 169.093 465.362L167.141 464.926C166.989 465.607 166.855 466.29 166.738 466.976L168.709 467.312ZM169.575 463.435C169.752 462.797 169.945 462.164 170.155 461.534L168.257 460.902C168.037 461.564 167.834 462.23 167.648 462.9L169.575 463.435ZM170.831 459.667C171.071 459.051 171.328 458.441 171.601 457.836L169.779 457.013C169.491 457.649 169.221 458.291 168.968 458.938L170.831 459.667ZM172.465 456.048C172.768 455.461 173.086 454.881 173.42 454.307L171.692 453.3C171.34 453.904 171.005 454.515 170.687 455.132L172.465 456.048ZM174.464 452.618C174.825 452.066 175.201 451.521 175.593 450.984L173.978 449.804C173.566 450.369 173.17 450.942 172.79 451.523L174.464 452.618ZM176.806 449.41C177.222 448.898 177.653 448.395 178.099 447.9L176.613 446.561C176.144 447.081 175.691 447.611 175.254 448.149L176.806 449.41ZM179.466 446.459C179.931 445.994 180.41 445.537 180.904 445.09L179.561 443.607C179.043 444.077 178.539 444.557 178.05 445.046L179.466 446.459ZM182.409 443.793C182.666 443.583 182.926 443.375 183.19 443.17L181.961 441.592C181.684 441.807 181.411 442.025 181.142 442.246L182.409 443.793ZM183.19 443.17L183.985 442.551L182.756 440.973L181.961 441.592L183.19 443.17ZM185.575 441.313L187.165 440.075L185.937 438.497L184.346 439.735L185.575 441.313ZM188.755 438.837L190.346 437.598L189.117 436.02L187.527 437.258L188.755 438.837ZM191.936 436.36L193.526 435.122L192.297 433.544L190.707 434.782L191.936 436.36ZM195.116 433.884L196.707 432.646L195.478 431.068L193.888 432.306L195.116 433.884ZM183.054 505.872L184.258 504.275L184.258 504.275L183.054 505.872ZM182.575 442.381L183.804 443.959L183.804 443.959L182.575 442.381ZM198.478 430L175.603 433.175L189.79 451.398L198.478 430ZM198.793 515.244L198.066 514.695L195.656 517.888L196.383 518.436L198.793 515.244ZM196.612 513.598L195.159 512.501L192.75 515.694L194.203 516.791L196.612 513.598ZM193.706 511.405L192.252 510.308L189.843 513.501L191.296 514.598L193.706 511.405ZM190.799 509.211L189.345 508.114L186.936 511.307L188.389 512.404L190.799 509.211ZM187.892 507.017L186.438 505.921L184.029 509.113L185.482 510.21L187.892 507.017ZM184.985 504.824L184.258 504.275L181.849 507.468L182.576 508.017L184.985 504.824ZM184.258 504.275C183.998 504.079 183.741 503.88 183.488 503.679L181 506.811C181.279 507.033 181.562 507.252 181.849 507.468L184.258 504.275ZM182.001 502.437C181.514 502.008 181.04 501.57 180.58 501.124L177.792 503.992C178.3 504.485 178.823 504.969 179.361 505.442L182.001 502.437ZM179.227 499.74C178.785 499.264 178.358 498.78 177.946 498.288L174.88 500.857C175.336 501.401 175.808 501.937 176.297 502.462L179.227 499.74ZM176.741 496.773C176.352 496.256 175.977 495.731 175.617 495.198L172.303 497.438C172.701 498.027 173.116 498.608 173.547 499.18L176.741 496.773ZM174.576 493.568C174.242 493.015 173.924 492.454 173.621 491.887L170.093 493.772C170.428 494.4 170.781 495.021 171.151 495.634L174.576 493.568ZM172.753 490.158C172.478 489.573 172.219 488.982 171.976 488.386L168.273 489.9C168.542 490.559 168.829 491.212 169.133 491.859L172.753 490.158ZM171.29 486.577C171.076 485.967 170.879 485.353 170.697 484.734L166.859 485.862C167.06 486.545 167.278 487.224 167.514 487.899L171.29 486.577ZM170.199 482.863C170.049 482.235 169.914 481.603 169.796 480.969L165.864 481.701C165.994 482.402 166.143 483.1 166.309 483.794L170.199 482.863ZM169.49 479.057C169.404 478.417 169.334 477.775 169.281 477.131L165.295 477.463C165.354 478.173 165.431 478.882 165.526 479.589L169.49 479.057ZM169.169 475.198C169.148 474.552 169.143 473.906 169.154 473.261L165.155 473.19C165.142 473.903 165.148 474.616 165.171 475.328L169.169 475.198ZM169.237 471.325C169.281 470.681 169.341 470.038 169.417 469.397L165.445 468.924C165.361 469.633 165.295 470.343 165.246 471.054L169.237 471.325ZM169.695 467.48C169.803 466.844 169.928 466.211 170.069 465.58L166.165 464.708C166.009 465.405 165.872 466.105 165.752 466.807L169.695 467.48ZM170.539 463.702C170.711 463.081 170.899 462.463 171.103 461.85L167.309 460.586C167.083 461.264 166.875 461.946 166.684 462.633L170.539 463.702ZM171.762 460.031C171.996 459.431 172.247 458.837 172.513 458.248L168.867 456.601C168.573 457.253 168.296 457.911 168.037 458.574L171.762 460.031ZM173.354 456.506C173.649 455.935 173.959 455.369 174.284 454.81L170.828 452.797C170.468 453.416 170.124 454.041 169.798 454.674L173.354 456.506ZM175.301 453.165C175.652 452.627 176.019 452.097 176.401 451.574L173.171 449.215C172.748 449.793 172.342 450.38 171.953 450.976L175.301 453.165ZM177.582 450.041C177.987 449.542 178.407 449.052 178.842 448.57L175.871 445.892C175.39 446.424 174.926 446.967 174.478 447.518L177.582 450.041ZM180.174 447.166C180.627 446.712 181.094 446.267 181.575 445.831L178.89 442.866C178.359 443.347 177.843 443.839 177.343 444.34L180.174 447.166ZM183.043 444.567C183.293 444.362 183.547 444.159 183.804 443.959L181.347 440.803C181.063 441.023 180.784 441.246 180.508 441.472L183.043 444.567ZM183.804 443.959L184.599 443.34L182.142 440.184L181.347 440.803L183.804 443.959ZM186.189 442.102L187.78 440.864L185.322 437.707L183.732 438.946L186.189 442.102ZM189.37 439.626L190.96 438.388L188.503 435.231L186.913 436.469L189.37 439.626ZM192.55 437.149L194.14 435.911L191.683 432.755L190.093 433.993L192.55 437.149ZM195.731 434.673L197.321 433.435L194.864 430.279L193.273 431.517L195.731 434.673Z" fill="#FEE50A"/>
<path d="M220.997 140.133L206.194 131.142L205.809 148.458L220.997 140.133ZM169.967 140.5L207.467 141.333L207.534 138.334L170.033 137.5L169.967 140.5Z" fill="white"/>
</svg>
